<?xml version="1.0" encoding="UTF-8"?>
<svg viewBox="0 0 353.51587 439.39734" xmlns="http://www.w3.org/2000/svg" xmlns:xlink="http://www.w3.org/1999/xlink">
 <g transform="translate(-84.286 -234.42)">
  <g transform="translate(-16.162 13.132)">
   <path d="m133.25 283.5c-4.104 0-7.9038 2.5712-9.3438 6.5312l-14.438 22.469c-1.792 13.44-0.82199 18.589 0 24.188 0.17782 1.211 1.0165 2.25 2.3125 2.25h13.344c1.5284-8.0595 8.5383-14.156 16.969-14.156s15.441 6.0964 16.969 14.156h52.5c1.4928-8.1043 8.5381-14.25 17-14.25s15.476 6.1457 16.969 14.25h2.9062c1.4943-8.1025 8.5081-14.25 16.969-14.25 8.4723 0 15.519 6.1621 17 14.281 6.8807-0.039 12.815-1.5022 12.344-11.844v-0.6875c0-2.736-2.2328-5.0625-4.9688-5.0625h-121.38c0.0487-2.5667 0-14.624 0-16.781h-4.75v-17.062c0-2.232-1.7992-4.0312-4.0312-4.0312z"/>
   <path d="m156.57 292.99h-25.043l-11.542 18.056h36.586z" fill="#fff"/>
   <path transform="rotate(27.41)" d="m284.77 104.72h118.19v43.387h-118.19z" stroke="#000" stroke-linecap="round" stroke-linejoin="round" stroke-width="5.5175"/>
   <path transform="matrix(2.0277 0 0 2.0277 -131.28 -343.07)" d="m141.55 337.93c0 3.7658-3.0245 6.8185-6.7554 6.8185s-6.7554-3.0528-6.7554-6.8185 3.0245-6.8185 6.7554-6.8185 6.7554 3.0528 6.7554 6.8185z"/>
   <path transform="matrix(2.0277 0 0 2.0277 -44.77 -343.07)" d="m141.55 337.93c0 3.7658-3.0245 6.8185-6.7554 6.8185s-6.7554-3.0528-6.7554-6.8185 3.0245-6.8185 6.7554-6.8185 6.7554 3.0528 6.7554 6.8185z"/>
   <path transform="matrix(2.0277 0 0 2.0277 -7.899 -343.07)" d="m141.55 337.93c0 3.7658-3.0245 6.8185-6.7554 6.8185s-6.7554-3.0528-6.7554-6.8185 3.0245-6.8185 6.7554-6.8185 6.7554 3.0528 6.7554 6.8185z"/>
   <path d="m309.23 279.76 16.146 38.806" fill="#fff" stroke="#000" stroke-linecap="round" stroke-linejoin="round" stroke-width="5.5175"/>
   <path d="m204.54 274.37-15.987 38.872" fill="#fff" stroke="#000" stroke-linecap="round" stroke-linejoin="round" stroke-width="5.5175"/>
   <path d="m196.45 294.17-12.063 29.288" fill="#fff" stroke="#000" stroke-linecap="round" stroke-linejoin="round" stroke-width="8.304"/>
  </g>
  <path d="m84.286 367.71v133.51h239.86c-9.0805-7.9043-10.817-30.672-15.243-33.495-10.387-11.089-0.027-8.2883-15.595-33.495-8.0316-13.467 2.2825-25.074-18.638-40.938-5.7966-12.988-1.106-16.816-9.2631-22.33-23.252-10.2-21.772-3.6441-37.706-3.6054-11.762-0.90862-20.406-2.5255-47.804 0.1163-12.454 0.33515-9.0854 2.0176-47.804 0.11631-32.712-5.6758-45.144-0.98308-47.804 0.1163z"/>
  <g transform="translate(-.48001,.00618)">
   <path d="m325.69 470.81c-0.12199-5e-3 -0.30587 0.0366-0.59375 0.15625-1.2732 0.5856-2.5022 0.53895-3.0625 1.4375-0.63954 0.83011-2.4244-0.089-3.5625-0.21875-1.9497 0.16158 2.2087 1.2848 2.4688 3.375-1.8339 4.1944-6.2744 0.97169-5.0625 10.75-2.2949 1.6226 0.0129 5.7785-0.0937 7.6562-1.9393 3.0077-0.39278 5.6617 1.5 7.25h15.406c1.6042-0.39803 3.1893-0.88784 4.7188-1.5312 1.1741-0.8646 2.3122-1.7087 0.3125-5.3438 0.28947-2.0546 1.2581-4.8589-3-9.4375 0.4694-1.9146-1.335-4.9464-2.9688-6.25-3.0672-2.4473-2.3122-2.7888-7.0938-3.6875-0.80439-1.355 1.8852-4.1242 1.0312-4.1562z"/>
   <path d="m338.22 470.47c-0.61531 0.0672 1.657 2.6028 0.96875 4.3125-3.6384 2.7782-5.9413-2.2324-9.625 6.9062-2.7939 0.30563-2.7771 5.066-3.7812 6.6562-5.1076 2.735-1.8329 9.1268-0.15625 9.9688 2.1306 1.0532 4.2669 2.0403 6.4375 2.9062h12.562c0.0926-0.52544 0.15349-1.1284 0.15625-1.9062 1.2498-1.6562 3.4713-3.6181 1.9688-9.6875 1.3392-1.4466 1.2026-4.9738 0.40625-6.9062-1.495-3.6279-0.66092-3.5508-4.4062-6.6562-0.0527-1.8001 4.7908-3.0012 2.3125-3.2812-1.3974-0.10553-2.4179-0.76394-3.3438-0.25-0.96194 0.41566-2.099-1.2719-3.0312-1.9375-0.22292-0.10056-0.38085-0.13459-0.46875-0.125z"/>
   <path d="m347.94 476.44c-0.88863-6e-3 -1.632 0.16003-2.0312 0.40625-9.5093 2.5188-9.7867 6.4142-13.281 10.938-0.6006 1.3287-1.1794 2.6529 2.3438 4.8438 0.75337 1.9333 1.2644 4.842 7.2188 6.75 0.18066 0.64994 0.68067 1.28 1.3125 1.8438h15.812c-0.19365-0.12584-0.36445-0.2849-0.5-0.46875-0.45415-4.5552 4.9997-3.9104-0.84375-11.844 1.2069-2.5383-2.8613-4.9979-3.6875-6.6875 0.26555-4.3372-3.6779-5.7633-6.3438-5.7812z"/>
   <path d="m358.81 471.16c-0.0855 1e-3 -0.20648 0.0628-0.40625 0.1875-0.90207 0.77197-2.1182 2.0417-2.5312 1.6875-0.95766-0.39162-1.9569 0.91814-3.2812 1.1875-2.336 0.56837 2.4595 1.1737 2.6562 2.9375-3.6455 3.5361-2.5768 3.8296-2.5312 6.0312-1.0056 2.5972-1.2294 6.6034 0.59375 7.6875-1.6209 4.054 1.6864 7.6278 3.1875 9.25-0.0144 0.42607 0.0257 0.73667 0.0312 1.0938h11.031c2.4546-1.2807 4.8112-2.7901 7.1562-4.375 1.4907-1.0216 3.738-7.625-1.5312-9.6875-1.1805-1.4332-1.8124-6.0966-4.5312-6.0625-4.7845-8.4843-6.32-3.3454-10.188-5.625-0.89423-1.5874 0.94256-4.3202 0.34375-4.3125z"/>
   <path d="m369.41 470.53c-0.0854-4e-3 -0.23043 0.0441-0.4375 0.15625-0.94788 0.71498-2.2345 1.9102-2.625 1.5312-0.93174-0.44982-2.0365 0.81268-3.375 1-2.3665 0.42351 2.4122 1.3212 2.5 3.0938-3.8562 3.305-2.8162 3.6747-2.9062 5.875-1.1636 2.5304-1.628 6.5245 0.125 7.7188-1.8674 3.9465 1.2266 7.6947 2.625 9.4062-0.0708 0.73947-0.12566 1.3663-0.125 1.9062h18.906c0.38487-0.7245 0.61-1.6207 0.625-2.7812 1.5508-0.92792 3.1948-8.6795-1.9375-11.062-1.0901-1.5032-1.4405-6.1792-4.1562-6.3125-4.2532-8.7627-6.0927-3.7054-9.8125-6.2188-0.79482-1.6394 1.1919-4.2833 0.59375-4.3125z"/>
   <path d="m329.58 383.16c0.78721 0.83216 1.5674 2.7155 2.5913 2.4922 1.0073-0.32669 1.9116 0.49504 3.2628 0.8668 2.3785 0.75048-2.6196 0.99786-2.9134 2.7746 3.0797 3.7665 2.2798 3.5554 3.0507 7.4028 0.41064 2.0494-0.1477 5.5257-1.7397 6.6883 0.30976 6.2449-2.2335 7.7574-3.778 9.143-0.81069 4.0688-2.2423 3.9794-3.6973 3.8849-4.3572 3.1904-8.9874 0.57942-14.926-8.5642-1.4839-1.1481-3.4574-8.0366 2.0801-9.7405 1.2907-1.368 2.1821-6.0358 4.9827-5.7995 5.3691-8.2618 6.6846-2.9227 10.789-4.951 1.1469-1.7667-1.2979-5.3292 0.29788-4.1974z"/>
   <path d="m297.19 357.8c-0.90207 0.77197-2.1131 2.0386-2.5262 1.6844-0.95766-0.39162-1.9731 0.92843-3.2975 1.1978-2.336 0.56837 2.4833 1.1638 2.6801 2.9277-3.6455 3.5361-2.5996 3.837-2.554 6.0387-1.0056 2.5972-1.2281 6.6089 0.59507 7.693-1.6209 4.054 1.7021 7.6143 3.2032 9.2365-0.20105 2.6612 4.1161 5.235 5.8833 5.6794 3.0364 2.1144 8.0601 1.0766 12.348-8.9556 1.4907-1.0216 3.7366-7.6404-1.5327-9.7029-1.1805-1.4332-1.8131-6.0755-4.5319-6.0414-4.7845-8.4843-6.3182-3.3391-10.186-5.6187-1.022-1.8142 1.5162-5.1366-0.082-4.1389z"/>
   <path d="m327.59 449.07c0.25855-0.69485 0.42268 0.0403 0.98244-0.41975 0.98966-0.30176 0.94234-1.9665 1.7984-3.0123 1.4511-1.9168-2.66 0.66754-3.9273-0.57505 0.59026-5.0443-2.4105-6.6165-3.8372-8.2939-0.86216-2.6483-3.2252-5.8978-5.3232-5.5857-1.306-4.1661-6.1313-4.825-8.3199-5.1335-3.598-4.7299-6.6832-5.2914-7.5171-3.5176-7.5967 0.81024-3.1413 12.613-2.5412 15.579-0.5096 1.7339 1.933 8.2826 7.32 6.5507 1.8207 0.36454 5.2448 7.5624 7.3302 5.8177 9.0699 3.5511 7.0068-1.4054 11.445-2.0831 1.9386 0.76001 2.0714 4.9389 2.6794 3.1556z"/>
  </g>
  <g transform="translate(-198.77 172.58)">
   <path d="m290.50985,352.31379c-4.46544,1.43161-7.61114,4.08563-7.02166,5.92433l2.20407,6.87485c-.15003.40938-.17683.81002-.0611,1.17086s.36698.66556.72843.91052l1.90843,5.95269c-.15003.40938-.17683.81001-.0611,1.17086s.36703.66657.72878.91161l1.41755,4.42156c.7012,1.75289 4.74137,2.0488 9.12706.64275s7.50069-3.9959 7.05199-5.82973l-1.4559-4.54119c.10587-.35626.11414-.69877.0121-1.0172s-.31066-.60081-.60439-.83037l-1.98374-6.18758c.10582-.35618.11448-.69776.0124-1.01612s-.31065-.60081-.60439-.83036l-2.24102-6.99013c-.58949-1.83871-4.69196-2.16897-9.15739-.73735z"/>
   <path d="m334.21478,438.51507c.61903-4.64827-.4318-8.62759-2.34579-8.88249l-7.15633-.95305c-.30566-.31092-.65622-.50674-1.03185-.55673s-.7586.0465-1.13477.26823l-6.19643-.82521c-.30565-.31092-.6562-.50673-1.03184-.55672s-.75954.0462-1.13592.26807l-4.6026-.61295c-1.88429-.11719-3.8822,3.40684-4.49018,7.97211s.39803,8.48935 2.24731,8.86938l4.72713.62953c.27654.24829.58253.40245.91398.44663s.67597-.0234 1.00922-.19046l6.44094.85776c.27656.24816.58147.40232.91287.44643s.67597-.0234 1.00921-.19047l7.27634.96904c1.91398.25491 3.96964-3.31071 4.58865-7.95899z"/>
   <path transform="translate(84.286 234.43)" d="m237.09375,237.78125c-1.40634.0547-3.01296.33814-4.6875.875-4.46544,1.43161-7.62073,4.0988-7.03125,5.9375l2.1875,6.875c-.15003.40938-.14698.79541-.0312,1.15625s.3573.66129.71875.90625l1.90625,5.96875c-.15003.40938-.17823.7954-.0625,1.15625s.357.69246.71875.9375l1.43745,4.40625c.12666.31664.36068.59166.6875.8125h7.84375c.19827-.057.39375-.0921.59375-.15625 2.94711-.94483 5.30252-2.44966 6.40625-3.875l2.90625,4.03125h13.75l2.09375-3.90625c.32959-.17175.59222-.39269.75-.6875s.2269-.62929.1875-1l1.375-2.59375 .4375,1.375c-.15003.40938-.14698.82665-.0312,1.1875s.357.66121.71875.90625l1.4062,4.40625c.0461.11515.11231.21059.1875.3125h17.9375l1.34375-.3125c.39494.1847.78678.27174 1.15625.1875s.69348-.31693.96875-.65625l4.53125-1.03125c1.80673-.54772 2.46086-4.54082 1.4375-9.03125s-3.3531-7.82045-5.21875-7.53125l-4.625,1.0625c-.34582-.13614-.70522-.19926-1.03125-.125s-.62101.25837-.875.53125l-3.0625.71875-.59375-1.875c.10582-.35618.10208-.71289 0-1.03125s-.30001-.58295-.59375-.8125l-2.25-7c-.58948-1.83871-4.69082-2.18162-9.15625-.75-.91427.29311-1.74836.65314-2.53125,1.03125-4.11301-2.18259-8.15624-2.60003-9.0625-.90625l-3.34375,6.25c-.0328-.29574-.12175-.58867-.28125-.8125-.22066-.30976-.54969-.50141-.96875-.625l-2.6875-3.8125c-1.20064-1.45697-5.15509-.4846-8.90625,2.1875-.34415.24515-.65227.49433-.96875.75l-1.21875-3.8125c-.36843-1.14919-2.12485-1.71616-4.46875-1.625z"/>
   <path d="m322.16926,385.55521c-4.20339-2.07872-8.30942-2.36121-9.16537-.63041l-3.20035,6.47141c-.3926.18965-.69061.45877-.85855.79847s-.1995.73337-.11033,1.16081l-2.77106,5.60337c-.3926.18965-.69061.45876-.85855.79847s-.20017.73413-.11085,1.16183l-2.0583,4.16209c-.71603,1.74688 1.97997,4.77053 6.10829,6.81214s8.16767,2.34881 9.12134.71946l2.11399-4.2747c.32392-.18222.56817-.42247.71644-.72218s.19489-.6477.14366-1.01695l2.88041-5.82448c.32383-.1822.56771-.42151.7159-.7212s.19489-.64769.14366-1.01694l3.25401-6.57993c.85595-1.73081-1.86086-4.82245-6.06425-6.90116z"/>
  </g>
  <g transform="translate(-114.15 172.52)">
   <path d="m290.50985,352.31379c-4.46544,1.43161-7.61114,4.08563-7.02166,5.92433l2.20407,6.87485c-.15003.40938-.17683.81002-.0611,1.17086s.36698.66556.72843.91052l1.90843,5.95269c-.15003.40938-.17683.81001-.0611,1.17086s.36703.66657.72878.91161l1.41755,4.42156c.7012,1.75289 4.74137,2.0488 9.12706.64275s7.50069-3.9959 7.05199-5.82973l-1.4559-4.54119c.10587-.35626.11414-.69877.0121-1.0172s-.31066-.60081-.60439-.83037l-1.98374-6.18758c.10582-.35618.11448-.69776.0124-1.01612s-.31065-.60081-.60439-.83036l-2.24102-6.99013c-.58949-1.83871-4.69196-2.16897-9.15739-.73735z"/>
   <path d="m334.21478,438.51507c.61903-4.64827-.4318-8.62759-2.34579-8.88249l-7.15633-.95305c-.30566-.31092-.65622-.50674-1.03185-.55673s-.7586.0465-1.13477.26823l-6.19643-.82521c-.30565-.31092-.6562-.50673-1.03184-.55672s-.75954.0462-1.13592.26807l-4.6026-.61295c-1.88429-.11719-3.8822,3.40684-4.49018,7.97211s.39803,8.48935 2.24731,8.86938l4.72713.62953c.27654.24829.58253.40245.91398.44663s.67597-.0234 1.00922-.19046l6.44094.85776c.27656.24816.58147.40232.91287.44643s.67597-.0234 1.00921-.19047l7.27634.96904c1.91398.25491 3.96964-3.31071 4.58865-7.95899z"/>
   <path transform="translate(84.286 234.43)" d="m237.09375,237.78125c-1.40634.0547-3.01296.33814-4.6875.875-4.46544,1.43161-7.62073,4.0988-7.03125,5.9375l2.1875,6.875c-.15003.40938-.14698.79541-.0312,1.15625s.3573.66129.71875.90625l1.90625,5.96875c-.15003.40938-.17823.7954-.0625,1.15625s.357.69246.71875.9375l1.43745,4.40625c.12666.31664.36068.59166.6875.8125h7.84375c.19827-.057.39375-.0921.59375-.15625 2.94711-.94483 5.30252-2.44966 6.40625-3.875l2.90625,4.03125h13.75l2.09375-3.90625c.32959-.17175.59222-.39269.75-.6875s.2269-.62929.1875-1l1.375-2.59375 .4375,1.375c-.15003.40938-.14698.82665-.0312,1.1875s.357.66121.71875.90625l1.4062,4.40625c.0461.11515.11231.21059.1875.3125h17.9375l1.34375-.3125c.39494.1847.78678.27174 1.15625.1875s.69348-.31693.96875-.65625l4.53125-1.03125c1.80673-.54772 2.46086-4.54082 1.4375-9.03125s-3.3531-7.82045-5.21875-7.53125l-4.625,1.0625c-.34582-.13614-.70522-.19926-1.03125-.125s-.62101.25837-.875.53125l-3.0625.71875-.59375-1.875c.10582-.35618.10208-.71289 0-1.03125s-.30001-.58295-.59375-.8125l-2.25-7c-.58948-1.83871-4.69082-2.18162-9.15625-.75-.91427.29311-1.74836.65314-2.53125,1.03125-4.11301-2.18259-8.15624-2.60003-9.0625-.90625l-3.34375,6.25c-.0328-.29574-.12175-.58867-.28125-.8125-.22066-.30976-.54969-.50141-.96875-.625l-2.6875-3.8125c-1.20064-1.45697-5.15509-.4846-8.90625,2.1875-.34415.24515-.65227.49433-.96875.75l-1.21875-3.8125c-.36843-1.14919-2.12485-1.71616-4.46875-1.625z"/>
   <path d="m322.16926,385.55521c-4.20339-2.07872-8.30942-2.36121-9.16537-.63041l-3.20035,6.47141c-.3926.18965-.69061.45877-.85855.79847s-.1995.73337-.11033,1.16081l-2.77106,5.60337c-.3926.18965-.69061.45876-.85855.79847s-.20017.73413-.11085,1.16183l-2.0583,4.16209c-.71603,1.74688 1.97997,4.77053 6.10829,6.81214s8.16767,2.34881 9.12134.71946l2.11399-4.2747c.32392-.18222.56817-.42247.71644-.72218s.19489-.6477.14366-1.01695l2.88041-5.82448c.32383-.1822.56771-.42151.7159-.7212s.19489-.64769.14366-1.01694l3.25401-6.57993c.85595-1.73081-1.86086-4.82245-6.06425-6.90116z"/>
   <g transform="matrix(.07716 .0388 -.0388 .07716 312.17 391.23)">
    <path d="m155.93 155.93v-155.93h-155.93v155.93h155.93z"/>
    <path d="m150.83 150.83v-145.73c-68.04 15.514-144.09 3.5277-145.73 0v145.73c40.811 13.662 84.348 22.529 145.73 0z" fill="#fff"/>
   </g>
   <g transform="translate(-.37881,.37881)">
    <path d="m310.94905,398.54251c-.0938.0561-.21015.0639-.28903.18747-.0478.0727-.0389.15395-.13337.26523-.11861.13973-.15707.072-.37221.19949-.0149.009-.0316.0989.02.14579 .12832.0631.19016.1214.32442.1664l.15095-.002c.10515.0186.39156.26181.39156.26181 .0401.0347.21142.21832.25032.26149l.26629.30246c.0888.10686.34426.41905.39407.47065 .10092.11281.21586.15427.36129.24993 .0988-.21911.13056-.15536.0559-.32145-.0624-.13598-.19243-.2691-.29698-.38672-.16903-.19447-.3016-.35294-.48876-.55331-.0134-.0156-.25053-.29167-.33597-.44201 0,0-.1386-.34191-.12961-.44576 .002-.0229-.0201-.13021-.0275-.15186-.0111-.0326.009-.21014-.14136-.20793zm8.1039,4.16154-.2059.0702c-.19788.0109-.3622.12164-.55435.14235-.45864.0495-.99061.051-1.15613.0207-.10028-.0163-.22389-.0951-.30586-.0813-.0266.005-.24359.41557-.27524.55944 .27405.005.50228.0365.77993.0348l.37546.0133 .37666.0109 .35994.0387c0,0 .45669.18449.68219.23336 .11731-.0456.15251-.12046.13826-.28089-.005-.0688-.0952-.15513-.0992-.22024-.0138-.25944.20112-.48566-.11576-.54122zm-3.77844.28863c-.0542.006-.12781.0153-.18096.0132-.0857.36386.006.40916.25021.0539l-.0692-.0671zm.72501.49501c-.0817.056-.15716.15432-.19191.18228-.0554.039-.27874.21788-.33158.25202l-.27675.14059c-.12165.0334-.34906.0553-.34906.0553-.0989.005-.20676.0351-.29115.0478-.0374.003-.28844.005-.34637.00098-.14249-.01-.44713-.0816-.44713-.0816-.23566-.0468-.84151-.41101-.9485-.53587-.0632-.0733-.18966-.30833-.24092-.39975-.033-.0674-.0607-.32612-.0825-.34891l-.0292-.22194c-.009-.0434-.019-.33419-.0186-.45733 .00099-.0387.006-.15327.0117-.2378 .002-.0109-.0425-.0481-.0414-.0565-.12469.31459-.14782.47773-.20267.76655 0,0-.11886.6634-.0507.94661 .0186.0723.0727.22524.0849.24929 .15404.30435.50321.73785 1.00767.91082 .0774.026.4559.13704.51512.15116 0,0 .26349.0514.38899.053 .0121-3e-005 .32692-.0286.44625-.0572 .0469-.0159.24804-.0824.29022-.10084 .2034-.0894.62364-.43605.63677-.45061l.12361-.11068c.0899-.0971.36847-.52261.37312-.54434 .006-.0241-.0334-.12769-.0299-.15309zm-2.77379-1.33159-.0982.12618c.11439.14046.0708.11902.25184.12394 .002-.0109-.006-.14122-.00087-.13887-.0667-.0539-.0957-.05-.15279-.11125zm1.49192.77018c-.0215.0254-.0747.0173-.0831.0282-.10436.1021-.0925.26739-.10873.36158 .0507.00094.13035-.002.16784.0134 .0791-.0874.10413-.13826.19273-.25108-.0147-.0313-.0389-.0433-.0283-.0831-.0411-.0203-.10763-.038-.14047-.0691zm-1.05897-.45192c-.0252.0328-.0518.0197-.0831.0284-.0244.13523-.13785.32915.0989.36141 .0145.001.0516-.0377.0831-.0283 .0285-.0762.0687-.20685.0818-.23952-.0546-.0358-.11271-.0644-.18063-.12196zm.69739.34317c-.0448-.019-.23084-.0504-.27925-.0682l-.0417.0848c0,0-.11277.10694-.12194.18064-.004.0133.0353.0504.0283.083 .21185.0952.43938.18906.48433-.1407 .006-.0423-.0658-.0985-.0697-.13956zm.49133.76204c-.18413.0869-.14451.0492-.23486.26344 .0328.0312.0848.0478.0971.0839 .0591-.0101.0855-.0271.15314-.03 .0269-.12808.052-.1729.067-.27681-.007-.004-.0823-.0344-.0823-.0405zm-1.83954-.76665-.0953.19373-.0417.0848 .15117.0412c.0393-.0799.0833-.17551.12388-.25187-.0291-.0142-.12097-.0414-.13802-.0679zm1.33837.72767c-.0288.0219-.10845.0248-.12523.0406-.0492.0511-.0547.13558-.0965.19623 .0402.0589.047-.004.0283.0831 .0242.012.098.0332.11383.056 .0458-.0135.0697-.0438.12282-.0418 .0285-.0762.0675-.20444.0842-.23831-.0412-.0323-.0932-.0489-.12734-.0958zm-.90667-.41303c-.23814.12945-.22966.13062-.23274.40584 .0773.008.13887.0112.19451.0265l.15129-.3075c-.0389-.0493-.0862-.0694-.11306-.12481zm.43371.24952c-.0288.0219-.0989.0115-.12526.0405-.2278.24292-.0658.2745.0845.39062 .0802-.12006.1206-.20847.16565-.33662-.0364-.03-.0981-.0513-.12494-.0945zm1.77392,1.25469c-.14173.11075-.27523.18649-.41538.34908 .17191.26809.34101.48063.57436.7338l.084.1105 .29458.38556c.0146.0192.19404.33307.25409.47395 0,0 .0514.30504.12675.37211 .0582.0527.15491.0703.22279.10962 .0396-.0316.12504-.0587.15267-.0964 .17103-.23763.019-.22223.29081-.37721 .60607-.3515-.0895-.411-.43637-.66586-.0728-.0539-.13497-.15971-.19705-.2354-.32115-.38654-.57243-.80494-.95127-1.15979zm-4.0183-1.90775c-.0605-.0299-.27632.0114-.34638.00097-.13414-.0209-.35391-.0388-.36235-.0399-.19688-.0156-.51666-.008-.6678-.0488-.23338-.0697-.45088-.29403-.64171-.31575 0,0-.0644-.0302-.1253.0407-.024.0979-.0387.17038-.0249.26445 .009.0615.0661.14082.0714.2096 .005.17978-.0784.20198.0301.36063l.0414.0565c.0363.0119.0269.0614.0983.0814 .0798.0212.16589-.10488.22024-.0992 0,0 .0986-.0597.13956-.0697l.16619-.0566c.0265-.005.33407-.0371.43068-.0317 .12075.005.34892.0122.37547.0133 .10255-.007.31397.0221.33446.0232 .14373.0135.21366.006.34642-.001 .0152-.0737.0572-.11625.0408-.22356-.0101-.0651-.037-.1265-.12661-.1645zm6.93468,1.0862-2.18178-.17882-.1005.13332c-.0923.096-.11651.27955-.19181.38988-.0419.0606-.1186.13108-.19269.25111 .0256.0396.0883.21181.0979.22257 .0512.0734.33213.41314.4064.51285 .078.10446.29716.40483.33596.44204 .028.0227.20193.23166.22371.24832 .0788.0599.2202.0783.26616.0949 .21053.0856.3476.18611.47386.30239 0,0 .0452.0733.0562.0998s.11475.203-.14995.51272c-.035.0409-.18551.0652-.22023.0992-.0948.0887-.0977.20463-.19467.32232-.0456.0558-.15016.1156-.22104.16792 0,0-.0854.0452-.12284.0419l-.14116-.00033c-.12808-.0148-.24068-.0733-.33425-.16441l-.0839-.11047c-.0146-.0132-.005-.0929-.0152-.10972-.0734-.14443-.0997-.29878-.17053-.4298-.0489-.0963-.16726-.28983-.16726-.28983-.0914-.13821-.30322-.42296-.30811-.43131-.0718-.0925-.22129-.24121-.22374-.24844-.0854-.13823-.29697-.38676-.29697-.38676l-.2077-.20749c-.16509.0482-.34204.11442-.51456.12887-.12067.007-.37771.0157-.3898.0158-.0821-.004-.3648-.0472-.38898-.053-.0931-.0248-.41727-.13608-.41727-.13608-.41602-.12656-.82852-.45581-1.03416-.7164-.0158-.0229-.1134-.17912-.15369-.25004-.0854-.13833-.13005-.51819-.33928-.58204l-.0541.0426c-.14369-.0136-.24745-.004-.37663-.0109-.29341-.0211-.61849-.0817-.88852-.0221-.0253.003-.21159.12443-.23693.12706 0,0-.0733.0451-.0962.0549l-.19532.0423c-.13861.025-.54334-.0327-.66742-.19005-.0244-.03-.12055-.15855-.14138-.20789 0,0-.0448-.21461-.0427-.26168 .005-.1086.045-.13428.0407-.2235-.007-.12668-.0796-.18058-.0996-.29273-.0313-.17475.082-.39273.17858-.57082 0,0 .0949-.0706.15023-.0975 .0518-.0257.23621-.0583.23621-.0583l.13882-.00085c.27912.0562.44728.3013.68311.37224 .0641.0165.41063.0456.53022.0533l.42991.0371 .43232.0383c.0133-.002.0889-.0766.11055-.084 .007-.0326-.0294-.0686-.0283-.0831 .0332-.26932.278-.49782.26004-.66916l-.08-.14423-1.22364-1.36333-.55604-.13524c-.22619-.0722-.50521-.29366-.51816-.42635-.006-.0724-.0224-.29679.10949-.4304 .0228-.0279.14935-.0529.18052-.0857 .006-.0121.11671-.0538.13712-.0709 .0432-.0329.37804-.71336.63581-.79709l.19284-.0435c.18704-.001.41037.18688.51602.29l.0583.23619c0,0 .13423.60748.14401.62429 .11724.21411.32834.38414.51779.56758 .0497-.15602.0561-.29124.094-.40493l.32667-.72084c-.0941-1.06234.0825-2.27855.96277-2.97173s1.18008-.90491 2.44468-.77647 1.34153.2638 2.26718.82597 1.55997,1.84784 1.57781,2.48516 .025,1.72842-.73955,2.4798-.75361.20103-.96701.62539l-.30668.75804c-.0944.13702-.22012.3068-.32972.52956 .6114.13173.98007-.0111 1.01502-.021s.17784-.038.2059-.0702c.038-.0436.54068-.28625.82302.16131 0,0 .10637.21176.0858.38808-.007.0507-.0531.18745-.0539.2502-.001.0266.0671.11421.0697.13956l.0152.10974c-.0148.13408-.00047.30657-.12137.46067-.0371.0449-.25972.14892-.32008.15534l-.62524-.31122z"/>
    <path d="m318.28945,400.52673c.2943-.59811.69466-.8433.74198-1.36742 0,0 .0145-.19442-.0149-.251-.0892-.16719-.35393-.23426-.45947-.12378-.0899.0911-.0786.35538-.0939.40495-.20525.55174-.43047.62437-.57753,1.03328-.0108.0218-.053.38899-.053.38899-.0106.052-.0261.24882-.0273.26328-.0135.14374-.0673.41808-.0673.41808-.0874.30593-.44597.8574-.61894.97683-.0229.0158-.17662.13265-.24885.1573l-.1662.0566c-.0977.0151-.42967.005-.51432-.0124-.0326-.007-.40473.11969-.55667.14118-.0917.0151-.29077.0163-.31857.0177-.1134.004-.3985-.0336-.43232-.0383-.34316-.0605-1.01985-.36641-1.22611-.53404l-.21016-.20863-.002-.07c-.0182-.0181-.0549-.0963-.0549-.0963-.12308-.1778-.1219-.37576-.2255-.52595 0,0-.094-.16355-.18274-.26437-.14709-.16564-.31573-.48319-.35083-.693-.13647-.76193.44564-1.46207.86152-2.10567 .20557-.31997.33553-.75533.43758-1.02998 .0605-.16574.18594-.36571.22041-.44797-.17643-.22217-.24542-.24709-.48806-.0657 .0195.0337-.007.0507-.0126.0991 .009-.0254-.0601.0427-.0696.068-.0663.19595-.18808.59626-.28744.72486l-.16618.0566c.0855-.77873.65748-1.77194 1.45948-2.02114s1.68104-.41132 2.73223.14148 1.89848,1.60723 2.04164,2.33174 .0644,1.3616-.25554,1.94986-.43573.53006-.73555.74179l-.0787-.11597z" fill="#fff"/>
    <path d="m316.68523,399.56299c-.0544-.006-.22197.0231-.27764.002-.005-.002-.2147.0207-.22432.028-.0264.0171-.30598.27958-.35634.51646-.0212.0858.0753.45216.0723.55597-.005.21726-.11622.50528.0176.66734 .0974.12009.37445.22932.53036.26094 .40735.0831.99739-.31538 1.09272-.8821 0,0 .004-.16055.0117-.23784 0,0-.0116-.11701-.0144-.17855-.003-.0676-.0706-.27834-.0706-.27834-.0391-.0734-.16912-.20655-.16801-.22104l-.18185-.12553c-.0714-.0261-.33741-.10285-.43156-.1071z"/>
    <path d="m314.02011,398.42622c-.29381.0453-.41757.19463-.48343.27951-.17116.21955-.32403.47521-.3848.78218 0,0-.0148.14011-.0122.16544 0,0 .0354.246.0439.26528 .0232.0505.3286.42636.58616.49594 .0472.0141.33185-.0142.3607-.0301 .0734-.0391.21257-.16309.22341-.1668 .0601-.0366.30897-.26552.3177-.27387 .22987-.21991.33132-.26235.35339-.41438l-.0928-.58438c-.1224-.30926-.49632-.43458-.61852-.47964-.0532-.0202-.25639-.0449-.29354-.0392z"/>
    <path d="m314.30936,401.92827c.0593.0201.23671.0202.29111.038 .075.0249.21348.15913.37637.15207 .0314-.003.16488-.0723.18049-.0857 .30106-.29399.20771-1.11296.1017-1.26436 0,0-.053-.18116-.20938-.27748-.4527-.27887-1.66343,1.09456-.74029,1.43747z"/>
   </g>
   <g transform="matrix(.08239 -.02589 .02589 .08239 287.27 364.23)">
    <path d="m155.93 155.93v-155.93h-155.93v155.93h155.93z"/>
    <path d="m150.83 150.83v-145.73c-68.04 15.514-144.09 3.5277-145.73 0v145.73c40.811 13.662 84.348 22.529 145.73 0z" fill="#fff"/>
   </g>
   <g transform="matrix(.71765 -.6964 .6964 .71765 -209.22 301.39)">
    <path d="m310.94905,398.54251c-.0938.0561-.21015.0639-.28903.18747-.0478.0727-.0389.15395-.13337.26523-.11861.13973-.15707.072-.37221.19949-.0149.009-.0316.0989.02.14579 .12832.0631.19016.1214.32442.1664l.15095-.002c.10515.0186.39156.26181.39156.26181 .0401.0347.21142.21832.25032.26149l.26629.30246c.0888.10686.34426.41905.39407.47065 .10092.11281.21586.15427.36129.24993 .0988-.21911.13056-.15536.0559-.32145-.0624-.13598-.19243-.2691-.29698-.38672-.16903-.19447-.3016-.35294-.48876-.55331-.0134-.0156-.25053-.29167-.33597-.44201 0,0-.1386-.34191-.12961-.44576 .002-.0229-.0201-.13021-.0275-.15186-.0111-.0326.009-.21014-.14136-.20793zm8.1039,4.16154-.2059.0702c-.19788.0109-.3622.12164-.55435.14235-.45864.0495-.99061.051-1.15613.0207-.10028-.0163-.22389-.0951-.30586-.0813-.0266.005-.24359.41557-.27524.55944 .27405.005.50228.0365.77993.0348l.37546.0133 .37666.0109 .35994.0387c0,0 .45669.18449.68219.23336 .11731-.0456.15251-.12046.13826-.28089-.005-.0688-.0952-.15513-.0992-.22024-.0138-.25944.20112-.48566-.11576-.54122zm-3.77844.28863c-.0542.006-.12781.0153-.18096.0132-.0857.36386.006.40916.25021.0539l-.0692-.0671zm.72501.49501c-.0817.056-.15716.15432-.19191.18228-.0554.039-.27874.21788-.33158.25202l-.27675.14059c-.12165.0334-.34906.0553-.34906.0553-.0989.005-.20676.0351-.29115.0478-.0374.003-.28844.005-.34637.00098-.14249-.01-.44713-.0816-.44713-.0816-.23566-.0468-.84151-.41101-.9485-.53587-.0632-.0733-.18966-.30833-.24092-.39975-.033-.0674-.0607-.32612-.0825-.34891l-.0292-.22194c-.009-.0434-.019-.33419-.0186-.45733 .00099-.0387.006-.15327.0117-.2378 .002-.0109-.0425-.0481-.0414-.0565-.12469.31459-.14782.47773-.20267.76655 0,0-.11886.6634-.0507.94661 .0186.0723.0727.22524.0849.24929 .15404.30435.50321.73785 1.00767.91082 .0774.026.4559.13704.51512.15116 0,0 .26349.0514.38899.053 .0121-3e-005 .32692-.0286.44625-.0572 .0469-.0159.24804-.0824.29022-.10084 .2034-.0894.62364-.43605.63677-.45061l.12361-.11068c.0899-.0971.36847-.52261.37312-.54434 .006-.0241-.0334-.12769-.0299-.15309zm-2.77379-1.33159-.0982.12618c.11439.14046.0708.11902.25184.12394 .002-.0109-.006-.14122-.00087-.13887-.0667-.0539-.0957-.05-.15279-.11125zm1.49192.77018c-.0215.0254-.0747.0173-.0831.0282-.10436.1021-.0925.26739-.10873.36158 .0507.00094.13035-.002.16784.0134 .0791-.0874.10413-.13826.19273-.25108-.0147-.0313-.0389-.0433-.0283-.0831-.0411-.0203-.10763-.038-.14047-.0691zm-1.05897-.45192c-.0252.0328-.0518.0197-.0831.0284-.0244.13523-.13785.32915.0989.36141 .0145.001.0516-.0377.0831-.0283 .0285-.0762.0687-.20685.0818-.23952-.0546-.0358-.11271-.0644-.18063-.12196zm.69739.34317c-.0448-.019-.23084-.0504-.27925-.0682l-.0417.0848c0,0-.11277.10694-.12194.18064-.004.0133.0353.0504.0283.083 .21185.0952.43938.18906.48433-.1407 .006-.0423-.0658-.0985-.0697-.13956zm.49133.76204c-.18413.0869-.14451.0492-.23486.26344 .0328.0312.0848.0478.0971.0839 .0591-.0101.0855-.0271.15314-.03 .0269-.12808.052-.1729.067-.27681-.007-.004-.0823-.0344-.0823-.0405zm-1.83954-.76665-.0953.19373-.0417.0848 .15117.0412c.0393-.0799.0833-.17551.12388-.25187-.0291-.0142-.12097-.0414-.13802-.0679zm1.33837.72767c-.0288.0219-.10845.0248-.12523.0406-.0492.0511-.0547.13558-.0965.19623 .0402.0589.047-.004.0283.0831 .0242.012.098.0332.11383.056 .0458-.0135.0697-.0438.12282-.0418 .0285-.0762.0675-.20444.0842-.23831-.0412-.0323-.0932-.0489-.12734-.0958zm-.90667-.41303c-.23814.12945-.22966.13062-.23274.40584 .0773.008.13887.0112.19451.0265l.15129-.3075c-.0389-.0493-.0862-.0694-.11306-.12481zm.43371.24952c-.0288.0219-.0989.0115-.12526.0405-.2278.24292-.0658.2745.0845.39062 .0802-.12006.1206-.20847.16565-.33662-.0364-.03-.0981-.0513-.12494-.0945zm1.77392,1.25469c-.14173.11075-.27523.18649-.41538.34908 .17191.26809.34101.48063.57436.7338l.084.1105 .29458.38556c.0146.0192.19404.33307.25409.47395 0,0 .0514.30504.12675.37211 .0582.0527.15491.0703.22279.10962 .0396-.0316.12504-.0587.15267-.0964 .17103-.23763.019-.22223.29081-.37721 .60607-.3515-.0895-.411-.43637-.66586-.0728-.0539-.13497-.15971-.19705-.2354-.32115-.38654-.57243-.80494-.95127-1.15979zm-4.0183-1.90775c-.0605-.0299-.27632.0114-.34638.00097-.13414-.0209-.35391-.0388-.36235-.0399-.19688-.0156-.51666-.008-.6678-.0488-.23338-.0697-.45088-.29403-.64171-.31575 0,0-.0644-.0302-.1253.0407-.024.0979-.0387.17038-.0249.26445 .009.0615.0661.14082.0714.2096 .005.17978-.0784.20198.0301.36063l.0414.0565c.0363.0119.0269.0614.0983.0814 .0798.0212.16589-.10488.22024-.0992 0,0 .0986-.0597.13956-.0697l.16619-.0566c.0265-.005.33407-.0371.43068-.0317 .12075.005.34892.0122.37547.0133 .10255-.007.31397.0221.33446.0232 .14373.0135.21366.006.34642-.001 .0152-.0737.0572-.11625.0408-.22356-.0101-.0651-.037-.1265-.12661-.1645zm6.93468,1.0862-2.18178-.17882-.1005.13332c-.0923.096-.11651.27955-.19181.38988-.0419.0606-.1186.13108-.19269.25111 .0256.0396.0883.21181.0979.22257 .0512.0734.33213.41314.4064.51285 .078.10446.29716.40483.33596.44204 .028.0227.20193.23166.22371.24832 .0788.0599.2202.0783.26616.0949 .21053.0856.3476.18611.47386.30239 0,0 .0452.0733.0562.0998s.11475.203-.14995.51272c-.035.0409-.18551.0652-.22023.0992-.0948.0887-.0977.20463-.19467.32232-.0456.0558-.15016.1156-.22104.16792 0,0-.0854.0452-.12284.0419l-.14116-.00033c-.12808-.0148-.24068-.0733-.33425-.16441l-.0839-.11047c-.0146-.0132-.005-.0929-.0152-.10972-.0734-.14443-.0997-.29878-.17053-.4298-.0489-.0963-.16726-.28983-.16726-.28983-.0914-.13821-.30322-.42296-.30811-.43131-.0718-.0925-.22129-.24121-.22374-.24844-.0854-.13823-.29697-.38676-.29697-.38676l-.2077-.20749c-.16509.0482-.34204.11442-.51456.12887-.12067.007-.37771.0157-.3898.0158-.0821-.004-.3648-.0472-.38898-.053-.0931-.0248-.41727-.13608-.41727-.13608-.41602-.12656-.82852-.45581-1.03416-.7164-.0158-.0229-.1134-.17912-.15369-.25004-.0854-.13833-.13005-.51819-.33928-.58204l-.0541.0426c-.14369-.0136-.24745-.004-.37663-.0109-.29341-.0211-.61849-.0817-.88852-.0221-.0253.003-.21159.12443-.23693.12706 0,0-.0733.0451-.0962.0549l-.19532.0423c-.13861.025-.54334-.0327-.66742-.19005-.0244-.03-.12055-.15855-.14138-.20789 0,0-.0448-.21461-.0427-.26168 .005-.1086.045-.13428.0407-.2235-.007-.12668-.0796-.18058-.0996-.29273-.0313-.17475.082-.39273.17858-.57082 0,0 .0949-.0706.15023-.0975 .0518-.0257.23621-.0583.23621-.0583l.13882-.00085c.27912.0562.44728.3013.68311.37224 .0641.0165.41063.0456.53022.0533l.42991.0371 .43232.0383c.0133-.002.0889-.0766.11055-.084 .007-.0326-.0294-.0686-.0283-.0831 .0332-.26932.278-.49782.26004-.66916l-.08-.14423-1.22364-1.36333-.55604-.13524c-.22619-.0722-.50521-.29366-.51816-.42635-.006-.0724-.0224-.29679.10949-.4304 .0228-.0279.14935-.0529.18052-.0857 .006-.0121.11671-.0538.13712-.0709 .0432-.0329.37804-.71336.63581-.79709l.19284-.0435c.18704-.001.41037.18688.51602.29l.0583.23619c0,0 .13423.60748.14401.62429 .11724.21411.32834.38414.51779.56758 .0497-.15602.0561-.29124.094-.40493l.32667-.72084c-.0941-1.06234.0825-2.27855.96277-2.97173s1.18008-.90491 2.44468-.77647 1.34153.2638 2.26718.82597 1.55997,1.84784 1.57781,2.48516 .025,1.72842-.73955,2.4798-.75361.20103-.96701.62539l-.30668.75804c-.0944.13702-.22012.3068-.32972.52956 .6114.13173.98007-.0111 1.01502-.021s.17784-.038.2059-.0702c.038-.0436.54068-.28625.82302.16131 0,0 .10637.21176.0858.38808-.007.0507-.0531.18745-.0539.2502-.001.0266.0671.11421.0697.13956l.0152.10974c-.0148.13408-.00047.30657-.12137.46067-.0371.0449-.25972.14892-.32008.15534l-.62524-.31122z"/>
    <path d="m318.28945,400.52673c.2943-.59811.69466-.8433.74198-1.36742 0,0 .0145-.19442-.0149-.251-.0892-.16719-.35393-.23426-.45947-.12378-.0899.0911-.0786.35538-.0939.40495-.20525.55174-.43047.62437-.57753,1.03328-.0108.0218-.053.38899-.053.38899-.0106.052-.0261.24882-.0273.26328-.0135.14374-.0673.41808-.0673.41808-.0874.30593-.44597.8574-.61894.97683-.0229.0158-.17662.13265-.24885.1573l-.1662.0566c-.0977.0151-.42967.005-.51432-.0124-.0326-.007-.40473.11969-.55667.14118-.0917.0151-.29077.0163-.31857.0177-.1134.004-.3985-.0336-.43232-.0383-.34316-.0605-1.01985-.36641-1.22611-.53404l-.21016-.20863-.002-.07c-.0182-.0181-.0549-.0963-.0549-.0963-.12308-.1778-.1219-.37576-.2255-.52595 0,0-.094-.16355-.18274-.26437-.14709-.16564-.31573-.48319-.35083-.693-.13647-.76193.44564-1.46207.86152-2.10567 .20557-.31997.33553-.75533.43758-1.02998 .0605-.16574.18594-.36571.22041-.44797-.17643-.22217-.24542-.24709-.48806-.0657 .0195.0337-.007.0507-.0126.0991 .009-.0254-.0601.0427-.0696.068-.0663.19595-.18808.59626-.28744.72486l-.16618.0566c.0855-.77873.65748-1.77194 1.45948-2.02114s1.68104-.41132 2.73223.14148 1.89848,1.60723 2.04164,2.33174 .0644,1.3616-.25554,1.94986-.43573.53006-.73555.74179l-.0787-.11597z" fill="#fff"/>
    <path d="m316.68523,399.56299c-.0544-.006-.22197.0231-.27764.002-.005-.002-.2147.0207-.22432.028-.0264.0171-.30598.27958-.35634.51646-.0212.0858.0753.45216.0723.55597-.005.21726-.11622.50528.0176.66734 .0974.12009.37445.22932.53036.26094 .40735.0831.99739-.31538 1.09272-.8821 0,0 .004-.16055.0117-.23784 0,0-.0116-.11701-.0144-.17855-.003-.0676-.0706-.27834-.0706-.27834-.0391-.0734-.16912-.20655-.16801-.22104l-.18185-.12553c-.0714-.0261-.33741-.10285-.43156-.1071z"/>
    <path d="m314.02011,398.42622c-.29381.0453-.41757.19463-.48343.27951-.17116.21955-.32403.47521-.3848.78218 0,0-.0148.14011-.0122.16544 0,0 .0354.246.0439.26528 .0232.0505.3286.42636.58616.49594 .0472.0141.33185-.0142.3607-.0301 .0734-.0391.21257-.16309.22341-.1668 .0601-.0366.30897-.26552.3177-.27387 .22987-.21991.33132-.26235.35339-.41438l-.0928-.58438c-.1224-.30926-.49632-.43458-.61852-.47964-.0532-.0202-.25639-.0449-.29354-.0392z"/>
    <path d="m314.30936,401.92827c.0593.0201.23671.0202.29111.038 .075.0249.21348.15913.37637.15207 .0314-.003.16488-.0723.18049-.0857 .30106-.29399.20771-1.11296.1017-1.26436 0,0-.053-.18116-.20938-.27748-.4527-.27887-1.66343,1.09456-.74029,1.43747z"/>
   </g>
   <g transform="matrix(.01028 -.08575 .08575 .01028 313.76 442.11)">
    <path d="m155.93 155.93v-155.93h-155.93v155.93h155.93z"/>
    <path d="m150.83 150.83v-145.73c-68.04 15.514-144.09 3.5277-145.73 0v145.73c40.811 13.662 84.348 22.529 145.73 0z" fill="#fff"/>
   </g>
   <g transform="matrix(-.33975 -.94052 .94052 -.33975 52.346 868.86)">
    <path d="m310.94905,398.54251c-.0938.0561-.21015.0639-.28903.18747-.0478.0727-.0389.15395-.13337.26523-.11861.13973-.15707.072-.37221.19949-.0149.009-.0316.0989.02.14579 .12832.0631.19016.1214.32442.1664l.15095-.002c.10515.0186.39156.26181.39156.26181 .0401.0347.21142.21832.25032.26149l.26629.30246c.0888.10686.34426.41905.39407.47065 .10092.11281.21586.15427.36129.24993 .0988-.21911.13056-.15536.0559-.32145-.0624-.13598-.19243-.2691-.29698-.38672-.16903-.19447-.3016-.35294-.48876-.55331-.0134-.0156-.25053-.29167-.33597-.44201 0,0-.1386-.34191-.12961-.44576 .002-.0229-.0201-.13021-.0275-.15186-.0111-.0326.009-.21014-.14136-.20793zm8.1039,4.16154-.2059.0702c-.19788.0109-.3622.12164-.55435.14235-.45864.0495-.99061.051-1.15613.0207-.10028-.0163-.22389-.0951-.30586-.0813-.0266.005-.24359.41557-.27524.55944 .27405.005.50228.0365.77993.0348l.37546.0133 .37666.0109 .35994.0387c0,0 .45669.18449.68219.23336 .11731-.0456.15251-.12046.13826-.28089-.005-.0688-.0952-.15513-.0992-.22024-.0138-.25944.20112-.48566-.11576-.54122zm-3.77844.28863c-.0542.006-.12781.0153-.18096.0132-.0857.36386.006.40916.25021.0539l-.0692-.0671zm.72501.49501c-.0817.056-.15716.15432-.19191.18228-.0554.039-.27874.21788-.33158.25202l-.27675.14059c-.12165.0334-.34906.0553-.34906.0553-.0989.005-.20676.0351-.29115.0478-.0374.003-.28844.005-.34637.00098-.14249-.01-.44713-.0816-.44713-.0816-.23566-.0468-.84151-.41101-.9485-.53587-.0632-.0733-.18966-.30833-.24092-.39975-.033-.0674-.0607-.32612-.0825-.34891l-.0292-.22194c-.009-.0434-.019-.33419-.0186-.45733 .00099-.0387.006-.15327.0117-.2378 .002-.0109-.0425-.0481-.0414-.0565-.12469.31459-.14782.47773-.20267.76655 0,0-.11886.6634-.0507.94661 .0186.0723.0727.22524.0849.24929 .15404.30435.50321.73785 1.00767.91082 .0774.026.4559.13704.51512.15116 0,0 .26349.0514.38899.053 .0121-3e-005 .32692-.0286.44625-.0572 .0469-.0159.24804-.0824.29022-.10084 .2034-.0894.62364-.43605.63677-.45061l.12361-.11068c.0899-.0971.36847-.52261.37312-.54434 .006-.0241-.0334-.12769-.0299-.15309zm-2.77379-1.33159-.0982.12618c.11439.14046.0708.11902.25184.12394 .002-.0109-.006-.14122-.00087-.13887-.0667-.0539-.0957-.05-.15279-.11125zm1.49192.77018c-.0215.0254-.0747.0173-.0831.0282-.10436.1021-.0925.26739-.10873.36158 .0507.00094.13035-.002.16784.0134 .0791-.0874.10413-.13826.19273-.25108-.0147-.0313-.0389-.0433-.0283-.0831-.0411-.0203-.10763-.038-.14047-.0691zm-1.05897-.45192c-.0252.0328-.0518.0197-.0831.0284-.0244.13523-.13785.32915.0989.36141 .0145.001.0516-.0377.0831-.0283 .0285-.0762.0687-.20685.0818-.23952-.0546-.0358-.11271-.0644-.18063-.12196zm.69739.34317c-.0448-.019-.23084-.0504-.27925-.0682l-.0417.0848c0,0-.11277.10694-.12194.18064-.004.0133.0353.0504.0283.083 .21185.0952.43938.18906.48433-.1407 .006-.0423-.0658-.0985-.0697-.13956zm.49133.76204c-.18413.0869-.14451.0492-.23486.26344 .0328.0312.0848.0478.0971.0839 .0591-.0101.0855-.0271.15314-.03 .0269-.12808.052-.1729.067-.27681-.007-.004-.0823-.0344-.0823-.0405zm-1.83954-.76665-.0953.19373-.0417.0848 .15117.0412c.0393-.0799.0833-.17551.12388-.25187-.0291-.0142-.12097-.0414-.13802-.0679zm1.33837.72767c-.0288.0219-.10845.0248-.12523.0406-.0492.0511-.0547.13558-.0965.19623 .0402.0589.047-.004.0283.0831 .0242.012.098.0332.11383.056 .0458-.0135.0697-.0438.12282-.0418 .0285-.0762.0675-.20444.0842-.23831-.0412-.0323-.0932-.0489-.12734-.0958zm-.90667-.41303c-.23814.12945-.22966.13062-.23274.40584 .0773.008.13887.0112.19451.0265l.15129-.3075c-.0389-.0493-.0862-.0694-.11306-.12481zm.43371.24952c-.0288.0219-.0989.0115-.12526.0405-.2278.24292-.0658.2745.0845.39062 .0802-.12006.1206-.20847.16565-.33662-.0364-.03-.0981-.0513-.12494-.0945zm1.77392,1.25469c-.14173.11075-.27523.18649-.41538.34908 .17191.26809.34101.48063.57436.7338l.084.1105 .29458.38556c.0146.0192.19404.33307.25409.47395 0,0 .0514.30504.12675.37211 .0582.0527.15491.0703.22279.10962 .0396-.0316.12504-.0587.15267-.0964 .17103-.23763.019-.22223.29081-.37721 .60607-.3515-.0895-.411-.43637-.66586-.0728-.0539-.13497-.15971-.19705-.2354-.32115-.38654-.57243-.80494-.95127-1.15979zm-4.0183-1.90775c-.0605-.0299-.27632.0114-.34638.00097-.13414-.0209-.35391-.0388-.36235-.0399-.19688-.0156-.51666-.008-.6678-.0488-.23338-.0697-.45088-.29403-.64171-.31575 0,0-.0644-.0302-.1253.0407-.024.0979-.0387.17038-.0249.26445 .009.0615.0661.14082.0714.2096 .005.17978-.0784.20198.0301.36063l.0414.0565c.0363.0119.0269.0614.0983.0814 .0798.0212.16589-.10488.22024-.0992 0,0 .0986-.0597.13956-.0697l.16619-.0566c.0265-.005.33407-.0371.43068-.0317 .12075.005.34892.0122.37547.0133 .10255-.007.31397.0221.33446.0232 .14373.0135.21366.006.34642-.001 .0152-.0737.0572-.11625.0408-.22356-.0101-.0651-.037-.1265-.12661-.1645zm6.93468,1.0862-2.18178-.17882-.1005.13332c-.0923.096-.11651.27955-.19181.38988-.0419.0606-.1186.13108-.19269.25111 .0256.0396.0883.21181.0979.22257 .0512.0734.33213.41314.4064.51285 .078.10446.29716.40483.33596.44204 .028.0227.20193.23166.22371.24832 .0788.0599.2202.0783.26616.0949 .21053.0856.3476.18611.47386.30239 0,0 .0452.0733.0562.0998s.11475.203-.14995.51272c-.035.0409-.18551.0652-.22023.0992-.0948.0887-.0977.20463-.19467.32232-.0456.0558-.15016.1156-.22104.16792 0,0-.0854.0452-.12284.0419l-.14116-.00033c-.12808-.0148-.24068-.0733-.33425-.16441l-.0839-.11047c-.0146-.0132-.005-.0929-.0152-.10972-.0734-.14443-.0997-.29878-.17053-.4298-.0489-.0963-.16726-.28983-.16726-.28983-.0914-.13821-.30322-.42296-.30811-.43131-.0718-.0925-.22129-.24121-.22374-.24844-.0854-.13823-.29697-.38676-.29697-.38676l-.2077-.20749c-.16509.0482-.34204.11442-.51456.12887-.12067.007-.37771.0157-.3898.0158-.0821-.004-.3648-.0472-.38898-.053-.0931-.0248-.41727-.13608-.41727-.13608-.41602-.12656-.82852-.45581-1.03416-.7164-.0158-.0229-.1134-.17912-.15369-.25004-.0854-.13833-.13005-.51819-.33928-.58204l-.0541.0426c-.14369-.0136-.24745-.004-.37663-.0109-.29341-.0211-.61849-.0817-.88852-.0221-.0253.003-.21159.12443-.23693.12706 0,0-.0733.0451-.0962.0549l-.19532.0423c-.13861.025-.54334-.0327-.66742-.19005-.0244-.03-.12055-.15855-.14138-.20789 0,0-.0448-.21461-.0427-.26168 .005-.1086.045-.13428.0407-.2235-.007-.12668-.0796-.18058-.0996-.29273-.0313-.17475.082-.39273.17858-.57082 0,0 .0949-.0706.15023-.0975 .0518-.0257.23621-.0583.23621-.0583l.13882-.00085c.27912.0562.44728.3013.68311.37224 .0641.0165.41063.0456.53022.0533l.42991.0371 .43232.0383c.0133-.002.0889-.0766.11055-.084 .007-.0326-.0294-.0686-.0283-.0831 .0332-.26932.278-.49782.26004-.66916l-.08-.14423-1.22364-1.36333-.55604-.13524c-.22619-.0722-.50521-.29366-.51816-.42635-.006-.0724-.0224-.29679.10949-.4304 .0228-.0279.14935-.0529.18052-.0857 .006-.0121.11671-.0538.13712-.0709 .0432-.0329.37804-.71336.63581-.79709l.19284-.0435c.18704-.001.41037.18688.51602.29l.0583.23619c0,0 .13423.60748.14401.62429 .11724.21411.32834.38414.51779.56758 .0497-.15602.0561-.29124.094-.40493l.32667-.72084c-.0941-1.06234.0825-2.27855.96277-2.97173s1.18008-.90491 2.44468-.77647 1.34153.2638 2.26718.82597 1.55997,1.84784 1.57781,2.48516 .025,1.72842-.73955,2.4798-.75361.20103-.96701.62539l-.30668.75804c-.0944.13702-.22012.3068-.32972.52956 .6114.13173.98007-.0111 1.01502-.021s.17784-.038.2059-.0702c.038-.0436.54068-.28625.82302.16131 0,0 .10637.21176.0858.38808-.007.0507-.0531.18745-.0539.2502-.001.0266.0671.11421.0697.13956l.0152.10974c-.0148.13408-.00047.30657-.12137.46067-.0371.0449-.25972.14892-.32008.15534l-.62524-.31122z"/>
    <path d="m318.28945,400.52673c.2943-.59811.69466-.8433.74198-1.36742 0,0 .0145-.19442-.0149-.251-.0892-.16719-.35393-.23426-.45947-.12378-.0899.0911-.0786.35538-.0939.40495-.20525.55174-.43047.62437-.57753,1.03328-.0108.0218-.053.38899-.053.38899-.0106.052-.0261.24882-.0273.26328-.0135.14374-.0673.41808-.0673.41808-.0874.30593-.44597.8574-.61894.97683-.0229.0158-.17662.13265-.24885.1573l-.1662.0566c-.0977.0151-.42967.005-.51432-.0124-.0326-.007-.40473.11969-.55667.14118-.0917.0151-.29077.0163-.31857.0177-.1134.004-.3985-.0336-.43232-.0383-.34316-.0605-1.01985-.36641-1.22611-.53404l-.21016-.20863-.002-.07c-.0182-.0181-.0549-.0963-.0549-.0963-.12308-.1778-.1219-.37576-.2255-.52595 0,0-.094-.16355-.18274-.26437-.14709-.16564-.31573-.48319-.35083-.693-.13647-.76193.44564-1.46207.86152-2.10567 .20557-.31997.33553-.75533.43758-1.02998 .0605-.16574.18594-.36571.22041-.44797-.17643-.22217-.24542-.24709-.48806-.0657 .0195.0337-.007.0507-.0126.0991 .009-.0254-.0601.0427-.0696.068-.0663.19595-.18808.59626-.28744.72486l-.16618.0566c.0855-.77873.65748-1.77194 1.45948-2.02114s1.68104-.41132 2.73223.14148 1.89848,1.60723 2.04164,2.33174 .0644,1.3616-.25554,1.94986-.43573.53006-.73555.74179l-.0787-.11597z" fill="#fff"/>
    <path d="m316.68523,399.56299c-.0544-.006-.22197.0231-.27764.002-.005-.002-.2147.0207-.22432.028-.0264.0171-.30598.27958-.35634.51646-.0212.0858.0753.45216.0723.55597-.005.21726-.11622.50528.0176.66734 .0974.12009.37445.22932.53036.26094 .40735.0831.99739-.31538 1.09272-.8821 0,0 .004-.16055.0117-.23784 0,0-.0116-.11701-.0144-.17855-.003-.0676-.0706-.27834-.0706-.27834-.0391-.0734-.16912-.20655-.16801-.22104l-.18185-.12553c-.0714-.0261-.33741-.10285-.43156-.1071z"/>
    <path d="m314.02011,398.42622c-.29381.0453-.41757.19463-.48343.27951-.17116.21955-.32403.47521-.3848.78218 0,0-.0148.14011-.0122.16544 0,0 .0354.246.0439.26528 .0232.0505.3286.42636.58616.49594 .0472.0141.33185-.0142.3607-.0301 .0734-.0391.21257-.16309.22341-.1668 .0601-.0366.30897-.26552.3177-.27387 .22987-.21991.33132-.26235.35339-.41438l-.0928-.58438c-.1224-.30926-.49632-.43458-.61852-.47964-.0532-.0202-.25639-.0449-.29354-.0392z"/>
    <path d="m314.30936,401.92827c.0593.0201.23671.0202.29111.038 .075.0249.21348.15913.37637.15207 .0314-.003.16488-.0723.18049-.0857 .30106-.29399.20771-1.11296.1017-1.26436 0,0-.053-.18116-.20938-.27748-.4527-.27887-1.66343,1.09456-.74029,1.43747z"/>
   </g>
   <g transform="matrix(.07958 -.02603 .02603 .07958 313.34 482.64)">
    <path d="m155.93 155.93v-155.93h-155.93v155.93h155.93z"/>
    <path d="m150.83 150.83v-145.73c-68.04 15.514-144.09 3.5277-145.73 0v145.73c40.811 13.662 84.348 22.529 145.73 0z" fill="#fff"/>
   </g>
   <g transform="matrix(.68788 -.68325 .68325 .68788 -168.71 427.33)">
    <path d="m310.94905,398.54251c-.0938.0561-.21015.0639-.28903.18747-.0478.0727-.0389.15395-.13337.26523-.11861.13973-.15707.072-.37221.19949-.0149.009-.0316.0989.02.14579 .12832.0631.19016.1214.32442.1664l.15095-.002c.10515.0186.39156.26181.39156.26181 .0401.0347.21142.21832.25032.26149l.26629.30246c.0888.10686.34426.41905.39407.47065 .10092.11281.21586.15427.36129.24993 .0988-.21911.13056-.15536.0559-.32145-.0624-.13598-.19243-.2691-.29698-.38672-.16903-.19447-.3016-.35294-.48876-.55331-.0134-.0156-.25053-.29167-.33597-.44201 0,0-.1386-.34191-.12961-.44576 .002-.0229-.0201-.13021-.0275-.15186-.0111-.0326.009-.21014-.14136-.20793zm8.1039,4.16154-.2059.0702c-.19788.0109-.3622.12164-.55435.14235-.45864.0495-.99061.051-1.15613.0207-.10028-.0163-.22389-.0951-.30586-.0813-.0266.005-.24359.41557-.27524.55944 .27405.005.50228.0365.77993.0348l.37546.0133 .37666.0109 .35994.0387c0,0 .45669.18449.68219.23336 .11731-.0456.15251-.12046.13826-.28089-.005-.0688-.0952-.15513-.0992-.22024-.0138-.25944.20112-.48566-.11576-.54122zm-3.77844.28863c-.0542.006-.12781.0153-.18096.0132-.0857.36386.006.40916.25021.0539l-.0692-.0671zm.72501.49501c-.0817.056-.15716.15432-.19191.18228-.0554.039-.27874.21788-.33158.25202l-.27675.14059c-.12165.0334-.34906.0553-.34906.0553-.0989.005-.20676.0351-.29115.0478-.0374.003-.28844.005-.34637.00098-.14249-.01-.44713-.0816-.44713-.0816-.23566-.0468-.84151-.41101-.9485-.53587-.0632-.0733-.18966-.30833-.24092-.39975-.033-.0674-.0607-.32612-.0825-.34891l-.0292-.22194c-.009-.0434-.019-.33419-.0186-.45733 .00099-.0387.006-.15327.0117-.2378 .002-.0109-.0425-.0481-.0414-.0565-.12469.31459-.14782.47773-.20267.76655 0,0-.11886.6634-.0507.94661 .0186.0723.0727.22524.0849.24929 .15404.30435.50321.73785 1.00767.91082 .0774.026.4559.13704.51512.15116 0,0 .26349.0514.38899.053 .0121-3e-005 .32692-.0286.44625-.0572 .0469-.0159.24804-.0824.29022-.10084 .2034-.0894.62364-.43605.63677-.45061l.12361-.11068c.0899-.0971.36847-.52261.37312-.54434 .006-.0241-.0334-.12769-.0299-.15309zm-2.77379-1.33159-.0982.12618c.11439.14046.0708.11902.25184.12394 .002-.0109-.006-.14122-.00087-.13887-.0667-.0539-.0957-.05-.15279-.11125zm1.49192.77018c-.0215.0254-.0747.0173-.0831.0282-.10436.1021-.0925.26739-.10873.36158 .0507.00094.13035-.002.16784.0134 .0791-.0874.10413-.13826.19273-.25108-.0147-.0313-.0389-.0433-.0283-.0831-.0411-.0203-.10763-.038-.14047-.0691zm-1.05897-.45192c-.0252.0328-.0518.0197-.0831.0284-.0244.13523-.13785.32915.0989.36141 .0145.001.0516-.0377.0831-.0283 .0285-.0762.0687-.20685.0818-.23952-.0546-.0358-.11271-.0644-.18063-.12196zm.69739.34317c-.0448-.019-.23084-.0504-.27925-.0682l-.0417.0848c0,0-.11277.10694-.12194.18064-.004.0133.0353.0504.0283.083 .21185.0952.43938.18906.48433-.1407 .006-.0423-.0658-.0985-.0697-.13956zm.49133.76204c-.18413.0869-.14451.0492-.23486.26344 .0328.0312.0848.0478.0971.0839 .0591-.0101.0855-.0271.15314-.03 .0269-.12808.052-.1729.067-.27681-.007-.004-.0823-.0344-.0823-.0405zm-1.83954-.76665-.0953.19373-.0417.0848 .15117.0412c.0393-.0799.0833-.17551.12388-.25187-.0291-.0142-.12097-.0414-.13802-.0679zm1.33837.72767c-.0288.0219-.10845.0248-.12523.0406-.0492.0511-.0547.13558-.0965.19623 .0402.0589.047-.004.0283.0831 .0242.012.098.0332.11383.056 .0458-.0135.0697-.0438.12282-.0418 .0285-.0762.0675-.20444.0842-.23831-.0412-.0323-.0932-.0489-.12734-.0958zm-.90667-.41303c-.23814.12945-.22966.13062-.23274.40584 .0773.008.13887.0112.19451.0265l.15129-.3075c-.0389-.0493-.0862-.0694-.11306-.12481zm.43371.24952c-.0288.0219-.0989.0115-.12526.0405-.2278.24292-.0658.2745.0845.39062 .0802-.12006.1206-.20847.16565-.33662-.0364-.03-.0981-.0513-.12494-.0945zm1.77392,1.25469c-.14173.11075-.27523.18649-.41538.34908 .17191.26809.34101.48063.57436.7338l.084.1105 .29458.38556c.0146.0192.19404.33307.25409.47395 0,0 .0514.30504.12675.37211 .0582.0527.15491.0703.22279.10962 .0396-.0316.12504-.0587.15267-.0964 .17103-.23763.019-.22223.29081-.37721 .60607-.3515-.0895-.411-.43637-.66586-.0728-.0539-.13497-.15971-.19705-.2354-.32115-.38654-.57243-.80494-.95127-1.15979zm-4.0183-1.90775c-.0605-.0299-.27632.0114-.34638.00097-.13414-.0209-.35391-.0388-.36235-.0399-.19688-.0156-.51666-.008-.6678-.0488-.23338-.0697-.45088-.29403-.64171-.31575 0,0-.0644-.0302-.1253.0407-.024.0979-.0387.17038-.0249.26445 .009.0615.0661.14082.0714.2096 .005.17978-.0784.20198.0301.36063l.0414.0565c.0363.0119.0269.0614.0983.0814 .0798.0212.16589-.10488.22024-.0992 0,0 .0986-.0597.13956-.0697l.16619-.0566c.0265-.005.33407-.0371.43068-.0317 .12075.005.34892.0122.37547.0133 .10255-.007.31397.0221.33446.0232 .14373.0135.21366.006.34642-.001 .0152-.0737.0572-.11625.0408-.22356-.0101-.0651-.037-.1265-.12661-.1645zm6.93468,1.0862-2.18178-.17882-.1005.13332c-.0923.096-.11651.27955-.19181.38988-.0419.0606-.1186.13108-.19269.25111 .0256.0396.0883.21181.0979.22257 .0512.0734.33213.41314.4064.51285 .078.10446.29716.40483.33596.44204 .028.0227.20193.23166.22371.24832 .0788.0599.2202.0783.26616.0949 .21053.0856.3476.18611.47386.30239 0,0 .0452.0733.0562.0998s.11475.203-.14995.51272c-.035.0409-.18551.0652-.22023.0992-.0948.0887-.0977.20463-.19467.32232-.0456.0558-.15016.1156-.22104.16792 0,0-.0854.0452-.12284.0419l-.14116-.00033c-.12808-.0148-.24068-.0733-.33425-.16441l-.0839-.11047c-.0146-.0132-.005-.0929-.0152-.10972-.0734-.14443-.0997-.29878-.17053-.4298-.0489-.0963-.16726-.28983-.16726-.28983-.0914-.13821-.30322-.42296-.30811-.43131-.0718-.0925-.22129-.24121-.22374-.24844-.0854-.13823-.29697-.38676-.29697-.38676l-.2077-.20749c-.16509.0482-.34204.11442-.51456.12887-.12067.007-.37771.0157-.3898.0158-.0821-.004-.3648-.0472-.38898-.053-.0931-.0248-.41727-.13608-.41727-.13608-.41602-.12656-.82852-.45581-1.03416-.7164-.0158-.0229-.1134-.17912-.15369-.25004-.0854-.13833-.13005-.51819-.33928-.58204l-.0541.0426c-.14369-.0136-.24745-.004-.37663-.0109-.29341-.0211-.61849-.0817-.88852-.0221-.0253.003-.21159.12443-.23693.12706 0,0-.0733.0451-.0962.0549l-.19532.0423c-.13861.025-.54334-.0327-.66742-.19005-.0244-.03-.12055-.15855-.14138-.20789 0,0-.0448-.21461-.0427-.26168 .005-.1086.045-.13428.0407-.2235-.007-.12668-.0796-.18058-.0996-.29273-.0313-.17475.082-.39273.17858-.57082 0,0 .0949-.0706.15023-.0975 .0518-.0257.23621-.0583.23621-.0583l.13882-.00085c.27912.0562.44728.3013.68311.37224 .0641.0165.41063.0456.53022.0533l.42991.0371 .43232.0383c.0133-.002.0889-.0766.11055-.084 .007-.0326-.0294-.0686-.0283-.0831 .0332-.26932.278-.49782.26004-.66916l-.08-.14423-1.22364-1.36333-.55604-.13524c-.22619-.0722-.50521-.29366-.51816-.42635-.006-.0724-.0224-.29679.10949-.4304 .0228-.0279.14935-.0529.18052-.0857 .006-.0121.11671-.0538.13712-.0709 .0432-.0329.37804-.71336.63581-.79709l.19284-.0435c.18704-.001.41037.18688.51602.29l.0583.23619c0,0 .13423.60748.14401.62429 .11724.21411.32834.38414.51779.56758 .0497-.15602.0561-.29124.094-.40493l.32667-.72084c-.0941-1.06234.0825-2.27855.96277-2.97173s1.18008-.90491 2.44468-.77647 1.34153.2638 2.26718.82597 1.55997,1.84784 1.57781,2.48516 .025,1.72842-.73955,2.4798-.75361.20103-.96701.62539l-.30668.75804c-.0944.13702-.22012.3068-.32972.52956 .6114.13173.98007-.0111 1.01502-.021s.17784-.038.2059-.0702c.038-.0436.54068-.28625.82302.16131 0,0 .10637.21176.0858.38808-.007.0507-.0531.18745-.0539.2502-.001.0266.0671.11421.0697.13956l.0152.10974c-.0148.13408-.00047.30657-.12137.46067-.0371.0449-.25972.14892-.32008.15534l-.62524-.31122z"/>
    <path d="m318.28945,400.52673c.2943-.59811.69466-.8433.74198-1.36742 0,0 .0145-.19442-.0149-.251-.0892-.16719-.35393-.23426-.45947-.12378-.0899.0911-.0786.35538-.0939.40495-.20525.55174-.43047.62437-.57753,1.03328-.0108.0218-.053.38899-.053.38899-.0106.052-.0261.24882-.0273.26328-.0135.14374-.0673.41808-.0673.41808-.0874.30593-.44597.8574-.61894.97683-.0229.0158-.17662.13265-.24885.1573l-.1662.0566c-.0977.0151-.42967.005-.51432-.0124-.0326-.007-.40473.11969-.55667.14118-.0917.0151-.29077.0163-.31857.0177-.1134.004-.3985-.0336-.43232-.0383-.34316-.0605-1.01985-.36641-1.22611-.53404l-.21016-.20863-.002-.07c-.0182-.0181-.0549-.0963-.0549-.0963-.12308-.1778-.1219-.37576-.2255-.52595 0,0-.094-.16355-.18274-.26437-.14709-.16564-.31573-.48319-.35083-.693-.13647-.76193.44564-1.46207.86152-2.10567 .20557-.31997.33553-.75533.43758-1.02998 .0605-.16574.18594-.36571.22041-.44797-.17643-.22217-.24542-.24709-.48806-.0657 .0195.0337-.007.0507-.0126.0991 .009-.0254-.0601.0427-.0696.068-.0663.19595-.18808.59626-.28744.72486l-.16618.0566c.0855-.77873.65748-1.77194 1.45948-2.02114s1.68104-.41132 2.73223.14148 1.89848,1.60723 2.04164,2.33174 .0644,1.3616-.25554,1.94986-.43573.53006-.73555.74179l-.0787-.11597z" fill="#fff"/>
    <path d="m316.68523,399.56299c-.0544-.006-.22197.0231-.27764.002-.005-.002-.2147.0207-.22432.028-.0264.0171-.30598.27958-.35634.51646-.0212.0858.0753.45216.0723.55597-.005.21726-.11622.50528.0176.66734 .0974.12009.37445.22932.53036.26094 .40735.0831.99739-.31538 1.09272-.8821 0,0 .004-.16055.0117-.23784 0,0-.0116-.11701-.0144-.17855-.003-.0676-.0706-.27834-.0706-.27834-.0391-.0734-.16912-.20655-.16801-.22104l-.18185-.12553c-.0714-.0261-.33741-.10285-.43156-.1071z"/>
    <path d="m314.02011,398.42622c-.29381.0453-.41757.19463-.48343.27951-.17116.21955-.32403.47521-.3848.78218 0,0-.0148.14011-.0122.16544 0,0 .0354.246.0439.26528 .0232.0505.3286.42636.58616.49594 .0472.0141.33185-.0142.3607-.0301 .0734-.0391.21257-.16309.22341-.1668 .0601-.0366.30897-.26552.3177-.27387 .22987-.21991.33132-.26235.35339-.41438l-.0928-.58438c-.1224-.30926-.49632-.43458-.61852-.47964-.0532-.0202-.25639-.0449-.29354-.0392z"/>
    <path d="m314.30936,401.92827c.0593.0201.23671.0202.29111.038 .075.0249.21348.15913.37637.15207 .0314-.003.16488-.0723.18049-.0857 .30106-.29399.20771-1.11296.1017-1.26436 0,0-.053-.18116-.20938-.27748-.4527-.27887-1.66343,1.09456-.74029,1.43747z"/>
   </g>
   <g transform="matrix(.0157 .08492 -.08492 .0157 372.45 485.61)">
    <path d="m155.93 155.93v-155.93h-155.93v155.93h155.93z"/>
    <path d="m150.83 150.83v-145.73c-68.04 15.514-144.09 3.5277-145.73 0v145.73c40.811 13.662 84.348 22.529 145.73 0z" fill="#fff"/>
   </g>
   <g transform="matrix(.60422 .79682 -.79682 .60422 495.04 .40747)">
    <path d="m310.94905,398.54251c-.0938.0561-.21015.0639-.28903.18747-.0478.0727-.0389.15395-.13337.26523-.11861.13973-.15707.072-.37221.19949-.0149.009-.0316.0989.02.14579 .12832.0631.19016.1214.32442.1664l.15095-.002c.10515.0186.39156.26181.39156.26181 .0401.0347.21142.21832.25032.26149l.26629.30246c.0888.10686.34426.41905.39407.47065 .10092.11281.21586.15427.36129.24993 .0988-.21911.13056-.15536.0559-.32145-.0624-.13598-.19243-.2691-.29698-.38672-.16903-.19447-.3016-.35294-.48876-.55331-.0134-.0156-.25053-.29167-.33597-.44201 0,0-.1386-.34191-.12961-.44576 .002-.0229-.0201-.13021-.0275-.15186-.0111-.0326.009-.21014-.14136-.20793zm8.1039,4.16154-.2059.0702c-.19788.0109-.3622.12164-.55435.14235-.45864.0495-.99061.051-1.15613.0207-.10028-.0163-.22389-.0951-.30586-.0813-.0266.005-.24359.41557-.27524.55944 .27405.005.50228.0365.77993.0348l.37546.0133 .37666.0109 .35994.0387c0,0 .45669.18449.68219.23336 .11731-.0456.15251-.12046.13826-.28089-.005-.0688-.0952-.15513-.0992-.22024-.0138-.25944.20112-.48566-.11576-.54122zm-3.77844.28863c-.0542.006-.12781.0153-.18096.0132-.0857.36386.006.40916.25021.0539l-.0692-.0671zm.72501.49501c-.0817.056-.15716.15432-.19191.18228-.0554.039-.27874.21788-.33158.25202l-.27675.14059c-.12165.0334-.34906.0553-.34906.0553-.0989.005-.20676.0351-.29115.0478-.0374.003-.28844.005-.34637.00098-.14249-.01-.44713-.0816-.44713-.0816-.23566-.0468-.84151-.41101-.9485-.53587-.0632-.0733-.18966-.30833-.24092-.39975-.033-.0674-.0607-.32612-.0825-.34891l-.0292-.22194c-.009-.0434-.019-.33419-.0186-.45733 .00099-.0387.006-.15327.0117-.2378 .002-.0109-.0425-.0481-.0414-.0565-.12469.31459-.14782.47773-.20267.76655 0,0-.11886.6634-.0507.94661 .0186.0723.0727.22524.0849.24929 .15404.30435.50321.73785 1.00767.91082 .0774.026.4559.13704.51512.15116 0,0 .26349.0514.38899.053 .0121-3e-005 .32692-.0286.44625-.0572 .0469-.0159.24804-.0824.29022-.10084 .2034-.0894.62364-.43605.63677-.45061l.12361-.11068c.0899-.0971.36847-.52261.37312-.54434 .006-.0241-.0334-.12769-.0299-.15309zm-2.77379-1.33159-.0982.12618c.11439.14046.0708.11902.25184.12394 .002-.0109-.006-.14122-.00087-.13887-.0667-.0539-.0957-.05-.15279-.11125zm1.49192.77018c-.0215.0254-.0747.0173-.0831.0282-.10436.1021-.0925.26739-.10873.36158 .0507.00094.13035-.002.16784.0134 .0791-.0874.10413-.13826.19273-.25108-.0147-.0313-.0389-.0433-.0283-.0831-.0411-.0203-.10763-.038-.14047-.0691zm-1.05897-.45192c-.0252.0328-.0518.0197-.0831.0284-.0244.13523-.13785.32915.0989.36141 .0145.001.0516-.0377.0831-.0283 .0285-.0762.0687-.20685.0818-.23952-.0546-.0358-.11271-.0644-.18063-.12196zm.69739.34317c-.0448-.019-.23084-.0504-.27925-.0682l-.0417.0848c0,0-.11277.10694-.12194.18064-.004.0133.0353.0504.0283.083 .21185.0952.43938.18906.48433-.1407 .006-.0423-.0658-.0985-.0697-.13956zm.49133.76204c-.18413.0869-.14451.0492-.23486.26344 .0328.0312.0848.0478.0971.0839 .0591-.0101.0855-.0271.15314-.03 .0269-.12808.052-.1729.067-.27681-.007-.004-.0823-.0344-.0823-.0405zm-1.83954-.76665-.0953.19373-.0417.0848 .15117.0412c.0393-.0799.0833-.17551.12388-.25187-.0291-.0142-.12097-.0414-.13802-.0679zm1.33837.72767c-.0288.0219-.10845.0248-.12523.0406-.0492.0511-.0547.13558-.0965.19623 .0402.0589.047-.004.0283.0831 .0242.012.098.0332.11383.056 .0458-.0135.0697-.0438.12282-.0418 .0285-.0762.0675-.20444.0842-.23831-.0412-.0323-.0932-.0489-.12734-.0958zm-.90667-.41303c-.23814.12945-.22966.13062-.23274.40584 .0773.008.13887.0112.19451.0265l.15129-.3075c-.0389-.0493-.0862-.0694-.11306-.12481zm.43371.24952c-.0288.0219-.0989.0115-.12526.0405-.2278.24292-.0658.2745.0845.39062 .0802-.12006.1206-.20847.16565-.33662-.0364-.03-.0981-.0513-.12494-.0945zm1.77392,1.25469c-.14173.11075-.27523.18649-.41538.34908 .17191.26809.34101.48063.57436.7338l.084.1105 .29458.38556c.0146.0192.19404.33307.25409.47395 0,0 .0514.30504.12675.37211 .0582.0527.15491.0703.22279.10962 .0396-.0316.12504-.0587.15267-.0964 .17103-.23763.019-.22223.29081-.37721 .60607-.3515-.0895-.411-.43637-.66586-.0728-.0539-.13497-.15971-.19705-.2354-.32115-.38654-.57243-.80494-.95127-1.15979zm-4.0183-1.90775c-.0605-.0299-.27632.0114-.34638.00097-.13414-.0209-.35391-.0388-.36235-.0399-.19688-.0156-.51666-.008-.6678-.0488-.23338-.0697-.45088-.29403-.64171-.31575 0,0-.0644-.0302-.1253.0407-.024.0979-.0387.17038-.0249.26445 .009.0615.0661.14082.0714.2096 .005.17978-.0784.20198.0301.36063l.0414.0565c.0363.0119.0269.0614.0983.0814 .0798.0212.16589-.10488.22024-.0992 0,0 .0986-.0597.13956-.0697l.16619-.0566c.0265-.005.33407-.0371.43068-.0317 .12075.005.34892.0122.37547.0133 .10255-.007.31397.0221.33446.0232 .14373.0135.21366.006.34642-.001 .0152-.0737.0572-.11625.0408-.22356-.0101-.0651-.037-.1265-.12661-.1645zm6.93468,1.0862-2.18178-.17882-.1005.13332c-.0923.096-.11651.27955-.19181.38988-.0419.0606-.1186.13108-.19269.25111 .0256.0396.0883.21181.0979.22257 .0512.0734.33213.41314.4064.51285 .078.10446.29716.40483.33596.44204 .028.0227.20193.23166.22371.24832 .0788.0599.2202.0783.26616.0949 .21053.0856.3476.18611.47386.30239 0,0 .0452.0733.0562.0998s.11475.203-.14995.51272c-.035.0409-.18551.0652-.22023.0992-.0948.0887-.0977.20463-.19467.32232-.0456.0558-.15016.1156-.22104.16792 0,0-.0854.0452-.12284.0419l-.14116-.00033c-.12808-.0148-.24068-.0733-.33425-.16441l-.0839-.11047c-.0146-.0132-.005-.0929-.0152-.10972-.0734-.14443-.0997-.29878-.17053-.4298-.0489-.0963-.16726-.28983-.16726-.28983-.0914-.13821-.30322-.42296-.30811-.43131-.0718-.0925-.22129-.24121-.22374-.24844-.0854-.13823-.29697-.38676-.29697-.38676l-.2077-.20749c-.16509.0482-.34204.11442-.51456.12887-.12067.007-.37771.0157-.3898.0158-.0821-.004-.3648-.0472-.38898-.053-.0931-.0248-.41727-.13608-.41727-.13608-.41602-.12656-.82852-.45581-1.03416-.7164-.0158-.0229-.1134-.17912-.15369-.25004-.0854-.13833-.13005-.51819-.33928-.58204l-.0541.0426c-.14369-.0136-.24745-.004-.37663-.0109-.29341-.0211-.61849-.0817-.88852-.0221-.0253.003-.21159.12443-.23693.12706 0,0-.0733.0451-.0962.0549l-.19532.0423c-.13861.025-.54334-.0327-.66742-.19005-.0244-.03-.12055-.15855-.14138-.20789 0,0-.0448-.21461-.0427-.26168 .005-.1086.045-.13428.0407-.2235-.007-.12668-.0796-.18058-.0996-.29273-.0313-.17475.082-.39273.17858-.57082 0,0 .0949-.0706.15023-.0975 .0518-.0257.23621-.0583.23621-.0583l.13882-.00085c.27912.0562.44728.3013.68311.37224 .0641.0165.41063.0456.53022.0533l.42991.0371 .43232.0383c.0133-.002.0889-.0766.11055-.084 .007-.0326-.0294-.0686-.0283-.0831 .0332-.26932.278-.49782.26004-.66916l-.08-.14423-1.22364-1.36333-.55604-.13524c-.22619-.0722-.50521-.29366-.51816-.42635-.006-.0724-.0224-.29679.10949-.4304 .0228-.0279.14935-.0529.18052-.0857 .006-.0121.11671-.0538.13712-.0709 .0432-.0329.37804-.71336.63581-.79709l.19284-.0435c.18704-.001.41037.18688.51602.29l.0583.23619c0,0 .13423.60748.14401.62429 .11724.21411.32834.38414.51779.56758 .0497-.15602.0561-.29124.094-.40493l.32667-.72084c-.0941-1.06234.0825-2.27855.96277-2.97173s1.18008-.90491 2.44468-.77647 1.34153.2638 2.26718.82597 1.55997,1.84784 1.57781,2.48516 .025,1.72842-.73955,2.4798-.75361.20103-.96701.62539l-.30668.75804c-.0944.13702-.22012.3068-.32972.52956 .6114.13173.98007-.0111 1.01502-.021s.17784-.038.2059-.0702c.038-.0436.54068-.28625.82302.16131 0,0 .10637.21176.0858.38808-.007.0507-.0531.18745-.0539.2502-.001.0266.0671.11421.0697.13956l.0152.10974c-.0148.13408-.00047.30657-.12137.46067-.0371.0449-.25972.14892-.32008.15534l-.62524-.31122z"/>
    <path d="m318.28945,400.52673c.2943-.59811.69466-.8433.74198-1.36742 0,0 .0145-.19442-.0149-.251-.0892-.16719-.35393-.23426-.45947-.12378-.0899.0911-.0786.35538-.0939.40495-.20525.55174-.43047.62437-.57753,1.03328-.0108.0218-.053.38899-.053.38899-.0106.052-.0261.24882-.0273.26328-.0135.14374-.0673.41808-.0673.41808-.0874.30593-.44597.8574-.61894.97683-.0229.0158-.17662.13265-.24885.1573l-.1662.0566c-.0977.0151-.42967.005-.51432-.0124-.0326-.007-.40473.11969-.55667.14118-.0917.0151-.29077.0163-.31857.0177-.1134.004-.3985-.0336-.43232-.0383-.34316-.0605-1.01985-.36641-1.22611-.53404l-.21016-.20863-.002-.07c-.0182-.0181-.0549-.0963-.0549-.0963-.12308-.1778-.1219-.37576-.2255-.52595 0,0-.094-.16355-.18274-.26437-.14709-.16564-.31573-.48319-.35083-.693-.13647-.76193.44564-1.46207.86152-2.10567 .20557-.31997.33553-.75533.43758-1.02998 .0605-.16574.18594-.36571.22041-.44797-.17643-.22217-.24542-.24709-.48806-.0657 .0195.0337-.007.0507-.0126.0991 .009-.0254-.0601.0427-.0696.068-.0663.19595-.18808.59626-.28744.72486l-.16618.0566c.0855-.77873.65748-1.77194 1.45948-2.02114s1.68104-.41132 2.73223.14148 1.89848,1.60723 2.04164,2.33174 .0644,1.3616-.25554,1.94986-.43573.53006-.73555.74179l-.0787-.11597z" fill="#fff"/>
    <path d="m316.68523,399.56299c-.0544-.006-.22197.0231-.27764.002-.005-.002-.2147.0207-.22432.028-.0264.0171-.30598.27958-.35634.51646-.0212.0858.0753.45216.0723.55597-.005.21726-.11622.50528.0176.66734 .0974.12009.37445.22932.53036.26094 .40735.0831.99739-.31538 1.09272-.8821 0,0 .004-.16055.0117-.23784 0,0-.0116-.11701-.0144-.17855-.003-.0676-.0706-.27834-.0706-.27834-.0391-.0734-.16912-.20655-.16801-.22104l-.18185-.12553c-.0714-.0261-.33741-.10285-.43156-.1071z"/>
    <path d="m314.02011,398.42622c-.29381.0453-.41757.19463-.48343.27951-.17116.21955-.32403.47521-.3848.78218 0,0-.0148.14011-.0122.16544 0,0 .0354.246.0439.26528 .0232.0505.3286.42636.58616.49594 .0472.0141.33185-.0142.3607-.0301 .0734-.0391.21257-.16309.22341-.1668 .0601-.0366.30897-.26552.3177-.27387 .22987-.21991.33132-.26235.35339-.41438l-.0928-.58438c-.1224-.30926-.49632-.43458-.61852-.47964-.0532-.0202-.25639-.0449-.29354-.0392z"/>
    <path d="m314.30936,401.92827c.0593.0201.23671.0202.29111.038 .075.0249.21348.15913.37637.15207 .0314-.003.16488-.0723.18049-.0857 .30106-.29399.20771-1.11296.1017-1.26436 0,0-.053-.18116-.20938-.27748-.4527-.27887-1.66343,1.09456-.74029,1.43747z"/>
   </g>
   <g transform="matrix(.07716 .0388 -.0388 .07716 341.92 481.65)">
    <path d="m155.93 155.93v-155.93h-155.93v155.93h155.93z"/>
    <path d="m150.83 150.83v-145.73c-68.04 15.514-144.09 3.5277-145.73 0v145.73c40.811 13.662 84.348 22.529 145.73 0z" fill="#fff"/>
   </g>
   <g transform="translate(29.373 90.795)">
    <path d="m310.94905,398.54251c-.0938.0561-.21015.0639-.28903.18747-.0478.0727-.0389.15395-.13337.26523-.11861.13973-.15707.072-.37221.19949-.0149.009-.0316.0989.02.14579 .12832.0631.19016.1214.32442.1664l.15095-.002c.10515.0186.39156.26181.39156.26181 .0401.0347.21142.21832.25032.26149l.26629.30246c.0888.10686.34426.41905.39407.47065 .10092.11281.21586.15427.36129.24993 .0988-.21911.13056-.15536.0559-.32145-.0624-.13598-.19243-.2691-.29698-.38672-.16903-.19447-.3016-.35294-.48876-.55331-.0134-.0156-.25053-.29167-.33597-.44201 0,0-.1386-.34191-.12961-.44576 .002-.0229-.0201-.13021-.0275-.15186-.0111-.0326.009-.21014-.14136-.20793zm8.1039,4.16154-.2059.0702c-.19788.0109-.3622.12164-.55435.14235-.45864.0495-.99061.051-1.15613.0207-.10028-.0163-.22389-.0951-.30586-.0813-.0266.005-.24359.41557-.27524.55944 .27405.005.50228.0365.77993.0348l.37546.0133 .37666.0109 .35994.0387c0,0 .45669.18449.68219.23336 .11731-.0456.15251-.12046.13826-.28089-.005-.0688-.0952-.15513-.0992-.22024-.0138-.25944.20112-.48566-.11576-.54122zm-3.77844.28863c-.0542.006-.12781.0153-.18096.0132-.0857.36386.006.40916.25021.0539l-.0692-.0671zm.72501.49501c-.0817.056-.15716.15432-.19191.18228-.0554.039-.27874.21788-.33158.25202l-.27675.14059c-.12165.0334-.34906.0553-.34906.0553-.0989.005-.20676.0351-.29115.0478-.0374.003-.28844.005-.34637.00098-.14249-.01-.44713-.0816-.44713-.0816-.23566-.0468-.84151-.41101-.9485-.53587-.0632-.0733-.18966-.30833-.24092-.39975-.033-.0674-.0607-.32612-.0825-.34891l-.0292-.22194c-.009-.0434-.019-.33419-.0186-.45733 .00099-.0387.006-.15327.0117-.2378 .002-.0109-.0425-.0481-.0414-.0565-.12469.31459-.14782.47773-.20267.76655 0,0-.11886.6634-.0507.94661 .0186.0723.0727.22524.0849.24929 .15404.30435.50321.73785 1.00767.91082 .0774.026.4559.13704.51512.15116 0,0 .26349.0514.38899.053 .0121-3e-005 .32692-.0286.44625-.0572 .0469-.0159.24804-.0824.29022-.10084 .2034-.0894.62364-.43605.63677-.45061l.12361-.11068c.0899-.0971.36847-.52261.37312-.54434 .006-.0241-.0334-.12769-.0299-.15309zm-2.77379-1.33159-.0982.12618c.11439.14046.0708.11902.25184.12394 .002-.0109-.006-.14122-.00087-.13887-.0667-.0539-.0957-.05-.15279-.11125zm1.49192.77018c-.0215.0254-.0747.0173-.0831.0282-.10436.1021-.0925.26739-.10873.36158 .0507.00094.13035-.002.16784.0134 .0791-.0874.10413-.13826.19273-.25108-.0147-.0313-.0389-.0433-.0283-.0831-.0411-.0203-.10763-.038-.14047-.0691zm-1.05897-.45192c-.0252.0328-.0518.0197-.0831.0284-.0244.13523-.13785.32915.0989.36141 .0145.001.0516-.0377.0831-.0283 .0285-.0762.0687-.20685.0818-.23952-.0546-.0358-.11271-.0644-.18063-.12196zm.69739.34317c-.0448-.019-.23084-.0504-.27925-.0682l-.0417.0848c0,0-.11277.10694-.12194.18064-.004.0133.0353.0504.0283.083 .21185.0952.43938.18906.48433-.1407 .006-.0423-.0658-.0985-.0697-.13956zm.49133.76204c-.18413.0869-.14451.0492-.23486.26344 .0328.0312.0848.0478.0971.0839 .0591-.0101.0855-.0271.15314-.03 .0269-.12808.052-.1729.067-.27681-.007-.004-.0823-.0344-.0823-.0405zm-1.83954-.76665-.0953.19373-.0417.0848 .15117.0412c.0393-.0799.0833-.17551.12388-.25187-.0291-.0142-.12097-.0414-.13802-.0679zm1.33837.72767c-.0288.0219-.10845.0248-.12523.0406-.0492.0511-.0547.13558-.0965.19623 .0402.0589.047-.004.0283.0831 .0242.012.098.0332.11383.056 .0458-.0135.0697-.0438.12282-.0418 .0285-.0762.0675-.20444.0842-.23831-.0412-.0323-.0932-.0489-.12734-.0958zm-.90667-.41303c-.23814.12945-.22966.13062-.23274.40584 .0773.008.13887.0112.19451.0265l.15129-.3075c-.0389-.0493-.0862-.0694-.11306-.12481zm.43371.24952c-.0288.0219-.0989.0115-.12526.0405-.2278.24292-.0658.2745.0845.39062 .0802-.12006.1206-.20847.16565-.33662-.0364-.03-.0981-.0513-.12494-.0945zm1.77392,1.25469c-.14173.11075-.27523.18649-.41538.34908 .17191.26809.34101.48063.57436.7338l.084.1105 .29458.38556c.0146.0192.19404.33307.25409.47395 0,0 .0514.30504.12675.37211 .0582.0527.15491.0703.22279.10962 .0396-.0316.12504-.0587.15267-.0964 .17103-.23763.019-.22223.29081-.37721 .60607-.3515-.0895-.411-.43637-.66586-.0728-.0539-.13497-.15971-.19705-.2354-.32115-.38654-.57243-.80494-.95127-1.15979zm-4.0183-1.90775c-.0605-.0299-.27632.0114-.34638.00097-.13414-.0209-.35391-.0388-.36235-.0399-.19688-.0156-.51666-.008-.6678-.0488-.23338-.0697-.45088-.29403-.64171-.31575 0,0-.0644-.0302-.1253.0407-.024.0979-.0387.17038-.0249.26445 .009.0615.0661.14082.0714.2096 .005.17978-.0784.20198.0301.36063l.0414.0565c.0363.0119.0269.0614.0983.0814 .0798.0212.16589-.10488.22024-.0992 0,0 .0986-.0597.13956-.0697l.16619-.0566c.0265-.005.33407-.0371.43068-.0317 .12075.005.34892.0122.37547.0133 .10255-.007.31397.0221.33446.0232 .14373.0135.21366.006.34642-.001 .0152-.0737.0572-.11625.0408-.22356-.0101-.0651-.037-.1265-.12661-.1645zm6.93468,1.0862-2.18178-.17882-.1005.13332c-.0923.096-.11651.27955-.19181.38988-.0419.0606-.1186.13108-.19269.25111 .0256.0396.0883.21181.0979.22257 .0512.0734.33213.41314.4064.51285 .078.10446.29716.40483.33596.44204 .028.0227.20193.23166.22371.24832 .0788.0599.2202.0783.26616.0949 .21053.0856.3476.18611.47386.30239 0,0 .0452.0733.0562.0998s.11475.203-.14995.51272c-.035.0409-.18551.0652-.22023.0992-.0948.0887-.0977.20463-.19467.32232-.0456.0558-.15016.1156-.22104.16792 0,0-.0854.0452-.12284.0419l-.14116-.00033c-.12808-.0148-.24068-.0733-.33425-.16441l-.0839-.11047c-.0146-.0132-.005-.0929-.0152-.10972-.0734-.14443-.0997-.29878-.17053-.4298-.0489-.0963-.16726-.28983-.16726-.28983-.0914-.13821-.30322-.42296-.30811-.43131-.0718-.0925-.22129-.24121-.22374-.24844-.0854-.13823-.29697-.38676-.29697-.38676l-.2077-.20749c-.16509.0482-.34204.11442-.51456.12887-.12067.007-.37771.0157-.3898.0158-.0821-.004-.3648-.0472-.38898-.053-.0931-.0248-.41727-.13608-.41727-.13608-.41602-.12656-.82852-.45581-1.03416-.7164-.0158-.0229-.1134-.17912-.15369-.25004-.0854-.13833-.13005-.51819-.33928-.58204l-.0541.0426c-.14369-.0136-.24745-.004-.37663-.0109-.29341-.0211-.61849-.0817-.88852-.0221-.0253.003-.21159.12443-.23693.12706 0,0-.0733.0451-.0962.0549l-.19532.0423c-.13861.025-.54334-.0327-.66742-.19005-.0244-.03-.12055-.15855-.14138-.20789 0,0-.0448-.21461-.0427-.26168 .005-.1086.045-.13428.0407-.2235-.007-.12668-.0796-.18058-.0996-.29273-.0313-.17475.082-.39273.17858-.57082 0,0 .0949-.0706.15023-.0975 .0518-.0257.23621-.0583.23621-.0583l.13882-.00085c.27912.0562.44728.3013.68311.37224 .0641.0165.41063.0456.53022.0533l.42991.0371 .43232.0383c.0133-.002.0889-.0766.11055-.084 .007-.0326-.0294-.0686-.0283-.0831 .0332-.26932.278-.49782.26004-.66916l-.08-.14423-1.22364-1.36333-.55604-.13524c-.22619-.0722-.50521-.29366-.51816-.42635-.006-.0724-.0224-.29679.10949-.4304 .0228-.0279.14935-.0529.18052-.0857 .006-.0121.11671-.0538.13712-.0709 .0432-.0329.37804-.71336.63581-.79709l.19284-.0435c.18704-.001.41037.18688.51602.29l.0583.23619c0,0 .13423.60748.14401.62429 .11724.21411.32834.38414.51779.56758 .0497-.15602.0561-.29124.094-.40493l.32667-.72084c-.0941-1.06234.0825-2.27855.96277-2.97173s1.18008-.90491 2.44468-.77647 1.34153.2638 2.26718.82597 1.55997,1.84784 1.57781,2.48516 .025,1.72842-.73955,2.4798-.75361.20103-.96701.62539l-.30668.75804c-.0944.13702-.22012.3068-.32972.52956 .6114.13173.98007-.0111 1.01502-.021s.17784-.038.2059-.0702c.038-.0436.54068-.28625.82302.16131 0,0 .10637.21176.0858.38808-.007.0507-.0531.18745-.0539.2502-.001.0266.0671.11421.0697.13956l.0152.10974c-.0148.13408-.00047.30657-.12137.46067-.0371.0449-.25972.14892-.32008.15534l-.62524-.31122z"/>
    <path d="m318.28945,400.52673c.2943-.59811.69466-.8433.74198-1.36742 0,0 .0145-.19442-.0149-.251-.0892-.16719-.35393-.23426-.45947-.12378-.0899.0911-.0786.35538-.0939.40495-.20525.55174-.43047.62437-.57753,1.03328-.0108.0218-.053.38899-.053.38899-.0106.052-.0261.24882-.0273.26328-.0135.14374-.0673.41808-.0673.41808-.0874.30593-.44597.8574-.61894.97683-.0229.0158-.17662.13265-.24885.1573l-.1662.0566c-.0977.0151-.42967.005-.51432-.0124-.0326-.007-.40473.11969-.55667.14118-.0917.0151-.29077.0163-.31857.0177-.1134.004-.3985-.0336-.43232-.0383-.34316-.0605-1.01985-.36641-1.22611-.53404l-.21016-.20863-.002-.07c-.0182-.0181-.0549-.0963-.0549-.0963-.12308-.1778-.1219-.37576-.2255-.52595 0,0-.094-.16355-.18274-.26437-.14709-.16564-.31573-.48319-.35083-.693-.13647-.76193.44564-1.46207.86152-2.10567 .20557-.31997.33553-.75533.43758-1.02998 .0605-.16574.18594-.36571.22041-.44797-.17643-.22217-.24542-.24709-.48806-.0657 .0195.0337-.007.0507-.0126.0991 .009-.0254-.0601.0427-.0696.068-.0663.19595-.18808.59626-.28744.72486l-.16618.0566c.0855-.77873.65748-1.77194 1.45948-2.02114s1.68104-.41132 2.73223.14148 1.89848,1.60723 2.04164,2.33174 .0644,1.3616-.25554,1.94986-.43573.53006-.73555.74179l-.0787-.11597z" fill="#fff"/>
    <path d="m316.68523,399.56299c-.0544-.006-.22197.0231-.27764.002-.005-.002-.2147.0207-.22432.028-.0264.0171-.30598.27958-.35634.51646-.0212.0858.0753.45216.0723.55597-.005.21726-.11622.50528.0176.66734 .0974.12009.37445.22932.53036.26094 .40735.0831.99739-.31538 1.09272-.8821 0,0 .004-.16055.0117-.23784 0,0-.0116-.11701-.0144-.17855-.003-.0676-.0706-.27834-.0706-.27834-.0391-.0734-.16912-.20655-.16801-.22104l-.18185-.12553c-.0714-.0261-.33741-.10285-.43156-.1071z"/>
    <path d="m314.02011,398.42622c-.29381.0453-.41757.19463-.48343.27951-.17116.21955-.32403.47521-.3848.78218 0,0-.0148.14011-.0122.16544 0,0 .0354.246.0439.26528 .0232.0505.3286.42636.58616.49594 .0472.0141.33185-.0142.3607-.0301 .0734-.0391.21257-.16309.22341-.1668 .0601-.0366.30897-.26552.3177-.27387 .22987-.21991.33132-.26235.35339-.41438l-.0928-.58438c-.1224-.30926-.49632-.43458-.61852-.47964-.0532-.0202-.25639-.0449-.29354-.0392z"/>
    <path d="m314.30936,401.92827c.0593.0201.23671.0202.29111.038 .075.0249.21348.15913.37637.15207 .0314-.003.16488-.0723.18049-.0857 .30106-.29399.20771-1.11296.1017-1.26436 0,0-.053-.18116-.20938-.27748-.4527-.27887-1.66343,1.09456-.74029,1.43747z"/>
   </g>
  </g>
  <g transform="translate(-28.013 172.58)">
   <path d="m290.50985,352.31379c-4.46544,1.43161-7.61114,4.08563-7.02166,5.92433l2.20407,6.87485c-.15003.40938-.17683.81002-.0611,1.17086s.36698.66556.72843.91052l1.90843,5.95269c-.15003.40938-.17683.81001-.0611,1.17086s.36703.66657.72878.91161l1.41755,4.42156c.7012,1.75289 4.74137,2.0488 9.12706.64275s7.50069-3.9959 7.05199-5.82973l-1.4559-4.54119c.10587-.35626.11414-.69877.0121-1.0172s-.31066-.60081-.60439-.83037l-1.98374-6.18758c.10582-.35618.11448-.69776.0124-1.01612s-.31065-.60081-.60439-.83036l-2.24102-6.99013c-.58949-1.83871-4.69196-2.16897-9.15739-.73735z"/>
   <path d="m334.21478,438.51507c.61903-4.64827-.4318-8.62759-2.34579-8.88249l-7.15633-.95305c-.30566-.31092-.65622-.50674-1.03185-.55673s-.7586.0465-1.13477.26823l-6.19643-.82521c-.30565-.31092-.6562-.50673-1.03184-.55672s-.75954.0462-1.13592.26807l-4.6026-.61295c-1.88429-.11719-3.8822,3.40684-4.49018,7.97211s.39803,8.48935 2.24731,8.86938l4.72713.62953c.27654.24829.58253.40245.91398.44663s.67597-.0234 1.00922-.19046l6.44094.85776c.27656.24816.58147.40232.91287.44643s.67597-.0234 1.00921-.19047l7.27634.96904c1.91398.25491 3.96964-3.31071 4.58865-7.95899z"/>
   <path transform="translate(84.286 234.43)" d="m237.09375,237.78125c-1.40634.0547-3.01296.33814-4.6875.875-4.46544,1.43161-7.62073,4.0988-7.03125,5.9375l2.1875,6.875c-.15003.40938-.14698.79541-.0312,1.15625s.3573.66129.71875.90625l1.90625,5.96875c-.15003.40938-.17823.7954-.0625,1.15625s.357.69246.71875.9375l1.43745,4.40625c.12666.31664.36068.59166.6875.8125h7.84375c.19827-.057.39375-.0921.59375-.15625 2.94711-.94483 5.30252-2.44966 6.40625-3.875l2.90625,4.03125h13.75l2.09375-3.90625c.32959-.17175.59222-.39269.75-.6875s.2269-.62929.1875-1l1.375-2.59375 .4375,1.375c-.15003.40938-.14698.82665-.0312,1.1875s.357.66121.71875.90625l1.4062,4.40625c.0461.11515.11231.21059.1875.3125h17.9375l1.34375-.3125c.39494.1847.78678.27174 1.15625.1875s.69348-.31693.96875-.65625l4.53125-1.03125c1.80673-.54772 2.46086-4.54082 1.4375-9.03125s-3.3531-7.82045-5.21875-7.53125l-4.625,1.0625c-.34582-.13614-.70522-.19926-1.03125-.125s-.62101.25837-.875.53125l-3.0625.71875-.59375-1.875c.10582-.35618.10208-.71289 0-1.03125s-.30001-.58295-.59375-.8125l-2.25-7c-.58948-1.83871-4.69082-2.18162-9.15625-.75-.91427.29311-1.74836.65314-2.53125,1.03125-4.11301-2.18259-8.15624-2.60003-9.0625-.90625l-3.34375,6.25c-.0328-.29574-.12175-.58867-.28125-.8125-.22066-.30976-.54969-.50141-.96875-.625l-2.6875-3.8125c-1.20064-1.45697-5.15509-.4846-8.90625,2.1875-.34415.24515-.65227.49433-.96875.75l-1.21875-3.8125c-.36843-1.14919-2.12485-1.71616-4.46875-1.625z"/>
   <path d="m322.16926,385.55521c-4.20339-2.07872-8.30942-2.36121-9.16537-.63041l-3.20035,6.47141c-.3926.18965-.69061.45877-.85855.79847s-.1995.73337-.11033,1.16081l-2.77106,5.60337c-.3926.18965-.69061.45876-.85855.79847s-.20017.73413-.11085,1.16183l-2.0583,4.16209c-.71603,1.74688 1.97997,4.77053 6.10829,6.81214s8.16767,2.34881 9.12134.71946l2.11399-4.2747c.32392-.18222.56817-.42247.71644-.72218s.19489-.6477.14366-1.01695l2.88041-5.82448c.32383-.1822.56771-.42151.7159-.7212s.19489-.64769.14366-1.01694l3.25401-6.57993c.85595-1.73081-1.86086-4.82245-6.06425-6.90116z"/>
  </g>
  <g transform="translate(-29.547 172.72)">
   <path d="m294.52312,359.2387c-.0655.0204-.12651.0562-.16204.10046-.0305.038-.14017.45193-.24645.93044l-1.35285,6.08253c-1.04974,4.71875-1.15691,5.23176-1.12215,5.34678 .0325.1075.0565.1355.1556.18024l.11746.0529c3.60124-1.86725 7.61358-2.93143 12.0418-3.7933l.0567-.11472c.0985-.19948.0426-.29442-.423-.71857l-4.74015-4.34104-1.4884-1.36521-.80866-.74135-1.11168-1.01943c-.3784-.3471-.6722-.59408-.72441-.6088-.0559-.0158-.12636-.0113-.19182.009z" fill="#ff0" stroke="#ff0" stroke-linecap="round" stroke-linejoin="round" stroke-width=".603"/>
   <path d="m294.55913,359.24667c-.0655.0204-.12651.0562-.16204.10046-.0305.038-.14018.45194-.24645.93044l-1.35285,6.08253c-1.04974,4.71876-1.15692,5.23177-1.12215,5.34678 .0325.1075.0565.1355.1556.18025l.11746.0529c3.91833-2.11465 8.15615-3.05529 12.0418-3.7933l.0568-.11472c.0985-.19948.0426-.29442-.423-.71857l-4.74015-4.34104-1.4884-1.36521-.80866-.74135-1.11168-1.01943c-.3784-.3471-.6722-.59407-.72441-.6088-.0559-.0158-.12636-.0113-.19182.009zm.30239.96309c.008-.003.2064.17158.44159.38859l4.07969,3.74075c2.00878,1.84028 3.66686,3.3635 3.68406,3.38513-3.72387.88421-6.04968,1.10725-10.62308,3.35627 .001-.0222.22201-1.02728.49014-2.23353l1.12444-5.05402 .44415-2.01252c.18961-.86116.35125-1.5677.35901-1.57067zm-.16784,4.07986-.10687.13446c-.50566.64015-.67275,1.36656-.50424,2.18561l.0405.20069 .86571-.27271 .86482-.27242-.0151-.11383c-.0202-.15252.0296-.3667.11943-.51491l.0735-.121-.55967-.51246-.6692-.61236zm2.53719-.79826-.0512.22958c-.0283.1264-.11761.52471-.19741.88535l-.14413.6561 .12872.0573c.1583.0698.32189.21612.39271.3526l.0529.10193 .86481-.27243 .86572-.27271-.0764-.17356c-.33958-.77121-.89398-1.2817-1.63158-1.50292zm-.7468,2.04594c-.0774,0-.20673.0871-.28084.19743-.10806.1609-.1307.31309-.0744.49126s.19876.31199.38428.35723c.28502.0695.59826-.12111.66311-.40455 .0623-.27245-.0839-.53281-.36138-.64213-.12066-.0475-.23259-.0301-.33073.00076zm.73687,1.08776-.0988.0786c-.11611.098-.40948.19885-.6208.14004-.0678.2689-.13505.54201-.19383.8093l-.18094.809-.0369.15887 .20788.0294c.19044.0269.53726.0448.72422.009 .11814-.0226.30874-.0764.48448-.1376 .20232-.0705.61566-.26612.92051-.55006l.14139-.1315-.0837-.0744-.42872-.39165c-.50281-.46387-.83477-.74894-.83477-.74894z"/>
  </g>
  <g transform="matrix(.7356 .67742 -.67742 .7356 317.28 101.24)">
   <path d="m294.52312,359.2387c-.0655.0204-.12651.0562-.16204.10046-.0305.038-.14017.45193-.24645.93044l-1.35285,6.08253c-1.04974,4.71875-1.15691,5.23176-1.12215,5.34678 .0325.1075.0565.1355.1556.18024l.11746.0529c3.60124-1.86725 7.61358-2.93143 12.0418-3.7933l.0567-.11472c.0985-.19948.0426-.29442-.423-.71857l-4.74015-4.34104-1.4884-1.36521-.80866-.74135-1.11168-1.01943c-.3784-.3471-.6722-.59408-.72441-.6088-.0559-.0158-.12636-.0113-.19182.009z" fill="#ff0" stroke="#ff0" stroke-linecap="round" stroke-linejoin="round" stroke-width=".603"/>
   <path d="m294.55913,359.24667c-.0655.0204-.12651.0562-.16204.10046-.0305.038-.14018.45194-.24645.93044l-1.35285,6.08253c-1.04974,4.71876-1.15692,5.23177-1.12215,5.34678 .0325.1075.0565.1355.1556.18025l.11746.0529c3.91833-2.11465 8.15615-3.05529 12.0418-3.7933l.0568-.11472c.0985-.19948.0426-.29442-.423-.71857l-4.74015-4.34104-1.4884-1.36521-.80866-.74135-1.11168-1.01943c-.3784-.3471-.6722-.59407-.72441-.6088-.0559-.0158-.12636-.0113-.19182.009zm.30239.96309c.008-.003.2064.17158.44159.38859l4.07969,3.74075c2.00878,1.84028 3.66686,3.3635 3.68406,3.38513-3.72387.88421-6.04968,1.10725-10.62308,3.35627 .001-.0222.22201-1.02728.49014-2.23353l1.12444-5.05402 .44415-2.01252c.18961-.86116.35125-1.5677.35901-1.57067zm-.16784,4.07986-.10687.13446c-.50566.64015-.67275,1.36656-.50424,2.18561l.0405.20069 .86571-.27271 .86482-.27242-.0151-.11383c-.0202-.15252.0296-.3667.11943-.51491l.0735-.121-.55967-.51246-.6692-.61236zm2.53719-.79826-.0512.22958c-.0283.1264-.11761.52471-.19741.88535l-.14413.6561 .12872.0573c.1583.0698.32189.21612.39271.3526l.0529.10193 .86481-.27243 .86572-.27271-.0764-.17356c-.33958-.77121-.89398-1.2817-1.63158-1.50292zm-.7468,2.04594c-.0774,0-.20673.0871-.28084.19743-.10806.1609-.1307.31309-.0744.49126s.19876.31199.38428.35723c.28502.0695.59826-.12111.66311-.40455 .0623-.27245-.0839-.53281-.36138-.64213-.12066-.0475-.23259-.0301-.33073.00076zm.73687,1.08776-.0988.0786c-.11611.098-.40948.19885-.6208.14004-.0678.2689-.13505.54201-.19383.8093l-.18094.809-.0369.15887 .20788.0294c.19044.0269.53726.0448.72422.009 .11814-.0226.30874-.0764.48448-.1376 .20232-.0705.61566-.26612.92051-.55006l.14139-.1315-.0837-.0744-.42872-.39165c-.50281-.46387-.83477-.74894-.83477-.74894z"/>
  </g>
  <g transform="matrix(-.43706 .89943 -.89943 -.43706 750.44 502.4)">
   <path d="m294.52312,359.2387c-.0655.0204-.12651.0562-.16204.10046-.0305.038-.14017.45193-.24645.93044l-1.35285,6.08253c-1.04974,4.71875-1.15691,5.23176-1.12215,5.34678 .0325.1075.0565.1355.1556.18024l.11746.0529c3.60124-1.86725 7.61358-2.93143 12.0418-3.7933l.0567-.11472c.0985-.19948.0426-.29442-.423-.71857l-4.74015-4.34104-1.4884-1.36521-.80866-.74135-1.11168-1.01943c-.3784-.3471-.6722-.59408-.72441-.6088-.0559-.0158-.12636-.0113-.19182.009z" fill="#ff0" stroke="#ff0" stroke-linecap="round" stroke-linejoin="round" stroke-width=".603"/>
   <path d="m294.55913,359.24667c-.0655.0204-.12651.0562-.16204.10046-.0305.038-.14018.45194-.24645.93044l-1.35285,6.08253c-1.04974,4.71876-1.15692,5.23177-1.12215,5.34678 .0325.1075.0565.1355.1556.18025l.11746.0529c3.91833-2.11465 8.15615-3.05529 12.0418-3.7933l.0568-.11472c.0985-.19948.0426-.29442-.423-.71857l-4.74015-4.34104-1.4884-1.36521-.80866-.74135-1.11168-1.01943c-.3784-.3471-.6722-.59407-.72441-.6088-.0559-.0158-.12636-.0113-.19182.009zm.30239.96309c.008-.003.2064.17158.44159.38859l4.07969,3.74075c2.00878,1.84028 3.66686,3.3635 3.68406,3.38513-3.72387.88421-6.04968,1.10725-10.62308,3.35627 .001-.0222.22201-1.02728.49014-2.23353l1.12444-5.05402 .44415-2.01252c.18961-.86116.35125-1.5677.35901-1.57067zm-.16784,4.07986-.10687.13446c-.50566.64015-.67275,1.36656-.50424,2.18561l.0405.20069 .86571-.27271 .86482-.27242-.0151-.11383c-.0202-.15252.0296-.3667.11943-.51491l.0735-.121-.55967-.51246-.6692-.61236zm2.53719-.79826-.0512.22958c-.0283.1264-.11761.52471-.19741.88535l-.14413.6561 .12872.0573c.1583.0698.32189.21612.39271.3526l.0529.10193 .86481-.27243 .86572-.27271-.0764-.17356c-.33958-.77121-.89398-1.2817-1.63158-1.50292zm-.7468,2.04594c-.0774,0-.20673.0871-.28084.19743-.10806.1609-.1307.31309-.0744.49126s.19876.31199.38428.35723c.28502.0695.59826-.12111.66311-.40455 .0623-.27245-.0839-.53281-.36138-.64213-.12066-.0475-.23259-.0301-.33073.00076zm.73687,1.08776-.0988.0786c-.11611.098-.40948.19885-.6208.14004-.0678.2689-.13505.54201-.19383.8093l-.18094.809-.0369.15887 .20788.0294c.19044.0269.53726.0448.72422.009 .11814-.0226.30874-.0764.48448-.1376 .20232-.0705.61566-.26612.92051-.55006l.14139-.1315-.0837-.0744-.42872-.39165c-.50281-.46387-.83477-.74894-.83477-.74894z"/>
  </g>
  <g transform="matrix(.99995 -.01024 .01024 .99995 -7.9509 294.93)">
   <path d="m294.52312,359.2387c-.0655.0204-.12651.0562-.16204.10046-.0305.038-.14017.45193-.24645.93044l-1.35285,6.08253c-1.04974,4.71875-1.15691,5.23176-1.12215,5.34678 .0325.1075.0565.1355.1556.18024l.11746.0529c3.60124-1.86725 7.61358-2.93143 12.0418-3.7933l.0567-.11472c.0985-.19948.0426-.29442-.423-.71857l-4.74015-4.34104-1.4884-1.36521-.80866-.74135-1.11168-1.01943c-.3784-.3471-.6722-.59408-.72441-.6088-.0559-.0158-.12636-.0113-.19182.009z" fill="#ff0" stroke="#ff0" stroke-linecap="round" stroke-linejoin="round" stroke-width=".603"/>
   <path d="m294.55913,359.24667c-.0655.0204-.12651.0562-.16204.10046-.0305.038-.14018.45194-.24645.93044l-1.35285,6.08253c-1.04974,4.71876-1.15692,5.23177-1.12215,5.34678 .0325.1075.0565.1355.1556.18025l.11746.0529c3.91833-2.11465 8.15615-3.05529 12.0418-3.7933l.0568-.11472c.0985-.19948.0426-.29442-.423-.71857l-4.74015-4.34104-1.4884-1.36521-.80866-.74135-1.11168-1.01943c-.3784-.3471-.6722-.59407-.72441-.6088-.0559-.0158-.12636-.0113-.19182.009zm.30239.96309c.008-.003.2064.17158.44159.38859l4.07969,3.74075c2.00878,1.84028 3.66686,3.3635 3.68406,3.38513-3.72387.88421-6.04968,1.10725-10.62308,3.35627 .001-.0222.22201-1.02728.49014-2.23353l1.12444-5.05402 .44415-2.01252c.18961-.86116.35125-1.5677.35901-1.57067zm-.16784,4.07986-.10687.13446c-.50566.64015-.67275,1.36656-.50424,2.18561l.0405.20069 .86571-.27271 .86482-.27242-.0151-.11383c-.0202-.15252.0296-.3667.11943-.51491l.0735-.121-.55967-.51246-.6692-.61236zm2.53719-.79826-.0512.22958c-.0283.1264-.11761.52471-.19741.88535l-.14413.6561 .12872.0573c.1583.0698.32189.21612.39271.3526l.0529.10193 .86481-.27243 .86572-.27271-.0764-.17356c-.33958-.77121-.89398-1.2817-1.63158-1.50292zm-.7468,2.04594c-.0774,0-.20673.0871-.28084.19743-.10806.1609-.1307.31309-.0744.49126s.19876.31199.38428.35723c.28502.0695.59826-.12111.66311-.40455 .0623-.27245-.0839-.53281-.36138-.64213-.12066-.0475-.23259-.0301-.33073.00076zm.73687,1.08776-.0988.0786c-.11611.098-.40948.19885-.6208.14004-.0678.2689-.13505.54201-.19383.8093l-.18094.809-.0369.15887 .20788.0294c.19044.0269.53726.0448.72422.009 .11814-.0226.30874-.0764.48448-.1376 .20232-.0705.61566-.26612.92051-.55006l.14139-.1315-.0837-.0744-.42872-.39165c-.50281-.46387-.83477-.74894-.83477-.74894z"/>
  </g>
  <g transform="matrix(.68676 .72688 -.72688 .68676 379.66 194.12)">
   <path d="m294.52312,359.2387c-.0655.0204-.12651.0562-.16204.10046-.0305.038-.14017.45193-.24645.93044l-1.35285,6.08253c-1.04974,4.71875-1.15691,5.23176-1.12215,5.34678 .0325.1075.0565.1355.1556.18024l.11746.0529c3.60124-1.86725 7.61358-2.93143 12.0418-3.7933l.0567-.11472c.0985-.19948.0426-.29442-.423-.71857l-4.74015-4.34104-1.4884-1.36521-.80866-.74135-1.11168-1.01943c-.3784-.3471-.6722-.59408-.72441-.6088-.0559-.0158-.12636-.0113-.19182.009z" fill="#ff0" stroke="#ff0" stroke-linecap="round" stroke-linejoin="round" stroke-width=".603"/>
   <path d="m294.55913,359.24667c-.0655.0204-.12651.0562-.16204.10046-.0305.038-.14018.45194-.24645.93044l-1.35285,6.08253c-1.04974,4.71876-1.15692,5.23177-1.12215,5.34678 .0325.1075.0565.1355.1556.18025l.11746.0529c3.91833-2.11465 8.15615-3.05529 12.0418-3.7933l.0568-.11472c.0985-.19948.0426-.29442-.423-.71857l-4.74015-4.34104-1.4884-1.36521-.80866-.74135-1.11168-1.01943c-.3784-.3471-.6722-.59407-.72441-.6088-.0559-.0158-.12636-.0113-.19182.009zm.30239.96309c.008-.003.2064.17158.44159.38859l4.07969,3.74075c2.00878,1.84028 3.66686,3.3635 3.68406,3.38513-3.72387.88421-6.04968,1.10725-10.62308,3.35627 .001-.0222.22201-1.02728.49014-2.23353l1.12444-5.05402 .44415-2.01252c.18961-.86116.35125-1.5677.35901-1.57067zm-.16784,4.07986-.10687.13446c-.50566.64015-.67275,1.36656-.50424,2.18561l.0405.20069 .86571-.27271 .86482-.27242-.0151-.11383c-.0202-.15252.0296-.3667.11943-.51491l.0735-.121-.55967-.51246-.6692-.61236zm2.53719-.79826-.0512.22958c-.0283.1264-.11761.52471-.19741.88535l-.14413.6561 .12872.0573c.1583.0698.32189.21612.39271.3526l.0529.10193 .86481-.27243 .86572-.27271-.0764-.17356c-.33958-.77121-.89398-1.2817-1.63158-1.50292zm-.7468,2.04594c-.0774,0-.20673.0871-.28084.19743-.10806.1609-.1307.31309-.0744.49126s.19876.31199.38428.35723c.28502.0695.59826-.12111.66311-.40455 .0623-.27245-.0839-.53281-.36138-.64213-.12066-.0475-.23259-.0301-.33073.00076zm.73687,1.08776-.0988.0786c-.11611.098-.40948.19885-.6208.14004-.0678.2689-.13505.54201-.19383.8093l-.18094.809-.0369.15887 .20788.0294c.19044.0269.53726.0448.72422.009 .11814-.0226.30874-.0764.48448-.1376 .20232-.0705.61566-.26612.92051-.55006l.14139-.1315-.0837-.0744-.42872-.39165c-.50281-.46387-.83477-.74894-.83477-.74894z"/>
  </g>
  <g transform="matrix(-.02963 .99956 -.99956 -.02963 717.67 380.13)">
   <path d="m294.52312,359.2387c-.0655.0204-.12651.0562-.16204.10046-.0305.038-.14017.45193-.24645.93044l-1.35285,6.08253c-1.04974,4.71875-1.15691,5.23176-1.12215,5.34678 .0325.1075.0565.1355.1556.18024l.11746.0529c3.60124-1.86725 7.61358-2.93143 12.0418-3.7933l.0567-.11472c.0985-.19948.0426-.29442-.423-.71857l-4.74015-4.34104-1.4884-1.36521-.80866-.74135-1.11168-1.01943c-.3784-.3471-.6722-.59408-.72441-.6088-.0559-.0158-.12636-.0113-.19182.009z" fill="#ff0" stroke="#ff0" stroke-linecap="round" stroke-linejoin="round" stroke-width=".603"/>
   <path d="m294.55913,359.24667c-.0655.0204-.12651.0562-.16204.10046-.0305.038-.14018.45194-.24645.93044l-1.35285,6.08253c-1.04974,4.71876-1.15692,5.23177-1.12215,5.34678 .0325.1075.0565.1355.1556.18025l.11746.0529c3.91833-2.11465 8.15615-3.05529 12.0418-3.7933l.0568-.11472c.0985-.19948.0426-.29442-.423-.71857l-4.74015-4.34104-1.4884-1.36521-.80866-.74135-1.11168-1.01943c-.3784-.3471-.6722-.59407-.72441-.6088-.0559-.0158-.12636-.0113-.19182.009zm.30239.96309c.008-.003.2064.17158.44159.38859l4.07969,3.74075c2.00878,1.84028 3.66686,3.3635 3.68406,3.38513-3.72387.88421-6.04968,1.10725-10.62308,3.35627 .001-.0222.22201-1.02728.49014-2.23353l1.12444-5.05402 .44415-2.01252c.18961-.86116.35125-1.5677.35901-1.57067zm-.16784,4.07986-.10687.13446c-.50566.64015-.67275,1.36656-.50424,2.18561l.0405.20069 .86571-.27271 .86482-.27242-.0151-.11383c-.0202-.15252.0296-.3667.11943-.51491l.0735-.121-.55967-.51246-.6692-.61236zm2.53719-.79826-.0512.22958c-.0283.1264-.11761.52471-.19741.88535l-.14413.6561 .12872.0573c.1583.0698.32189.21612.39271.3526l.0529.10193 .86481-.27243 .86572-.27271-.0764-.17356c-.33958-.77121-.89398-1.2817-1.63158-1.50292zm-.7468,2.04594c-.0774,0-.20673.0871-.28084.19743-.10806.1609-.1307.31309-.0744.49126s.19876.31199.38428.35723c.28502.0695.59826-.12111.66311-.40455 .0623-.27245-.0839-.53281-.36138-.64213-.12066-.0475-.23259-.0301-.33073.00076zm.73687,1.08776-.0988.0786c-.11611.098-.40948.19885-.6208.14004-.0678.2689-.13505.54201-.19383.8093l-.18094.809-.0369.15887 .20788.0294c.19044.0269.53726.0448.72422.009 .11814-.0226.30874-.0764.48448-.1376 .20232-.0705.61566-.26612.92051-.55006l.14139-.1315-.0837-.0744-.42872-.39165c-.50281-.46387-.83477-.74894-.83477-.74894z"/>
  </g>
  <g transform="translate(53.538 172.59)">
   <path d="m284.15 381.62c1.2812-0.26182 1.9085-0.6685 3.4486-1.055 3.4764-3.9839 2.958-5.4177 3.9159-7.794-1.9722-3.9505-3.5051-6.3794-4.1518-5.74-1.6369 1.1798-2.5915 2.5484-3.5333 3.9204 0.10045 0.71446-0.5433 1.6851-0.11193 2.3414-2.1803 2.0676-1.704 2.6336-2.988 4.3008 0.84391 1.3274 2.2862 3.3727 3.4206 4.0264z"/>
   <path d="m295.74594,401.70565c-.21981-1.58604-.39181-3.188 0-4.97791 .76014.0728.89989-.13011 2.48896.31111-.35943-.93336-.15658-1.86671.31112-2.80007 .93763-.0648 1.64912-.22659 3.26675,0 4.80181.56886 5.02889.8435 7.62243,2.33339-.22734.82302-.55149,1.61375-1.08892,2.3334 .48866,1.70016.25963,3.75918.15556,5.75571-.24706.8489-1.14679,1.53465-2.21673,2.17784-1.31932-.19151-2.43733-.18173-3.65565-.27224-.25189.81669-1.40423,1.63338-2.21673,2.45007-1.05678-.43284-1.93128-.37958-3.26675-1.5556 .0125-1.25344-.26876-2.7027.31112-3.57787-1.07125-.53812-1.46093-1.33183-1.71116-2.17783z"/>
   <path d="m328.9 444.83c5.0782-4.0463 5.284-3.6712 7.926-5.5068-1.8475-2.7574-3.9317-4.7564-6.1967-6.1761-1.0621 1.016-1.7983 2.1288-2.106 3.3689-0.84981-0.8918-2.1291-1.4852-3.3689-2.106-0.78689 0.57077-1.5045 1.4626-1.9572 3.5832-4.87 4.6546-3.2606 3.5359-4.8908 5.3038 0.59352 0.86047 1.097 1.8851 2.0656 2.0587 1.9664 0.96938 1.9134 1.7124 2.7263 2.5525 1.5687-1.0812 3.1609-2.2884 4.582-2.5482 0.41378-0.12723 0.94575 0.56318 1.2199-0.52995z"/>
   <path d="m319.4 485.82c0.84179-2.6258 1.6836-7.3558 2.5254-6.8185 2.1748 0.21737 2.9132 1.153 3.7881 2.0203 2.6268-0.60645 4.2963-0.25571 6.3134-0.25254 2.5828-0.33361 4.2152 0.44175 5.8084 1.2627 1.5481-1.8995 4.2478-3.1082 6.566-4.5457 2.9463 0.7334 5.8926 0.78632 8.8388 2.2728 1.4006 1.5152 2.2161 3.0304 2.7779 4.5457 2.4453 1.8312 4.9625 3.3033 7.5761 4.2932 1.4668 0.37503 2.7333 1.9516 4.0406 3.283 4.0369-0.84165 0.69646-4.0962 9.849-3.283 1.9217 1.3549 3.129 3.1067 3.5355 5.3033 1.4054 0.86745 2.5428 2.0029 2.7779 4.0406 0.9261 2.3572 0.41816 3.2803-1.0102 3.283h-59.346l-10.354-6.8185 2.5254-6.3135c1.1963-0.8682 2.1342-2.1672 3.7881-2.2728z"/>
   <path d="m298.31 420.43c1.6099-1.0703 3.2622-2.0968 5.4144-2.6087 0.31918 0.86495 0.61311 0.91061 0.96596 2.8702 0.82685-0.88009 1.9484-1.1486 3.2086-1.129 0.56185 0.98589 1.1107 1.675 1.712 3.5532 1.8977 5.521 1.7179 5.9119 1.4566 9.5136-1.0143 0.18404-2.0443 0.24585-3.1087 0.0384-1.5932 1.4225-3.9528 2.2524-6.1789 3.1855-1.0528 0.17615-2.2702-0.44311-3.5305-1.2698-0.48308-1.5354-1.0796-2.7463-1.6196-4.1189-1.0203 0.15401-2.5125-0.67138-3.8266-1.1271-0.0831-1.3763-0.59923-2.2996-0.0199-4.3684 1.3699-0.64328 2.7988-1.7087 4.0546-1.5366 0.0239-1.4472 0.68301-2.287 1.472-3.0025z"/>
   <path d="m316.96 475.71c1.2812-0.26182 1.9085-0.6685 3.4486-1.055 3.4764-3.9839 2.958-5.4177 3.9159-7.794-1.9722-3.9505-3.5051-6.3794-4.1518-5.74-1.6369 1.1798-2.5915 2.5484-3.5333 3.9204 0.10045 0.71446-0.5433 1.6851-0.11193 2.3414-2.1803 2.0676-1.704 2.6336-2.988 4.3008 0.84391 1.3274 2.2862 3.3727 3.4206 4.0264z"/>
  </g>
 </g>
</svg>
