<?xml version='1.0' encoding='utf-8'?>
<svg xmlns="http://www.w3.org/2000/svg" version="1.1" width="4096.00" height="4096.00" viewBox="0 0 4096.0 4096.0"> <g id="document" transform="scale(13.653333333333334 13.653333333333334) translate(150.0 150.0)"> <path d="M-7.65759,-124.362 L-97.0738,-124.362 C-108.218,-124.362 -117.16,-115.42 -117.16,-104.276 L-117.16,-29.6326 C-117.16,-18.488 -110.681,124.362 -99.536,124.362 L-10.1198,124.362 C1.02485,124.362 12.2991,-18.488 12.2991,-29.6326 L12.2991,-104.276 C11.9103,-115.42 3.09827,-124.362 -7.65759,-124.362 Z M-19.7093,-77.5804 L-85.1516,-77.5804 C-90.4648,-77.5804 -95.0004,-81.9864 -95.0004,-87.4292 C-95.0004,-92.8719 -90.5943,-97.2779 -85.1516,-97.2779 L-19.9685,-97.2779 C-14.6554,-97.2779 -10.1198,-92.8719 -10.1198,-87.4292 C-10.2494,-82.116 -14.2666,-77.5804 -19.7093,-77.5804 Z " fill="#21426f" fill-opacity="1.00"/> <path d="M93.3073,-76.7198 C79.9289,-26.1384 57.1122,-3.87158 2.68221,14.6383 " fill="none" stroke-width="4.23" stroke="#21426f" stroke-linecap="square" stroke-linejoin="miter"/> <path d="M103.27,-76.7198 C104.979,-76.7198 106.359,-78.1292 106.389,-79.8085 L106.389,-99.6002 C106.389,-101.309 105.009,-102.719 103.27,-102.719 L83.4782,-102.719 C81.7689,-102.719 80.3595,-101.339 80.3595,-99.6002 L80.3595,-79.8385 C80.3595,-78.1292 81.7389,-76.7198 83.4782,-76.7198 L103.27,-76.7198 Z " fill="#21426f" fill-opacity="1.00"/> <path d="M88.3996,-102.517 L88.3996,-112.573 L86.3953,-112.573 L86.3953,-102.517 L88.3996,-102.517 Z " fill="#21426f" fill-opacity="1.00"/> <path d="M100.127,-102.517 L100.127,-112.573 L98.1229,-112.573 L98.1229,-102.517 L100.127,-102.517 Z " fill="#21426f" fill-opacity="1.00"/> <path d="M-52.4305,26.5901 C-37.8959,26.5901 -26.1297,14.8239 -26.1297,0.289328 C-26.1297,-14.2453 -37.8959,-26.0114 -52.4305,-26.0114 C-66.9651,-26.0114 -78.7312,-14.2453 -78.7312,0.289328 C-78.7312,14.8239 -66.9651,26.5901 -52.4305,26.5901 Z " fill="#eef5ff" fill-opacity="1.00"/> <path d="M-43.5915,-1.97781 L-50.766,-1.97781 L-48.958,-14.0596 L-61.2694,2.52777 L-53.1192,2.52777 L-55.9029,14.6383 L-43.5915,-1.97781 Z " fill="#21426f" fill-opacity="1.00" stroke-width="0.04" stroke="#ffffff" stroke-linecap="square" stroke-linejoin="miter"/> <path d="M-26.3007,-105.558 L-78.5602,-105.558 C-93.1322,-105.558 -104.861,-93.8293 -104.861,-79.2573 C-104.861,-64.6853 -93.1322,-52.9566 -78.5602,-52.9566 L-26.3007,-52.9566 C-11.7287,-52.9566 1.40803e-07,-64.6853 -7.15187e-08,-79.2573 C-2.82545e-07,-93.7405 -11.7287,-105.558 -26.3007,-105.558 Z " fill="#3162a6" fill-opacity="1.00"/> </g> </svg>