<?xml version="1.0" encoding="UTF-8"?>
<svg viewBox="0 0 744.09447 1052.362179" xmlns="http://www.w3.org/2000/svg">
 <path d="m186 154.22v133.16h266.59v-24.062h4.2813v24.062h41.906v-13.938h5.3438v-17.969h-5.25v-62.156h5.25v-39.094h-318.12z" fill="#16502d"/>
 <path d="m226.87 272.61h56.429v15h-56.429z" fill="#fff"/>
 <path d="m182.58 206.18h33.929v43.214h-33.929z" fill="#1a1a1a"/>
 <path d="m150.77 58.268h32.143v4.8847h-32.143z" fill="#808080"/>
 <path d="m179.01 58.322h4.2857v290.72h-4.2857z" fill="#808080"/>
 <path d="m396.82 166.41h83.482l-0.5275-0.7109h-83.473l0.519 0.7109z" fill="#808080" fill-rule="evenodd"/>
 <path d="m427.07 162.03s-0.1957 2.0402-0.1957 4.2097 0.1957 4.4682 0.1957 4.4682h21.551s0.4765-2.2341 0.4765-4.4036-0.4765-4.2743-0.4765-4.2743h-21.551z" fill-rule="evenodd" stroke="#000" stroke-miterlimit="10" stroke-width=".0089"/>
 <path d="m426.98 163.16h21.823l0.2212 1.1909h-22.096l0.0511-1.1909z" fill="#212121" fill-rule="evenodd"/>
 <path d="m443.6014,162.0294c-.1704,1.2647-.2382,2.5941-.2382,4.062 0,1.4494.0933,2.9634.2808,4.6159h3.3775c-.1869-1.6525-.2808-3.1665-.2808-4.6159 0-1.4679.0683-2.7972.2382-4.062h-3.3775z" fill="#c0c0c0" fill-rule="evenodd"/>
 <path d="m416.1771,265.8548v-4.4583c0-.9318 1.5778-1.684 3.5182-1.684h22.013c1.9403,0 3.5179.7522 3.5179,1.684v4.4583l-.5277.2528v-4.4796c0-.9318-1.5398-1.6901-3.4292-1.6901h-21.1348c-1.8897,0-3.4292.7583-3.4292,1.6901v4.4796l-.5282-.2528z" fill="#808080" fill-rule="evenodd"/>
 <path d="m437.1845,257.7062h-12.9976c.0127-.1569.0634-.3251.1018-.4596 .0318-.1681.07-.3138.1654-.4371 .0952-.1457.2227-.3587.3817-.3811 .1336-.0336.2799.0336.439.1569 .1336.0784.159.3363.4453.4707 .2738.1233.7891.1569 1.2277.2242 .4263.0224.2799.0336 1.3808.0336 1.1135,0 3.9701-.0112 5.1851-.0336 1.1835-.0224 1.4507-.0897 1.9277-.1569 .4453-.1009.5917-.3251.808-.3699 .1909-.1121.3056-.1457.439-.1009 .1209.0336.2288.1569.3245.325 .07.1233.0891.2802.1271.4259 .0322.1121.0383.2129.0445.3026z" fill="#8d5c25" fill-rule="evenodd"/>
 <path d="m424.16 257.95h13.08l0.1658 0.6613h-13.418l0.1718-0.6613z" fill="#b0722e" fill-rule="evenodd"/>
 <path d="m428.1249,256.3612c-.038,1.1433-.0445,2.3762-.0445,3.6988-.0062,1.3226.0193,2.7013.0511,4.1808h.6362c-.0445-1.4795-.0634-2.8582-.0573-4.1808 0-1.3226.0062-2.5555.0445-3.6988h-.63z" fill="#1d0e82" fill-rule="evenodd"/>
 <path d="m429.1048,256.3612c-.0383,1.1433-.0445,2.3762-.0445,3.6988-.0065,1.3226.0189,2.7013.0507,4.1808h.6362c-.0445-1.4795-.0634-2.8582-.0569-4.1808 0-1.3226.0062-2.5555.0445-3.6988h-.63z" fill="#fb0f0c" fill-rule="evenodd"/>
 <path d="m430.0019,256.3612c-.0383,1.1433-.0445,2.3762-.0445,3.6988-.0065,1.3226.0189,2.7013.0507,4.1808h.6362c-.0445-1.4795-.0634-2.8582-.0573-4.1808 0-1.3226.0065-2.5555.0445-3.6988h-.6297z" fill="#fb0f0c" fill-rule="evenodd"/>
 <path d="m433.3356,256.3612c.0318,1.1433.0384,2.3762.0445,3.6988 0,1.3226-.0256,2.7013-.0507,4.1808h-.6366c.0256-1.4795.0511-2.8582.0511-4.1808-.0065-1.3226-.0127-2.5555-.0445-3.6988h.6362z" fill="#fb0f0c" fill-rule="evenodd"/>
 <path d="m432.3877,256.3612c.0318,1.1433.038,2.3762.0445,3.6988 0,1.3226-.0256,2.7013-.0511,4.1808h-.6362c.0256-1.4795.0511-2.8582.0511-4.1808-.0065-1.3226-.0127-2.5555-.0445-3.6988h.6362z" fill="#f0a04a" fill-rule="evenodd"/>
 <path d="m478.42 172.48h9.573c1.9928 0 3.6068 1.4369 3.6068 3.2041v13.749c0 1.7672-1.614 3.1982-3.6068 3.1982h-9.573l-0.5424-0.4806h9.6122c1.9995 0 3.6266-1.3967 3.6266-3.123v-12.944c0-1.721-1.6273-3.123-3.6266-3.123h-9.6122l0.5424-0.4811z" fill="#808080" fill-rule="evenodd"/>
 <path d="m480.8289,184.4414c.0065.116.0196.226.0392.3304 .0196.0924.0653.1795.1111.2839 .0719.0983.2091.2316.2614.3766s.1307.3127.0849.4983c-.0065.1738-.0653.4115-.2026.5794-.1372.1622-.3529.3014-.5685.4172-.2026.0755-.3725.116-.5816.1912-.1895.0755-.4247.151-.5816.313-.1307.1449-.2222.3476-.2483.6082h-.2418c-.0194-.2606-.1109-.4634-.2483-.6082-.1438-.1622-.3725-.2377-.5814-.313-.2026-.0752-.3727-.1157-.5816-.1912-.196-.1157-.4119-.2549-.5685-.4172-.1243-.1679-.1832-.4056-.2026-.5794-.0263-.1854.0523-.3592.0849-.4983 .0719-.1449.2091-.2783.2612-.3766 .0588-.1043.1046-.1914.1111-.2839 .0263-.1043.0392-.2144.0392-.3304v-4.1428c0-.1217-.0129-.2316-.0392-.3304-.0065-.104-.0523-.1912-.1111-.2839-.0521-.1101-.1895-.2433-.2612-.3766-.0327-.1507-.1111-.3245-.0849-.4983 .0194-.1795.0784-.4344.2026-.5854 .1566-.1738.3725-.3185.5685-.4112 .2089-.0927.379-.1333.5816-.1914 .2089-.0924.4376-.1679.5814-.3127 .1374-.1566.2289-.3592.2483-.6082h.2418c.0263.249.1176.4518.2483.6082 .1568.1449.3921.2203.5816.3127 .2091.0581.379.0987.5816.1914 .2156.0927.4313.2374.5685.4112 .1372.151.196.4058.2026.5854 .0457.1738-.0327.3476-.0849.4983-.0523.1333-.1895.2665-.2614.3766-.0457.0927-.0915.1798-.1111.2839s-.0327.2088-.0392.3304v4.1428z" fill="#6d2203" fill-rule="evenodd"/>
 <path d="m478.7153,185.5542v-9.3459c.085.0116.1307.0349.2091.0695s.1372.0406.2024.1217c.0719.0521.1634.1738.1766.2783 .0392.0927-.0263.1972-.0719.3127-.0392.0927-.1632.116-.2222.3187-.0392.2144-.0719.5388-.098.8809-.0131.3127-.0196.1912-.0196.9964 0,.7997.0065,2.8565.0196,3.7314 .0261.8403.0327,1.0547.0719,1.379 .0588.3245.1243.4231.1701.5854 .0392.1333.0719.2144.0457.3127-.0196.0871-.0786.1738-.1503.2377-.0392.0462-.1372.0695-.196.0927-.0525.0172-.0982.0344-.1374.0288z" fill="#8d5c25" fill-rule="evenodd"/>
 <path d="m479.1708,176.7477v9.4154l-.3004.1104v-9.6473l.3004.1215z" fill="#b0722e" fill-rule="evenodd"/>
 <path d="m479.1949,182.1622c-.5358-.0233-1.078-.0406-1.6988-.029-.5947,0-1.2352.0116-1.9213.0346v.4581c.6861-.0233 1.3267-.0349 1.9213-.0349 .6208-.0116 1.1629.0056 1.6988.029v-.4577z" fill="#1d0e82" fill-rule="evenodd"/>
 <path d="m479.9007,182.1635c-.5358-.0233-1.078-.0349-1.6988-.0349-.5947,0-1.2352.006-1.9213.0406v.4577c.6861-.0346 1.3267-.0405 1.9213-.0405 .6208,0 1.163.0116 1.6988.0349v-.4577z" fill="#fb0f0c" fill-rule="evenodd"/>
 <path d="m480.5449,182.1624c-.5358-.0233-1.078-.0406-1.6988-.0293-.5946,0-1.2352.0116-1.9213.0349v.4577c.6861-.0346 1.3267-.0405 1.9213-.0405 .6208,0 1.163.0116 1.6988.0349v-.4577z" fill="#fb0f0c" fill-rule="evenodd"/>
 <path d="m482.5166,182.5891c-.5358.0175-1.078.0293-1.6988.0349-.5947-.0056-1.2352-.0116-1.9213-.0405v-.4521c.6861.0175 1.3267.0293 1.9213.0349 .6208.0056 1.163-.0116 1.6988-.029v.4518z" fill="#fb0f0c" fill-rule="evenodd"/>
 <path d="m481.8335,182.5944c-.5358.0172-1.078.0349-1.6988.029l-1.9213-.0346v-.4581c.6861.0293 1.3267.0349 1.9213.0406l1.6988-.0346v.4577z" fill="#f0a04a" fill-rule="evenodd"/>
 <path d="m209.1601,165.3412c0-3.1146-2.1413-5.6341-4.7864-5.6341-2.6394,0-4.7807,2.5195-4.7807,5.6341-.0057.4808-.0057.9044.063,1.2936 .0515.3836.1431.6987.2748,1.0306 .0973.3206.2863.6185.4122.893 .126.2634.2863.5097.3034.7157 0,.1891-.166.3265-.2805.4983-.1317.1659-.3435.2976-.458.4868-.1317.1659-.1947.3321-.2519.5667-.0515.2118-.0744.5153-.0687.7558-.0114.2177-.0114.4181 0,.5784h.6069v-.5384c-.0057-.1027-.0229-.1889.0114-.3031 .0114-.1317.0229-.2063.1202-.355 .0973-.1662.2462-.3895.4237-.5153 .1431-.1372.3149-.2349.5382-.2289 .229-.0114.5267.1489.8073.2405 .2576.0916.4924.1889.7271.292 .2233.0857.3664.1258.6298.1832 .2519.0342.5668.0401.9218.0401s.6641-.0059.9275-.0401c.2691-.0574.3836-.0975.6298-.1832 .229-.1031.4638-.2004.7271-.292s.5554-.2519.8015-.2405c.2118-.0059.3779.0916.5439.2289 .166.1258.3149.3491.4237.5153 .0802.1489.0916.2233.1202.355 .0286.1143.0114.2004.0114.3031v.5384h.6069c.0057-.1603.0057-.3607 0-.5784-.0114-.2405-.0343-.5439-.0687-.7558-.0515-.2346-.1431-.4008-.2519-.5667-.1317-.1891-.3435-.3209-.458-.4868-.1374-.1718-.2805-.309-.2748-.4983 0-.206.1718-.4523.2977-.7157 .1088-.2747.2977-.5725.4122-.893 .1145-.3321.2061-.647.2748-1.0306 .063-.3892.063-.8128.063-1.2936z" fill="#c37f33" fill-rule="evenodd"/>
 <path d="m204.3736,160.8523c-.458,0-.9332.1603-1.3397.3491-.4065.1718-.8359.4351-1.1107.6815-.3034.223-.6069.5153-.6241.6983-.0172.1603.166.4122.5267.355 .3493-.0802.8989-.5668 1.5172-.687 .6069-.1143 1.4428-.1143 2.0669,0 .6069.1202 1.1565.6069 1.5172.687 .3435.0571.5267-.1948.5267-.355-.0286-.1829-.3321-.4752-.6241-.6983-.2863-.2464-.7157-.5097-1.1107-.6815-.418-.1888-.9103-.3491-1.3455-.3491z" fill="#d18836" fill-rule="evenodd"/>
 <path d="m204.3736,169.9673c-.458-.0231-.9332-.1662-1.3397-.3435-.4065-.1891-.8359-.4467-1.1107-.6815-.3034-.246-.6069-.5325-.6241-.7042-.0172-.1773.166-.4178.5267-.3491 .3493.0687.8989.538 1.5172.6812 .6069.1088 1.4428.1088 2.0669,0 .6069-.1431 1.1565-.6126 1.5172-.6812 .3435-.0687.5267.1718.5267.3491-.0286.1718-.3321.4582-.6241.7042-.2863.2349-.7157.4924-1.1107.6815-.418.1773-.9103.3205-1.3455.3435z" fill="#b0722e" fill-rule="evenodd"/>
 <path d="m199.59 171.26v12.399l0.6069-0.7201v-11.678h-0.6069z" fill="#808080" fill-rule="evenodd"/>
 <path d="m208.56 172.16v11.537l0.6069-0.67v-10.867h-0.6069z" fill="#808080" fill-rule="evenodd"/>
 <path d="m223.4678,165.3412c0-3.1146-2.1413-5.6341-4.7864-5.6341-2.6394,0-4.7807,2.5195-4.7807,5.6341-.0057.4808-.0057.9046.063,1.2938 .0515.3836.1431.6987.2748,1.0306 .1088.3206.2748.6185.4065.893s.2863.4983.3034.7101c-.0114.1832-.1546.3435-.2748.5038-.126.1659-.355.2976-.4638.4868-.126.1659-.2004.3321-.2462.5667-.063.2118-.0573.5153-.0687.7558-.0114.2177-.0114.4181 0,.5784h.6069v-.5384c-.0057-.1027-.0229-.1889.0114-.3031 .0115-.1317.0229-.2063.1202-.355 .0973-.1662.2462-.3895.4237-.5153 .1431-.1372.3149-.2349.5382-.2289 .2233-.0114.5439.1489.8073.2405 .2519.0916.4924.1889.7214.292 .2233.0857.3607.1258.6355.1832 .2519.0342.5668.0401.9218.0401s.6641-.0059.9218-.0401c.2576-.0574.395-.0975.6355-.1832 .229-.1031.4638-.2004.7271-.292s.5554-.2519.8015-.2405c.2118-.0059.3779.0916.5439.2289 .1718.1258.3034.3491.418.5153 .0802.1489.0916.2233.1202.355 .0172.1143.0229.2004.0172.3031v.5384h.6069c.0057-.1603.0057-.3607 0-.5784-.0115-.2405-.0344-.5439-.0687-.7558-.0515-.2346-.1431-.4008-.2519-.5667-.1317-.1891-.3435-.3209-.458-.4868-.1317-.1603-.292-.3206-.2806-.5038 .0057-.2118.166-.4407.3034-.7101 .1088-.2747.2977-.5725.4122-.893 .1145-.3321.2061-.647.2748-1.0306 .0573-.3892.0687-.8128.0573-1.2938h.0057z" fill="#404040" fill-rule="evenodd"/>
 <path d="m218.6814,160.8523c-.4523,0-.9447.1603-1.3455.3491-.4065.1718-.8359.4351-1.1107.6815-.3149.223-.5954.5153-.6183.6983-.0114.1603.1546.4122.521.355 .3435-.0802.9103-.5668 1.523-.687 .6069-.1143 1.4428-.1143 2.0669,0 .6069.1202 1.1565.6069 1.5172.687 .3435.0571.5267-.1948.5267-.355-.0286-.1829-.3321-.4752-.6241-.6983-.2863-.2464-.7157-.5097-1.1107-.6815-.418-.1888-.9103-.3491-1.3455-.3491z" fill="#616161" fill-rule="evenodd"/>
 <path d="m218.6814,169.9673c-.4523-.0231-.9447-.1662-1.3455-.3435-.4065-.1891-.8359-.4467-1.1107-.6815-.3149-.246-.5954-.5325-.6183-.7042-.0114-.1773.1546-.4178.521-.3491 .3435.0687.9103.538 1.523.6812 .6069.1088 1.4428.1088 2.0669,0 .6069-.1431 1.1565-.6126 1.5172-.6812 .3435-.0687.5267.1718.5267.3491-.0286.1718-.3321.4582-.6241.7042-.2863.2349-.7157.4924-1.1107.6815-.418.1773-.9103.3205-1.3455.3435z" fill-rule="evenodd"/>
 <path d="m213.9 172.16v11.537l0.6069-0.67v-10.867h-0.6069z" fill="#808080" fill-rule="evenodd"/>
 <path d="m222.87 172.16v11.537l0.6069-0.67v-10.867h-0.6069z" fill="#808080" fill-rule="evenodd"/>
 <path d="m476.0722,257.6772c0-3.1146-2.1413-5.6341-4.7864-5.6341-2.6394,0-4.7807,2.5195-4.7807,5.6341-.0057.4808-.0057.9044.063,1.2936 .0515.3836.1431.6987.2748,1.0306 .0973.3206.2863.6185.4122.893 .126.2634.2863.5097.3034.7157 0,.1891-.166.3265-.2805.4983-.1317.1659-.3435.2976-.458.4868-.1317.1659-.1947.3321-.2519.5666-.0515.2118-.0744.5153-.0687.7558-.0114.2177-.0114.4181 0,.5784h.6069v-.5383c-.0057-.1027-.0229-.1889.0115-.3031 .0114-.1317.0229-.2063.1202-.355 .0973-.1662.2462-.3895.4237-.5153 .1431-.1372.3149-.2349.5382-.2289 .229-.0114.5267.1489.8073.2405 .2576.0916.4924.1889.7271.292 .2233.0857.3664.1258.6298.1832 .2519.0342.5668.0401.9218.0401s.6641-.0059.9275-.0401c.2691-.0574.3836-.0975.6298-.1832 .229-.1031.4637-.2004.7271-.292s.5554-.2519.8016-.2405c.2118-.0059.3779.0916.5439.2289 .166.1258.3149.3491.4237.5153 .0802.1489.0916.2233.1202.355 .0286.1143.0115.2004.0115.3031v.5383h.6069c.0057-.1603.0057-.3607 0-.5784-.0114-.2405-.0343-.5439-.0687-.7558-.0515-.2346-.1431-.4008-.2519-.5666-.1317-.1891-.3435-.3209-.458-.4868-.1374-.1718-.2806-.309-.2748-.4983 0-.206.1718-.4523.2977-.7157 .1088-.2747.2977-.5725.4122-.893 .1145-.3321.2061-.647.2748-1.0306 .063-.3892.063-.8128.063-1.2936z" fill="#c37f33" fill-rule="evenodd"/>
 <path d="m471.2858,253.1884c-.458,0-.9332.1603-1.3397.3491-.4065.1718-.8359.4351-1.1107.6815-.3034.223-.6069.5153-.6241.6983-.0172.1603.166.4122.5267.355 .3492-.0802.8989-.5668 1.5172-.687 .6069-.1143 1.4428-.1143 2.0669,0 .6069.1202 1.1565.6069 1.5172.687 .3435.0571.5267-.1948.5267-.355-.0286-.1829-.3321-.4752-.6241-.6983-.2863-.2464-.7157-.5097-1.1107-.6815-.418-.1888-.9103-.3491-1.3455-.3491z" fill="#d18836" fill-rule="evenodd"/>
 <path d="m471.2858,262.3033c-.458-.0231-.9332-.1662-1.3397-.3435-.4065-.1891-.8359-.4467-1.1107-.6815-.3034-.246-.6069-.5325-.6241-.7042-.0172-.1773.166-.4178.5267-.3491 .3492.0687.8989.538 1.5172.6812 .6069.1088 1.4428.1088 2.0669,0 .6069-.1431 1.1565-.6126 1.5172-.6812 .3435-.0687.5267.1718.5267.3491-.0286.1718-.3321.4582-.6241.7042-.2863.2349-.7157.4924-1.1107.6815-.418.1773-.9103.3205-1.3455.3435z" fill="#b0722e" fill-rule="evenodd"/>
 <path d="m466.5 264.5v11.537l0.6069-0.67v-10.867h-0.6069z" fill="#808080" fill-rule="evenodd"/>
 <path d="m475.47 264.5v11.537l0.6069-0.67v-10.867h-0.6069z" fill="#808080" fill-rule="evenodd"/>
 <path d="m485.5935,253.1884c-.4523,0-.9447.1603-1.3455.3491-.4065.1718-.8359.4351-1.1107.6815-.3149.223-.5954.5153-.6183.6983-.0114.1603.1546.4122.521.355 .3435-.0802.9103-.5668 1.5229-.687 .6069-.1143 1.4428-.1143 2.0669,0 .6069.1202 1.1565.6069 1.5172.687 .3435.0571.5267-.1948.5267-.355-.0286-.1829-.3321-.4752-.6241-.6983-.2863-.2464-.7157-.5097-1.1107-.6815-.418-.1888-.9103-.3491-1.3455-.3491z" fill="#616161" fill-rule="evenodd"/>
 <path d="m485.5935,262.3033c-.4523-.0231-.9447-.1662-1.3455-.3435-.4065-.1891-.8359-.4467-1.1107-.6815-.3149-.246-.5954-.5325-.6183-.7042-.0114-.1773.1546-.4178.521-.3491 .3435.0687.9103.538 1.5229.6812 .6069.1088 1.4428.1088 2.0669,0 .6069-.1431 1.1565-.6126 1.5172-.6812 .3435-.0687.5267.1718.5267.3491-.0286.1718-.3321.4582-.6241.7042-.2863.2349-.7157.4924-1.1107.6815-.418.1773-.9103.3205-1.3455.3435z" fill-rule="evenodd"/>
 <path d="m480.81 264.5v11.537l0.6069-0.67v-10.867h-0.6069z" fill="#808080" fill-rule="evenodd"/>
 <path d="m239.37 205.47h70v27.143h-70z" fill="#1a1a1a"/>
 <path d="m244.73 161.9h96.429v22.857h-96.429z" fill="#fff"/>
 <path d="m391.43 214.19h45.078v41.542h-45.078z" fill="#ff0"/>
 <path d="m391.66 214.61h44.286v40.714h-44.286z" fill="#1a1a1a"/>
 <path d="m451.69 197.79h30.714v30.536h-30.714z" fill="#ff0"/>
 <path d="m452.05 197.97h30v30h-30z" fill="#1a1a1a"/>
 <path d="m241.69 231.9h0.8929v3.9286h-0.8929z" fill="#999"/>
 <path d="m244.1 231.9h0.8929v3.9286h-0.8929z" fill="#999"/>
 <path d="m246.6 231.9h0.8929v3.9286h-0.8929z" fill="#999"/>
 <path d="m249.14 231.9h0.8929v3.9286h-0.8929z" fill="#999"/>
 <path d="m251.56 231.9h0.8929v3.9286h-0.8929z" fill="#999"/>
 <path d="m254.06 231.9h0.8929v3.9286h-0.8929z" fill="#999"/>
 <path d="m256.64 231.9h0.8929v3.9286h-0.8929z" fill="#999"/>
 <path d="m259.06 231.9h0.8929v3.9286h-0.8929z" fill="#999"/>
 <path d="m261.56 231.9h0.8929v3.9286h-0.8929z" fill="#999"/>
 <path d="m263.63 231.9h0.8929v3.9286h-0.8929z" fill="#999"/>
 <path d="m266.04 231.9h0.8929v3.9286h-0.8929z" fill="#999"/>
 <path d="m268.54 231.9h0.8929v3.9286h-0.8929z" fill="#999"/>
 <path d="m271.09 231.9h0.8929v3.9286h-0.8929z" fill="#999"/>
 <path d="m273.5 231.9h0.8929v3.9286h-0.8929z" fill="#999"/>
 <path d="m276 231.9h0.8929v3.9286h-0.8929z" fill="#999"/>
 <path d="m278.59 231.9h0.8929v3.9286h-0.8929z" fill="#999"/>
 <path d="m281 231.9h0.8929v3.9286h-0.8929z" fill="#999"/>
 <path d="m283.5 231.9h0.8929v3.9286h-0.8929z" fill="#999"/>
 <path d="m286.29 231.9h0.8929v3.9286h-0.8929z" fill="#999"/>
 <path d="m288.7 231.9h0.8929v3.9286h-0.8929z" fill="#999"/>
 <path d="m291.2 231.9h0.8929v3.9286h-0.8929z" fill="#999"/>
 <path d="m293.74 231.9h0.8929v3.9286h-0.8929z" fill="#999"/>
 <path d="m296.15 231.9h0.8929v3.9286h-0.8929z" fill="#999"/>
 <path d="m298.65 231.9h0.8929v3.9286h-0.8929z" fill="#999"/>
 <path d="m301.24 231.9h0.8929v3.9286h-0.8929z" fill="#999"/>
 <path d="m303.65 231.9h0.8929v3.9286h-0.8929z" fill="#999"/>
 <path d="m306.15 231.9h0.8929v3.9286h-0.8929z" fill="#999"/>
 <path d="m241.51 201.9h0.8929v3.9286h-0.8929z" fill="#999"/>
 <path d="m243.92 201.9h0.8929v3.9286h-0.8929z" fill="#999"/>
 <path d="m246.42 201.9h0.8929v3.9286h-0.8929z" fill="#999"/>
 <path d="m248.97 201.9h0.8929v3.9286h-0.8929z" fill="#999"/>
 <path d="m251.38 201.9h0.8929v3.9286h-0.8929z" fill="#999"/>
 <path d="m253.88 201.9h0.8929v3.9286h-0.8929z" fill="#999"/>
 <path d="m256.47 201.9h0.8929v3.9286h-0.8929z" fill="#999"/>
 <path d="m258.88 201.9h0.8929v3.9286h-0.8929z" fill="#999"/>
 <path d="m261.38 201.9h0.8929v3.9286h-0.8929z" fill="#999"/>
 <path d="m263.45 201.9h0.8929v3.9286h-0.8929z" fill="#999"/>
 <path d="m265.86 201.9h0.8929v3.9286h-0.8929z" fill="#999"/>
 <path d="m268.36 201.9h0.8929v3.9286h-0.8929z" fill="#999"/>
 <path d="m270.91 201.9h0.8929v3.9286h-0.8929z" fill="#999"/>
 <path d="m273.32 201.9h0.8929v3.9286h-0.8929z" fill="#999"/>
 <path d="m275.82 201.9h0.8929v3.9286h-0.8929z" fill="#999"/>
 <path d="m278.41 201.9h0.8929v3.9286h-0.8929z" fill="#999"/>
 <path d="m280.82 201.9h0.8929v3.9286h-0.8929z" fill="#999"/>
 <path d="m283.32 201.9h0.8929v3.9286h-0.8929z" fill="#999"/>
 <path d="m286.11 201.9h0.8929v3.9286h-0.8929z" fill="#999"/>
 <path d="m288.52 201.9h0.8929v3.9286h-0.8929z" fill="#999"/>
 <path d="m291.02 201.9h0.8929v3.9286h-0.8929z" fill="#999"/>
 <path d="m293.56 201.9h0.8929v3.9286h-0.8929z" fill="#999"/>
 <path d="m295.98 201.9h0.8929v3.9286h-0.8929z" fill="#999"/>
 <path d="m298.48 201.9h0.8929v3.9286h-0.8929z" fill="#999"/>
 <path d="m301.06 201.9h0.8929v3.9286h-0.8929z" fill="#999"/>
 <path d="m303.48 201.9h0.8929v3.9286h-0.8929z" fill="#999"/>
 <path d="m305.98 201.9h0.8929v3.9286h-0.8929z" fill="#999"/>
 <path d="m454.72 227.4h0.8929v2.6659h-0.8929z" fill="#999"/>
 <path d="m457.13 227.4h0.8929v2.6659h-0.8929z" fill="#999"/>
 <path d="m459.63 227.4h0.8929v2.6659h-0.8929z" fill="#999"/>
 <path d="m462.18 227.4h0.8929v2.6659h-0.8929z" fill="#999"/>
 <path d="m464.59 227.4h0.8929v2.6659h-0.8929z" fill="#999"/>
 <path d="m467.09 227.4h0.8929v2.6659h-0.8929z" fill="#999"/>
 <path d="m469.68 227.4h0.8929v2.6659h-0.8929z" fill="#999"/>
 <path d="m472.09 227.4h0.8929v2.6659h-0.8929z" fill="#999"/>
 <path d="m474.59 227.4h0.8929v2.6659h-0.8929z" fill="#999"/>
 <path d="m476.66 227.4h0.8929v2.6659h-0.8929z" fill="#999"/>
 <path d="m454.57 195.18h0.8929v2.6659h-0.8929z" fill="#999"/>
 <path d="m456.98 195.18h0.8929v2.6659h-0.8929z" fill="#999"/>
 <path d="m459.48 195.18h0.8929v2.6659h-0.8929z" fill="#999"/>
 <path d="m462.03 195.18h0.8929v2.6659h-0.8929z" fill="#999"/>
 <path d="m464.44 195.18h0.8929v2.6659h-0.8929z" fill="#999"/>
 <path d="m466.94 195.18h0.8929v2.6659h-0.8929z" fill="#999"/>
 <path d="m469.53 195.18h0.8929v2.6659h-0.8929z" fill="#999"/>
 <path d="m471.94 195.18h0.8929v2.6659h-0.8929z" fill="#999"/>
 <path d="m474.44 195.18h0.8929v2.6659h-0.8929z" fill="#999"/>
 <path d="m476.51 195.18h0.8929v2.6659h-0.8929z" fill="#999"/>
 <path d="m478.93 195.18h0.8929v2.6659h-0.8929z" fill="#999"/>
 <path transform="rotate(90)" d="m210.41-451.53h0.8929v2.6659h-0.8929z" fill="#999"/>
 <path transform="rotate(90)" d="m208.95-451.53h0.8929v2.6659h-0.8929z" fill="#999"/>
 <path transform="rotate(90)" d="m207.52-451.65h0.8929v2.6659h-0.8929z" fill="#999"/>
 <path transform="rotate(90)" d="m206.06-451.65h0.8929v2.6659h-0.8929z" fill="#999"/>
 <path transform="rotate(90)" d="m204.52-451.53h0.8929v2.6659h-0.8929z" fill="#999"/>
 <path transform="rotate(90)" d="m203.06-451.53h0.8929v2.6659h-0.8929z" fill="#999"/>
 <path transform="rotate(90)" d="m201.63-451.65h0.8929v2.6659h-0.8929z" fill="#999"/>
 <path transform="rotate(90)" d="m200.16-451.65h0.8929v2.6659h-0.8929z" fill="#999"/>
 <path transform="rotate(90)" d="m224-451.53h0.8929v2.6659h-0.8929z" fill="#999"/>
 <path transform="rotate(90)" d="m222.54-451.53h0.8929v2.6659h-0.8929z" fill="#999"/>
 <path transform="rotate(90)" d="m221.11-451.65h0.8929v2.6659h-0.8929z" fill="#999"/>
 <path transform="rotate(90)" d="m219.65-451.65h0.8929v2.6659h-0.8929z" fill="#999"/>
 <path transform="rotate(90)" d="m218.11-451.53h0.8929v2.6659h-0.8929z" fill="#999"/>
 <path transform="rotate(90)" d="m216.65-451.53h0.8929v2.6659h-0.8929z" fill="#999"/>
 <path transform="rotate(90)" d="m215.22-451.65h0.8929v2.6659h-0.8929z" fill="#999"/>
 <path transform="rotate(90)" d="m213.75-451.65h0.8929v2.6659h-0.8929z" fill="#999"/>
 <path transform="rotate(90)" d="m210.41-485.09h0.8929v2.6659h-0.8929z" fill="#999"/>
 <path transform="rotate(90)" d="m208.95-485.09h0.8929v2.6659h-0.8929z" fill="#999"/>
 <path transform="rotate(90)" d="m207.52-485.21h0.8929v2.6659h-0.8929z" fill="#999"/>
 <path transform="rotate(90)" d="m206.06-485.21h0.8929v2.6659h-0.8929z" fill="#999"/>
 <path transform="rotate(90)" d="m204.52-485.09h0.8929v2.6659h-0.8929z" fill="#999"/>
 <path transform="rotate(90)" d="m203.06-485.09h0.8929v2.6659h-0.8929z" fill="#999"/>
 <path transform="rotate(90)" d="m201.63-485.21h0.8929v2.6659h-0.8929z" fill="#999"/>
 <path transform="rotate(90)" d="m200.16-485.21h0.8929v2.6659h-0.8929z" fill="#999"/>
 <path transform="rotate(90)" d="m224-485.09h0.8929v2.6659h-0.8929z" fill="#999"/>
 <path transform="rotate(90)" d="m222.54-485.09h0.8929v2.6659h-0.8929z" fill="#999"/>
 <path transform="rotate(90)" d="m221.11-485.21h0.8929v2.6659h-0.8929z" fill="#999"/>
 <path transform="rotate(90)" d="m219.65-485.21h0.8929v2.6659h-0.8929z" fill="#999"/>
 <path transform="rotate(90)" d="m218.11-485.09h0.8929v2.6659h-0.8929z" fill="#999"/>
 <path transform="rotate(90)" d="m216.65-485.09h0.8929v2.6659h-0.8929z" fill="#999"/>
 <path transform="rotate(90)" d="m215.22-485.21h0.8929v2.6659h-0.8929z" fill="#999"/>
 <path transform="rotate(90)" d="m213.75-485.21h0.8929v2.6659h-0.8929z" fill="#999"/>
 <path transform="rotate(90)" d="m232.99-385.99h1.6794v4.0511h-1.6794z" fill="#ff0"/>
 <path transform="rotate(90)" d="m233.18-385.83h1.296v3.7492h-1.296z" fill="#4d4d4d"/>
 <path transform="rotate(90)" d="m234.86-385.99h1.6794v4.0511h-1.6794z" fill="#ff0"/>
 <path transform="rotate(90)" d="m235.06-385.83h1.296v3.7492h-1.296z" fill="#4d4d4d"/>
 <path transform="rotate(90)" d="m236.62-385.99h1.6794v4.0511h-1.6794z" fill="#ff0"/>
 <path transform="rotate(90)" d="m236.81-385.83h1.296v3.7492h-1.296z" fill="#4d4d4d"/>
 <path transform="rotate(90)" d="m238.49-385.99h1.6794v4.0511h-1.6794z" fill="#ff0"/>
 <path transform="rotate(90)" d="m238.69-385.83h1.296v3.7492h-1.296z" fill="#4d4d4d"/>
 <path d="m427.85 175.11h3.2143v6.0714h-3.2143z" fill="#ff0"/>
 <path d="m428.22 175.35h2.4804v5.619h-2.4804z" fill="#4d4d4d"/>
 <path d="m431.44 175.11h3.2143v6.0714h-3.2143z" fill="#ff0"/>
 <path d="m431.81 175.35h2.4804v5.619h-2.4804z" fill="#4d4d4d"/>
 <path d="m434.8 175.11h3.2143v6.0714h-3.2143z" fill="#ff0"/>
 <path d="m435.17 175.35h2.4804v5.619h-2.4804z" fill="#4d4d4d"/>
 <path d="m438.39 175.11h3.2143v6.0714h-3.2143z" fill="#ff0"/>
 <path d="m438.76 175.35h2.4804v5.619h-2.4804z" fill="#4d4d4d"/>
 <path d="m451.87 174.22h3.2143v6.0714h-3.2143z" fill="#ff0"/>
 <path d="m452.24 174.46h2.4804v5.619h-2.4804z" fill="#4d4d4d"/>
 <path d="m455.46 174.22h3.2143v6.0714h-3.2143z" fill="#ff0"/>
 <path d="m455.83 174.46h2.4804v5.619h-2.4804z" fill="#4d4d4d"/>
 <path d="m458.81 174.22h3.2143v6.0714h-3.2143z" fill="#ff0"/>
 <path d="m459.18 174.46h2.4804v5.619h-2.4804z" fill="#4d4d4d"/>
 <path d="m462.4 174.22h3.2143v6.0714h-3.2143z" fill="#ff0"/>
 <path d="m462.77 174.46h2.4804v5.619h-2.4804z" fill="#4d4d4d"/>
 <path transform="rotate(90)" d="m240.48-385.99h1.6794v4.0511h-1.6794z" fill="#ff0"/>
 <path transform="rotate(90)" d="m240.67-385.83h1.296v3.7492h-1.296z" fill="#4d4d4d"/>
 <path transform="rotate(90)" d="m242.35-385.99h1.6794v4.0511h-1.6794z" fill="#ff0"/>
 <path transform="rotate(90)" d="m242.55-385.83h1.296v3.7492h-1.296z" fill="#4d4d4d"/>
 <path transform="rotate(90)" d="m244.11-385.99h1.6794v4.0511h-1.6794z" fill="#ff0"/>
 <path transform="rotate(90)" d="m244.3-385.83h1.296v3.7492h-1.296z" fill="#4d4d4d"/>
 <path transform="rotate(90)" d="m245.98-385.99h1.6794v4.0511h-1.6794z" fill="#ff0"/>
 <path transform="rotate(90)" d="m246.18-385.83h1.296v3.7492h-1.296z" fill="#4d4d4d"/>
 <path transform="rotate(90)" d="m248.07-385.92h1.6794v4.0511h-1.6794z" fill="#ff0"/>
 <path transform="rotate(90)" d="m248.26-385.76h1.296v3.7492h-1.296z" fill="#4d4d4d"/>
 <path transform="rotate(90)" d="m249.94-385.92h1.6794v4.0511h-1.6794z" fill="#ff0"/>
 <path transform="rotate(90)" d="m250.14-385.76h1.296v3.7492h-1.296z" fill="#4d4d4d"/>
 <path transform="rotate(90)" d="m251.7-385.92h1.6794v4.0511h-1.6794z" fill="#ff0"/>
 <path transform="rotate(90)" d="m251.89-385.76h1.296v3.7492h-1.296z" fill="#4d4d4d"/>
 <path transform="rotate(90)" d="m253.57-385.92h1.6794v4.0511h-1.6794z" fill="#ff0"/>
 <path transform="rotate(90)" d="m253.77-385.76h1.296v3.7492h-1.296z" fill="#4d4d4d"/>
 <path transform="rotate(90)" d="m232.86-380.36h1.6794v4.0511h-1.6794z" fill="#ff0"/>
 <path transform="rotate(90)" d="m233.05-380.2h1.296v3.7492h-1.296z" fill="#4d4d4d"/>
 <path transform="rotate(90)" d="m234.73-380.36h1.6794v4.0511h-1.6794z" fill="#ff0"/>
 <path transform="rotate(90)" d="m234.93-380.2h1.296v3.7492h-1.296z" fill="#4d4d4d"/>
 <path transform="rotate(90)" d="m236.49-380.36h1.6794v4.0511h-1.6794z" fill="#ff0"/>
 <path transform="rotate(90)" d="m236.68-380.2h1.296v3.7492h-1.296z" fill="#4d4d4d"/>
 <path transform="rotate(90)" d="m238.36-380.36h1.6794v4.0511h-1.6794z" fill="#ff0"/>
 <path transform="rotate(90)" d="m238.55-380.2h1.296v3.7492h-1.296z" fill="#4d4d4d"/>
 <path transform="rotate(90)" d="m240.35-380.36h1.6794v4.0511h-1.6794z" fill="#ff0"/>
 <path transform="rotate(90)" d="m240.54-380.2h1.296v3.7492h-1.296z" fill="#4d4d4d"/>
 <path transform="rotate(90)" d="m242.22-380.36h1.6794v4.0511h-1.6794z" fill="#ff0"/>
 <path transform="rotate(90)" d="m242.41-380.2h1.296v3.7492h-1.296z" fill="#4d4d4d"/>
 <path transform="rotate(90)" d="m243.98-380.36h1.6794v4.0511h-1.6794z" fill="#ff0"/>
 <path transform="rotate(90)" d="m244.17-380.2h1.296v3.7492h-1.296z" fill="#4d4d4d"/>
 <path transform="rotate(90)" d="m245.85-380.36h1.6794v4.0511h-1.6794z" fill="#ff0"/>
 <path transform="rotate(90)" d="m246.04-380.2h1.296v3.7492h-1.296z" fill="#4d4d4d"/>
 <path transform="rotate(90)" d="m247.94-380.29h1.6794v4.0511h-1.6794z" fill="#ff0"/>
 <path transform="rotate(90)" d="m248.13-380.13h1.296v3.7492h-1.296z" fill="#4d4d4d"/>
 <path transform="rotate(90)" d="m249.81-380.29h1.6794v4.0511h-1.6794z" fill="#ff0"/>
 <path transform="rotate(90)" d="m250-380.13h1.296v3.7492h-1.296z" fill="#4d4d4d"/>
 <path transform="rotate(90)" d="m251.56-380.29h1.6794v4.0511h-1.6794z" fill="#ff0"/>
 <path transform="rotate(90)" d="m251.76-380.13h1.296v3.7492h-1.296z" fill="#4d4d4d"/>
 <path transform="rotate(90)" d="m253.44-380.29h1.6794v4.0511h-1.6794z" fill="#ff0"/>
 <path transform="rotate(90)" d="m253.63-380.13h1.296v3.7492h-1.296z" fill="#4d4d4d"/>
 <path transform="rotate(90)" d="m232.6-374.56h1.6794v4.0511h-1.6794z" fill="#ff0"/>
 <path transform="rotate(90)" d="m232.8-374.4h1.296v3.7492h-1.296z" fill="#4d4d4d"/>
 <path transform="rotate(90)" d="m234.48-374.56h1.6794v4.0511h-1.6794z" fill="#ff0"/>
 <path transform="rotate(90)" d="m234.67-374.4h1.296v3.7492h-1.296z" fill="#4d4d4d"/>
 <path transform="rotate(90)" d="m236.23-374.56h1.6794v4.0511h-1.6794z" fill="#ff0"/>
 <path transform="rotate(90)" d="m236.43-374.4h1.296v3.7492h-1.296z" fill="#4d4d4d"/>
 <path transform="rotate(90)" d="m238.11-374.56h1.6794v4.0511h-1.6794z" fill="#ff0"/>
 <path transform="rotate(90)" d="m238.3-374.4h1.296v3.7492h-1.296z" fill="#4d4d4d"/>
 <path transform="rotate(90)" d="m240.09-374.55h1.6794v4.0511h-1.6794z" fill="#ff0"/>
 <path transform="rotate(90)" d="m240.29-374.39h1.296v3.7492h-1.296z" fill="#4d4d4d"/>
 <path transform="rotate(90)" d="m241.97-374.55h1.6794v4.0511h-1.6794z" fill="#ff0"/>
 <path transform="rotate(90)" d="m242.16-374.39h1.296v3.7492h-1.296z" fill="#4d4d4d"/>
 <path transform="rotate(90)" d="m243.72-374.55h1.6794v4.0511h-1.6794z" fill="#ff0"/>
 <path transform="rotate(90)" d="m243.92-374.39h1.296v3.7492h-1.296z" fill="#4d4d4d"/>
 <path transform="rotate(90)" d="m245.6-374.55h1.6794v4.0511h-1.6794z" fill="#ff0"/>
 <path transform="rotate(90)" d="m245.79-374.39h1.296v3.7492h-1.296z" fill="#4d4d4d"/>
 <path transform="rotate(90)" d="m247.68-374.48h1.6794v4.0511h-1.6794z" fill="#ff0"/>
 <path transform="rotate(90)" d="m247.88-374.32h1.296v3.7492h-1.296z" fill="#4d4d4d"/>
 <path transform="rotate(90)" d="m249.56-374.48h1.6794v4.0511h-1.6794z" fill="#ff0"/>
 <path transform="rotate(90)" d="m249.75-374.32h1.296v3.7492h-1.296z" fill="#4d4d4d"/>
 <path transform="rotate(90)" d="m251.31-374.48h1.6794v4.0511h-1.6794z" fill="#ff0"/>
 <path transform="rotate(90)" d="m251.51-374.32h1.296v3.7492h-1.296z" fill="#4d4d4d"/>
 <path transform="rotate(90)" d="m253.19-374.48h1.6794v4.0511h-1.6794z" fill="#ff0"/>
 <path transform="rotate(90)" d="m253.38-374.32h1.296v3.7492h-1.296z" fill="#4d4d4d"/>
 <path transform="rotate(90)" d="m232.6-369h1.6794v4.0511h-1.6794z" fill="#ff0"/>
 <path transform="rotate(90)" d="m232.8-368.84h1.296v3.7492h-1.296z" fill="#4d4d4d"/>
 <path transform="rotate(90)" d="m234.48-369h1.6794v4.0511h-1.6794z" fill="#ff0"/>
 <path transform="rotate(90)" d="m234.67-368.84h1.296v3.7492h-1.296z" fill="#4d4d4d"/>
 <path transform="rotate(90)" d="m236.23-369h1.6794v4.0511h-1.6794z" fill="#ff0"/>
 <path transform="rotate(90)" d="m236.43-368.84h1.296v3.7492h-1.296z" fill="#4d4d4d"/>
 <path transform="rotate(90)" d="m238.11-369h1.6794v4.0511h-1.6794z" fill="#ff0"/>
 <path transform="rotate(90)" d="m238.3-368.84h1.296v3.7492h-1.296z" fill="#4d4d4d"/>
 <path transform="rotate(90)" d="m240.09-369h1.6794v4.0511h-1.6794z" fill="#ff0"/>
 <path transform="rotate(90)" d="m240.29-368.84h1.296v3.7492h-1.296z" fill="#4d4d4d"/>
 <path transform="rotate(90)" d="m241.97-369h1.6794v4.0511h-1.6794z" fill="#ff0"/>
 <path transform="rotate(90)" d="m242.16-368.84h1.296v3.7492h-1.296z" fill="#4d4d4d"/>
 <path transform="rotate(90)" d="m243.72-369h1.6794v4.0511h-1.6794z" fill="#ff0"/>
 <path transform="rotate(90)" d="m243.92-368.84h1.296v3.7492h-1.296z" fill="#4d4d4d"/>
 <path transform="rotate(90)" d="m245.6-369h1.6794v4.0511h-1.6794z" fill="#ff0"/>
 <path transform="rotate(90)" d="m245.79-368.84h1.296v3.7492h-1.296z" fill="#4d4d4d"/>
 <path transform="rotate(90)" d="m247.68-368.93h1.6794v4.0511h-1.6794z" fill="#ff0"/>
 <path transform="rotate(90)" d="m247.88-368.77h1.296v3.7492h-1.296z" fill="#4d4d4d"/>
 <path transform="rotate(90)" d="m249.56-368.93h1.6794v4.0511h-1.6794z" fill="#ff0"/>
 <path transform="rotate(90)" d="m249.75-368.77h1.296v3.7492h-1.296z" fill="#4d4d4d"/>
 <path transform="rotate(90)" d="m251.31-368.93h1.6794v4.0511h-1.6794z" fill="#ff0"/>
 <path transform="rotate(90)" d="m251.51-368.77h1.296v3.7492h-1.296z" fill="#4d4d4d"/>
 <path transform="rotate(90)" d="m253.19-368.93h1.6794v4.0511h-1.6794z" fill="#ff0"/>
 <path transform="rotate(90)" d="m253.38-368.77h1.296v3.7492h-1.296z" fill="#4d4d4d"/>
 <path d="m352.2186,176.1659c-.0233.5358-.0406,1.078-.029,1.6988 0,.5947.0116,1.2352.0346,1.9213h.4581c-.0233-.6861-.0349-1.3267-.0349-1.9213-.0116-.6208.0056-1.1629.029-1.6988h-.4577z" fill="#1d0e82" fill-rule="evenodd"/>
 <path d="m352.2199,175.4601c-.0233.5358-.0349,1.078-.0349,1.6988 0,.5947.006,1.2352.0406,1.9213h.4577c-.0346-.6861-.0405-1.3267-.0405-1.9213 0-.6208.0116-1.163.0349-1.6988h-.4577z" fill="#fb0f0c" fill-rule="evenodd"/>
 <path d="m352.2188,174.8159c-.0233.5358-.0406,1.078-.0293,1.6988 0,.5947.0116,1.2352.0349,1.9213h.4577c-.0346-.6861-.0405-1.3267-.0405-1.9213 0-.6208.0116-1.1629.0349-1.6988h-.4577z" fill="#fb0f0c" fill-rule="evenodd"/>
 <path d="m352.6455,172.8442c.0175.5358.0293,1.078.0349,1.6988-.0056.5947-.0116,1.2352-.0406,1.9213h-.4521c.0175-.6861.0293-1.3267.0349-1.9213 .0056-.6208-.0116-1.163-.029-1.6988h.4518z" fill="#fb0f0c" fill-rule="evenodd"/>
 <path d="m352.6509,173.5273c.0172.5358.0349,1.078.029,1.6988-.0056.5947-.0172,1.2352-.0346,1.9213h-.4581c.0293-.6861.0349-1.3267.0406-1.9213-.0056-.6208-.0172-1.1629-.0346-1.6988h.4577z" fill="#f0a04a" fill-rule="evenodd"/>
 <path transform="rotate(-90)" d="m-203.67 367.84h30.714v30.536h-30.714z" fill="#ff0"/>
 <path transform="rotate(-90)" d="m-203.31 368.02h30v30h-30z" fill="#1a1a1a"/>
 <path transform="rotate(-90)" d="m-200.64 397.46h0.8929v2.6659h-0.8929z" fill="#999"/>
 <path transform="rotate(-90)" d="m-198.23 397.46h0.8929v2.6659h-0.8929z" fill="#999"/>
 <path transform="rotate(-90)" d="m-195.73 397.46h0.8929v2.6659h-0.8929z" fill="#999"/>
 <path transform="rotate(-90)" d="m-193.19 397.46h0.8929v2.6659h-0.8929z" fill="#999"/>
 <path transform="rotate(-90)" d="m-190.77 397.46h0.8929v2.6659h-0.8929z" fill="#999"/>
 <path transform="rotate(-90)" d="m-188.27 397.46h0.8929v2.6659h-0.8929z" fill="#999"/>
 <path transform="rotate(-90)" d="m-185.69 397.46h0.8929v2.6659h-0.8929z" fill="#999"/>
 <path transform="rotate(-90)" d="m-183.27 397.46h0.8929v2.6659h-0.8929z" fill="#999"/>
 <path transform="rotate(-90)" d="m-180.77 397.46h0.8929v2.6659h-0.8929z" fill="#999"/>
 <path transform="rotate(-90)" d="m-178.7 397.46h0.8929v2.6659h-0.8929z" fill="#999"/>
 <path transform="rotate(-90)" d="m-200.79 365.23h0.8929v2.6659h-0.8929z" fill="#999"/>
 <path transform="rotate(-90)" d="m-198.38 365.23h0.8929v2.6659h-0.8929z" fill="#999"/>
 <path transform="rotate(-90)" d="m-195.88 365.23h0.8929v2.6659h-0.8929z" fill="#999"/>
 <path transform="rotate(-90)" d="m-193.33 365.23h0.8929v2.6659h-0.8929z" fill="#999"/>
 <path transform="rotate(-90)" d="m-190.92 365.23h0.8929v2.6659h-0.8929z" fill="#999"/>
 <path transform="rotate(-90)" d="m-188.42 365.23h0.8929v2.6659h-0.8929z" fill="#999"/>
 <path transform="rotate(-90)" d="m-185.83 365.23h0.8929v2.6659h-0.8929z" fill="#999"/>
 <path transform="rotate(-90)" d="m-183.42 365.23h0.8929v2.6659h-0.8929z" fill="#999"/>
 <path transform="rotate(-90)" d="m-180.92 365.23h0.8929v2.6659h-0.8929z" fill="#999"/>
 <path transform="rotate(-90)" d="m-178.85 365.23h0.8929v2.6659h-0.8929z" fill="#999"/>
 <path transform="rotate(-90)" d="m-176.44 365.23h0.8929v2.6659h-0.8929z" fill="#999"/>
 <path d="m380.47 203.83h0.8929v2.6659h-0.8929z" fill="#999"/>
 <path d="m379.01 203.83h0.8929v2.6659h-0.8929z" fill="#999"/>
 <path d="m377.58 203.71h0.8929v2.6659h-0.8929z" fill="#999"/>
 <path d="m376.11 203.71h0.8929v2.6659h-0.8929z" fill="#999"/>
 <path d="m374.58 203.83h0.8929v2.6659h-0.8929z" fill="#999"/>
 <path d="m373.11 203.83h0.8929v2.6659h-0.8929z" fill="#999"/>
 <path d="m371.68 203.71h0.8929v2.6659h-0.8929z" fill="#999"/>
 <path d="m370.22 203.71h0.8929v2.6659h-0.8929z" fill="#999"/>
 <path d="m394.06 203.83h0.8929v2.6659h-0.8929z" fill="#999"/>
 <path d="m392.59 203.83h0.8929v2.6659h-0.8929z" fill="#999"/>
 <path d="m391.17 203.71h0.8929v2.6659h-0.8929z" fill="#999"/>
 <path d="m389.7 203.71h0.8929v2.6659h-0.8929z" fill="#999"/>
 <path d="m388.17 203.83h0.8929v2.6659h-0.8929z" fill="#999"/>
 <path d="m386.7 203.83h0.8929v2.6659h-0.8929z" fill="#999"/>
 <path d="m385.27 203.71h0.8929v2.6659h-0.8929z" fill="#999"/>
 <path d="m383.81 203.71h0.8929v2.6659h-0.8929z" fill="#999"/>
 <path d="m380.47 170.27h0.8929v2.6659h-0.8929z" fill="#999"/>
 <path d="m379.01 170.27h0.8929v2.6659h-0.8929z" fill="#999"/>
 <path d="m377.58 170.15h0.8929v2.6659h-0.8929z" fill="#999"/>
 <path d="m376.11 170.15h0.8929v2.6659h-0.8929z" fill="#999"/>
 <path d="m374.58 170.27h0.8929v2.6659h-0.8929z" fill="#999"/>
 <path d="m373.11 170.27h0.8929v2.6659h-0.8929z" fill="#999"/>
 <path d="m371.68 170.15h0.8929v2.6659h-0.8929z" fill="#999"/>
 <path d="m370.22 170.15h0.8929v2.6659h-0.8929z" fill="#999"/>
 <path d="m394.06 170.27h0.8929v2.6659h-0.8929z" fill="#999"/>
 <path d="m392.59 170.27h0.8929v2.6659h-0.8929z" fill="#999"/>
 <path d="m391.17 170.15h0.8929v2.6659h-0.8929z" fill="#999"/>
 <path d="m389.7 170.15h0.8929v2.6659h-0.8929z" fill="#999"/>
 <path d="m388.17 170.27h0.8929v2.6659h-0.8929z" fill="#999"/>
 <path d="m386.7 170.27h0.8929v2.6659h-0.8929z" fill="#999"/>
 <path d="m385.27 170.15h0.8929v2.6659h-0.8929z" fill="#999"/>
 <path d="m383.81 170.15h0.8929v2.6659h-0.8929z" fill="#999"/>
 <path d="m320.39 195.04h1.6794v4.0511h-1.6794z" fill="#ff0"/>
 <path d="m320.58 195.2h1.296v3.7492h-1.296z" fill="#4d4d4d"/>
 <path d="m322.27 195.04h1.6794v4.0511h-1.6794z" fill="#ff0"/>
 <path d="m322.46 195.2h1.296v3.7492h-1.296z" fill="#4d4d4d"/>
 <path d="m324.02 195.04h1.6794v4.0511h-1.6794z" fill="#ff0"/>
 <path d="m324.21 195.2h1.296v3.7492h-1.296z" fill="#4d4d4d"/>
 <path d="m325.9 195.04h1.6794v4.0511h-1.6794z" fill="#ff0"/>
 <path d="m326.09 195.2h1.296v3.7492h-1.296z" fill="#4d4d4d"/>
 <path d="m327.88 195.05h1.6794v4.0511h-1.6794z" fill="#ff0"/>
 <path d="m328.07 195.21h1.296v3.7492h-1.296z" fill="#4d4d4d"/>
 <path d="m329.76 195.05h1.6794v4.0511h-1.6794z" fill="#ff0"/>
 <path d="m329.95 195.21h1.296v3.7492h-1.296z" fill="#4d4d4d"/>
 <path d="m331.51 195.05h1.6794v4.0511h-1.6794z" fill="#ff0"/>
 <path d="m331.7 195.21h1.296v3.7492h-1.296z" fill="#4d4d4d"/>
 <path d="m333.39 195.05h1.6794v4.0511h-1.6794z" fill="#ff0"/>
 <path d="m333.58 195.21h1.296v3.7492h-1.296z" fill="#4d4d4d"/>
 <path d="m335.47 195.12h1.6794v4.0511h-1.6794z" fill="#ff0"/>
 <path d="m335.66 195.28h1.296v3.7492h-1.296z" fill="#4d4d4d"/>
 <path d="m337.35 195.12h1.6794v4.0511h-1.6794z" fill="#ff0"/>
 <path d="m337.54 195.28h1.296v3.7492h-1.296z" fill="#4d4d4d"/>
 <path d="m339.1 195.12h1.6794v4.0511h-1.6794z" fill="#ff0"/>
 <path d="m339.29 195.28h1.296v3.7492h-1.296z" fill="#4d4d4d"/>
 <path d="m340.97 195.12h1.6794v4.0511h-1.6794z" fill="#ff0"/>
 <path d="m341.17 195.28h1.296v3.7492h-1.296z" fill="#4d4d4d"/>
 <path d="m320.26 200.67h1.6794v4.0511h-1.6794z" fill="#ff0"/>
 <path d="m320.45 200.83h1.296v3.7492h-1.296z" fill="#4d4d4d"/>
 <path d="m322.13 200.67h1.6794v4.0511h-1.6794z" fill="#ff0"/>
 <path d="m322.33 200.83h1.296v3.7492h-1.296z" fill="#4d4d4d"/>
 <path d="m323.89 200.67h1.6794v4.0511h-1.6794z" fill="#ff0"/>
 <path d="m324.08 200.83h1.296v3.7492h-1.296z" fill="#4d4d4d"/>
 <path d="m325.76 200.67h1.6794v4.0511h-1.6794z" fill="#ff0"/>
 <path d="m325.96 200.83h1.296v3.7492h-1.296z" fill="#4d4d4d"/>
 <path d="m327.75 200.67h1.6794v4.0511h-1.6794z" fill="#ff0"/>
 <path d="m327.94 200.83h1.296v3.7492h-1.296z" fill="#4d4d4d"/>
 <path d="m329.62 200.67h1.6794v4.0511h-1.6794z" fill="#ff0"/>
 <path d="m329.82 200.83h1.296v3.7492h-1.296z" fill="#4d4d4d"/>
 <path d="m331.38 200.67h1.6794v4.0511h-1.6794z" fill="#ff0"/>
 <path d="m331.57 200.83h1.296v3.7492h-1.296z" fill="#4d4d4d"/>
 <path d="m333.25 200.67h1.6794v4.0511h-1.6794z" fill="#ff0"/>
 <path d="m333.45 200.83h1.296v3.7492h-1.296z" fill="#4d4d4d"/>
 <path d="m335.34 200.75h1.6794v4.0511h-1.6794z" fill="#ff0"/>
 <path d="m335.53 200.91h1.296v3.7492h-1.296z" fill="#4d4d4d"/>
 <path d="m337.21 200.75h1.6794v4.0511h-1.6794z" fill="#ff0"/>
 <path d="m337.41 200.91h1.296v3.7492h-1.296z" fill="#4d4d4d"/>
 <path d="m338.97 200.75h1.6794v4.0511h-1.6794z" fill="#ff0"/>
 <path d="m339.16 200.91h1.296v3.7492h-1.296z" fill="#4d4d4d"/>
 <path d="m340.84 200.75h1.6794v4.0511h-1.6794z" fill="#ff0"/>
 <path d="m341.04 200.91h1.296v3.7492h-1.296z" fill="#4d4d4d"/>
 <path d="m320.01 206.48h1.6794v4.0511h-1.6794z" fill="#ff0"/>
 <path d="m320.2 206.64h1.296v3.7492h-1.296z" fill="#4d4d4d"/>
 <path d="m321.88 206.48h1.6794v4.0511h-1.6794z" fill="#ff0"/>
 <path d="m322.07 206.64h1.296v3.7492h-1.296z" fill="#4d4d4d"/>
 <path d="m323.64 206.48h1.6794v4.0511h-1.6794z" fill="#ff0"/>
 <path d="m323.83 206.64h1.296v3.7492h-1.296z" fill="#4d4d4d"/>
 <path d="m325.51 206.48h1.6794v4.0511h-1.6794z" fill="#ff0"/>
 <path d="m325.7 206.64h1.296v3.7492h-1.296z" fill="#4d4d4d"/>
 <path d="m327.5 206.48h1.6794v4.0511h-1.6794z" fill="#ff0"/>
 <path d="m327.69 206.64h1.296v3.7492h-1.296z" fill="#4d4d4d"/>
 <path d="m329.37 206.48h1.6794v4.0511h-1.6794z" fill="#ff0"/>
 <path d="m329.56 206.64h1.296v3.7492h-1.296z" fill="#4d4d4d"/>
 <path d="m331.12 206.48h1.6794v4.0511h-1.6794z" fill="#ff0"/>
 <path d="m331.32 206.64h1.296v3.7492h-1.296z" fill="#4d4d4d"/>
 <path d="m333 206.48h1.6794v4.0511h-1.6794z" fill="#ff0"/>
 <path d="m333.19 206.64h1.296v3.7492h-1.296z" fill="#4d4d4d"/>
 <path d="m335.08 206.55h1.6794v4.0511h-1.6794z" fill="#ff0"/>
 <path d="m335.28 206.71h1.296v3.7492h-1.296z" fill="#4d4d4d"/>
 <path d="m336.96 206.55h1.6794v4.0511h-1.6794z" fill="#ff0"/>
 <path d="m337.15 206.71h1.296v3.7492h-1.296z" fill="#4d4d4d"/>
 <path d="m338.71 206.55h1.6794v4.0511h-1.6794z" fill="#ff0"/>
 <path d="m338.91 206.71h1.296v3.7492h-1.296z" fill="#4d4d4d"/>
 <path d="m340.59 206.55h1.6794v4.0511h-1.6794z" fill="#ff0"/>
 <path d="m340.78 206.71h1.296v3.7492h-1.296z" fill="#4d4d4d"/>
 <path d="m320.01 212.04h1.6794v4.0511h-1.6794z" fill="#ff0"/>
 <path d="m320.2 212.2h1.296v3.7492h-1.296z" fill="#4d4d4d"/>
 <path d="m321.88 212.04h1.6794v4.0511h-1.6794z" fill="#ff0"/>
 <path d="m322.07 212.2h1.296v3.7492h-1.296z" fill="#4d4d4d"/>
 <path d="m323.64 212.04h1.6794v4.0511h-1.6794z" fill="#ff0"/>
 <path d="m323.83 212.2h1.296v3.7492h-1.296z" fill="#4d4d4d"/>
 <path d="m325.51 212.04h1.6794v4.0511h-1.6794z" fill="#ff0"/>
 <path d="m325.7 212.2h1.296v3.7492h-1.296z" fill="#4d4d4d"/>
 <path d="m327.5 212.04h1.6794v4.0511h-1.6794z" fill="#ff0"/>
 <path d="m327.69 212.2h1.296v3.7492h-1.296z" fill="#4d4d4d"/>
 <path d="m329.37 212.04h1.6794v4.0511h-1.6794z" fill="#ff0"/>
 <path d="m329.56 212.2h1.296v3.7492h-1.296z" fill="#4d4d4d"/>
 <path d="m331.12 212.04h1.6794v4.0511h-1.6794z" fill="#ff0"/>
 <path d="m331.32 212.2h1.296v3.7492h-1.296z" fill="#4d4d4d"/>
 <path d="m333 212.04h1.6794v4.0511h-1.6794z" fill="#ff0"/>
 <path d="m333.19 212.2h1.296v3.7492h-1.296z" fill="#4d4d4d"/>
 <path d="m335.08 212.11h1.6794v4.0511h-1.6794z" fill="#ff0"/>
 <path d="m335.28 212.27h1.296v3.7492h-1.296z" fill="#4d4d4d"/>
 <path d="m336.96 212.11h1.6794v4.0511h-1.6794z" fill="#ff0"/>
 <path d="m337.15 212.27h1.296v3.7492h-1.296z" fill="#4d4d4d"/>
 <path d="m338.71 212.11h1.6794v4.0511h-1.6794z" fill="#ff0"/>
 <path d="m338.91 212.27h1.296v3.7492h-1.296z" fill="#4d4d4d"/>
 <path d="m340.59 212.11h1.6794v4.0511h-1.6794z" fill="#ff0"/>
 <path d="m340.78 212.27h1.296v3.7492h-1.296z" fill="#4d4d4d"/>
 <path transform="rotate(90)" d="m219.66-341.87h1.6794v4.0511h-1.6794z" fill="#ff0"/>
 <path transform="rotate(90)" d="m219.86-341.71h1.296v3.7492h-1.296z" fill="#4d4d4d"/>
 <path transform="rotate(90)" d="m221.54-341.87h1.6794v4.0511h-1.6794z" fill="#ff0"/>
 <path transform="rotate(90)" d="m221.73-341.71h1.296v3.7492h-1.296z" fill="#4d4d4d"/>
 <path transform="rotate(90)" d="m223.29-341.87h1.6794v4.0511h-1.6794z" fill="#ff0"/>
 <path transform="rotate(90)" d="m223.49-341.71h1.296v3.7492h-1.296z" fill="#4d4d4d"/>
 <path transform="rotate(90)" d="m225.17-341.87h1.6794v4.0511h-1.6794z" fill="#ff0"/>
 <path transform="rotate(90)" d="m225.36-341.71h1.296v3.7492h-1.296z" fill="#4d4d4d"/>
 <path transform="rotate(90)" d="m227.15-341.87h1.6794v4.0511h-1.6794z" fill="#ff0"/>
 <path transform="rotate(90)" d="m227.35-341.7h1.296v3.7492h-1.296z" fill="#4d4d4d"/>
 <path transform="rotate(90)" d="m229.03-341.87h1.6794v4.0511h-1.6794z" fill="#ff0"/>
 <path transform="rotate(90)" d="m229.22-341.7h1.296v3.7492h-1.296z" fill="#4d4d4d"/>
 <path transform="rotate(90)" d="m230.78-341.87h1.6794v4.0511h-1.6794z" fill="#ff0"/>
 <path transform="rotate(90)" d="m230.98-341.7h1.296v3.7492h-1.296z" fill="#4d4d4d"/>
 <path transform="rotate(90)" d="m232.66-341.87h1.6794v4.0511h-1.6794z" fill="#ff0"/>
 <path transform="rotate(90)" d="m232.85-341.7h1.296v3.7492h-1.296z" fill="#4d4d4d"/>
 <path transform="rotate(90)" d="m234.74-341.79h1.6794v4.0511h-1.6794z" fill="#ff0"/>
 <path transform="rotate(90)" d="m234.94-341.63h1.296v3.7492h-1.296z" fill="#4d4d4d"/>
 <path transform="rotate(90)" d="m236.62-341.79h1.6794v4.0511h-1.6794z" fill="#ff0"/>
 <path transform="rotate(90)" d="m236.81-341.63h1.296v3.7492h-1.296z" fill="#4d4d4d"/>
 <path transform="rotate(90)" d="m238.37-341.79h1.6794v4.0511h-1.6794z" fill="#ff0"/>
 <path transform="rotate(90)" d="m238.57-341.63h1.296v3.7492h-1.296z" fill="#4d4d4d"/>
 <path transform="rotate(90)" d="m240.25-341.79h1.6794v4.0511h-1.6794z" fill="#ff0"/>
 <path transform="rotate(90)" d="m240.44-341.63h1.296v3.7492h-1.296z" fill="#4d4d4d"/>
 <path transform="rotate(90)" d="m219.53-336.24h1.6794v4.0511h-1.6794z" fill="#ff0"/>
 <path transform="rotate(90)" d="m219.73-336.08h1.296v3.7492h-1.296z" fill="#4d4d4d"/>
 <path transform="rotate(90)" d="m221.41-336.24h1.6794v4.0511h-1.6794z" fill="#ff0"/>
 <path transform="rotate(90)" d="m221.6-336.08h1.296v3.7492h-1.296z" fill="#4d4d4d"/>
 <path transform="rotate(90)" d="m223.16-336.24h1.6794v4.0511h-1.6794z" fill="#ff0"/>
 <path transform="rotate(90)" d="m223.35-336.08h1.296v3.7492h-1.296z" fill="#4d4d4d"/>
 <path transform="rotate(90)" d="m225.04-336.24h1.6794v4.0511h-1.6794z" fill="#ff0"/>
 <path transform="rotate(90)" d="m225.23-336.08h1.296v3.7492h-1.296z" fill="#4d4d4d"/>
 <path transform="rotate(90)" d="m227.02-336.24h1.6794v4.0511h-1.6794z" fill="#ff0"/>
 <path transform="rotate(90)" d="m227.21-336.08h1.296v3.7492h-1.296z" fill="#4d4d4d"/>
 <path transform="rotate(90)" d="m228.9-336.24h1.6794v4.0511h-1.6794z" fill="#ff0"/>
 <path transform="rotate(90)" d="m229.09-336.08h1.296v3.7492h-1.296z" fill="#4d4d4d"/>
 <path transform="rotate(90)" d="m230.65-336.24h1.6794v4.0511h-1.6794z" fill="#ff0"/>
 <path transform="rotate(90)" d="m230.84-336.08h1.296v3.7492h-1.296z" fill="#4d4d4d"/>
 <path transform="rotate(90)" d="m232.53-336.24h1.6794v4.0511h-1.6794z" fill="#ff0"/>
 <path transform="rotate(90)" d="m232.72-336.08h1.296v3.7492h-1.296z" fill="#4d4d4d"/>
 <path transform="rotate(90)" d="m234.61-336.17h1.6794v4.0511h-1.6794z" fill="#ff0"/>
 <path transform="rotate(90)" d="m234.8-336h1.296v3.7492h-1.296z" fill="#4d4d4d"/>
 <path transform="rotate(90)" d="m236.49-336.17h1.6794v4.0511h-1.6794z" fill="#ff0"/>
 <path transform="rotate(90)" d="m236.68-336h1.296v3.7492h-1.296z" fill="#4d4d4d"/>
 <path transform="rotate(90)" d="m238.24-336.17h1.6794v4.0511h-1.6794z" fill="#ff0"/>
 <path transform="rotate(90)" d="m238.43-336h1.296v3.7492h-1.296z" fill="#4d4d4d"/>
 <path transform="rotate(90)" d="m240.12-336.17h1.6794v4.0511h-1.6794z" fill="#ff0"/>
 <path transform="rotate(90)" d="m240.31-336h1.296v3.7492h-1.296z" fill="#4d4d4d"/>
 <path transform="rotate(90)" d="m219.28-330.43h1.6794v4.0511h-1.6794z" fill="#ff0"/>
 <path transform="rotate(90)" d="m219.47-330.27h1.296v3.7492h-1.296z" fill="#4d4d4d"/>
 <path transform="rotate(90)" d="m221.15-330.43h1.6794v4.0511h-1.6794z" fill="#ff0"/>
 <path transform="rotate(90)" d="m221.35-330.27h1.296v3.7492h-1.296z" fill="#4d4d4d"/>
 <path transform="rotate(90)" d="m222.91-330.43h1.6794v4.0511h-1.6794z" fill="#ff0"/>
 <path transform="rotate(90)" d="m223.1-330.27h1.296v3.7492h-1.296z" fill="#4d4d4d"/>
 <path transform="rotate(90)" d="m224.78-330.43h1.6794v4.0511h-1.6794z" fill="#ff0"/>
 <path transform="rotate(90)" d="m224.98-330.27h1.296v3.7492h-1.296z" fill="#4d4d4d"/>
 <path transform="rotate(90)" d="m226.77-330.43h1.6794v4.0511h-1.6794z" fill="#ff0"/>
 <path transform="rotate(90)" d="m226.96-330.27h1.296v3.7492h-1.296z" fill="#4d4d4d"/>
 <path transform="rotate(90)" d="m228.64-330.43h1.6794v4.0511h-1.6794z" fill="#ff0"/>
 <path transform="rotate(90)" d="m228.84-330.27h1.296v3.7492h-1.296z" fill="#4d4d4d"/>
 <path transform="rotate(90)" d="m230.4-330.43h1.6794v4.0511h-1.6794z" fill="#ff0"/>
 <path transform="rotate(90)" d="m230.59-330.27h1.296v3.7492h-1.296z" fill="#4d4d4d"/>
 <path transform="rotate(90)" d="m232.27-330.43h1.6794v4.0511h-1.6794z" fill="#ff0"/>
 <path transform="rotate(90)" d="m232.47-330.27h1.296v3.7492h-1.296z" fill="#4d4d4d"/>
 <path transform="rotate(90)" d="m234.36-330.36h1.6794v4.0511h-1.6794z" fill="#ff0"/>
 <path transform="rotate(90)" d="m234.55-330.2h1.296v3.7492h-1.296z" fill="#4d4d4d"/>
 <path transform="rotate(90)" d="m236.23-330.36h1.6794v4.0511h-1.6794z" fill="#ff0"/>
 <path transform="rotate(90)" d="m236.43-330.2h1.296v3.7492h-1.296z" fill="#4d4d4d"/>
 <path transform="rotate(90)" d="m237.99-330.36h1.6794v4.0511h-1.6794z" fill="#ff0"/>
 <path transform="rotate(90)" d="m238.18-330.2h1.296v3.7492h-1.296z" fill="#4d4d4d"/>
 <path transform="rotate(90)" d="m239.86-330.36h1.6794v4.0511h-1.6794z" fill="#ff0"/>
 <path transform="rotate(90)" d="m240.06-330.2h1.296v3.7492h-1.296z" fill="#4d4d4d"/>
 <path transform="rotate(90)" d="m219.28-324.88h1.6794v4.0511h-1.6794z" fill="#ff0"/>
 <path transform="rotate(90)" d="m219.47-324.71h1.296v3.7492h-1.296z" fill="#4d4d4d"/>
 <path transform="rotate(90)" d="m221.15-324.88h1.6794v4.0511h-1.6794z" fill="#ff0"/>
 <path transform="rotate(90)" d="m221.35-324.71h1.296v3.7492h-1.296z" fill="#4d4d4d"/>
 <path transform="rotate(90)" d="m222.91-324.88h1.6794v4.0511h-1.6794z" fill="#ff0"/>
 <path transform="rotate(90)" d="m223.1-324.71h1.296v3.7492h-1.296z" fill="#4d4d4d"/>
 <path transform="rotate(90)" d="m224.78-324.88h1.6794v4.0511h-1.6794z" fill="#ff0"/>
 <path transform="rotate(90)" d="m224.98-324.71h1.296v3.7492h-1.296z" fill="#4d4d4d"/>
 <path transform="rotate(90)" d="m226.77-324.87h1.6794v4.0511h-1.6794z" fill="#ff0"/>
 <path transform="rotate(90)" d="m226.96-324.71h1.296v3.7492h-1.296z" fill="#4d4d4d"/>
 <path transform="rotate(90)" d="m228.64-324.87h1.6794v4.0511h-1.6794z" fill="#ff0"/>
 <path transform="rotate(90)" d="m228.84-324.71h1.296v3.7492h-1.296z" fill="#4d4d4d"/>
 <path transform="rotate(90)" d="m230.4-324.87h1.6794v4.0511h-1.6794z" fill="#ff0"/>
 <path transform="rotate(90)" d="m230.59-324.71h1.296v3.7492h-1.296z" fill="#4d4d4d"/>
 <path transform="rotate(90)" d="m232.27-324.87h1.6794v4.0511h-1.6794z" fill="#ff0"/>
 <path transform="rotate(90)" d="m232.47-324.71h1.296v3.7492h-1.296z" fill="#4d4d4d"/>
 <path transform="rotate(90)" d="m234.36-324.8h1.6794v4.0511h-1.6794z" fill="#ff0"/>
 <path transform="rotate(90)" d="m234.55-324.64h1.296v3.7492h-1.296z" fill="#4d4d4d"/>
 <path transform="rotate(90)" d="m236.23-324.8h1.6794v4.0511h-1.6794z" fill="#ff0"/>
 <path transform="rotate(90)" d="m236.43-324.64h1.296v3.7492h-1.296z" fill="#4d4d4d"/>
 <path transform="rotate(90)" d="m237.99-324.8h1.6794v4.0511h-1.6794z" fill="#ff0"/>
 <path transform="rotate(90)" d="m238.18-324.64h1.296v3.7492h-1.296z" fill="#4d4d4d"/>
 <path transform="rotate(90)" d="m239.86-324.8h1.6794v4.0511h-1.6794z" fill="#ff0"/>
 <path transform="rotate(90)" d="m240.06-324.64h1.296v3.7492h-1.296z" fill="#4d4d4d"/>
 <path d="m313.0174,253.6588v-4.4583c0-.9318 1.5778-1.684 3.5182-1.684h22.013c1.9403,0 3.5179.7522 3.5179,1.684v4.4583l-.5277.2528v-4.4796c0-.9319-1.5398-1.6901-3.4292-1.6901h-21.1348c-1.8897,0-3.4292.7583-3.4292,1.6901v4.4796l-.5282-.2528z" fill="#808080" fill-rule="evenodd"/>
 <path d="m334.0248,245.5102h-12.9976c.0127-.1569.0634-.3251.1018-.4596 .0318-.1681.07-.3138.1654-.4371 .0953-.1457.2227-.3587.3817-.3811 .1336-.0336.2799.0336.439.1569 .1336.0784.1591.3362.4454.4707 .2738.1233.7891.1569 1.2277.2242 .4262.0224.2799.0336 1.3807.0336 1.1135,0 3.9701-.0112 5.1851-.0336 1.1835-.0224 1.4507-.0897 1.9277-.1569 .4453-.1009.5917-.3251.808-.3699 .1909-.1121.3056-.1457.439-.1009 .1209.0336.2289.1569.3245.325 .07.1233.0891.2802.1271.4259 .0322.1121.0384.213.0445.3026z" fill="#8d5c25" fill-rule="evenodd"/>
 <path d="m321 245.76h13.08l0.1658 0.6613h-13.418l0.1718-0.6613z" fill="#b0722e" fill-rule="evenodd"/>
 <path d="m324.9652,244.1652c-.038,1.1433-.0445,2.3762-.0445,3.6988-.0062,1.3226.0193,2.7013.0511,4.1808h.6362c-.0445-1.4795-.0634-2.8582-.0573-4.1808 0-1.3226.0062-2.5555.0445-3.6988h-.63z" fill="#1d0e82" fill-rule="evenodd"/>
 <path d="m325.9452,244.1652c-.0384,1.1433-.0445,2.3762-.0445,3.6988-.0065,1.3226.0189,2.7013.0507,4.1808h.6362c-.0445-1.4795-.0634-2.8582-.0569-4.1808 0-1.3226.0062-2.5555.0445-3.6988h-.63z" fill="#fb0f0c" fill-rule="evenodd"/>
 <path d="m326.8422,244.1652c-.0383,1.1433-.0445,2.3762-.0445,3.6988-.0065,1.3226.0189,2.7013.0507,4.1808h.6362c-.0445-1.4795-.0634-2.8582-.0573-4.1808 0-1.3226.0065-2.5555.0445-3.6988h-.6297z" fill="#fb0f0c" fill-rule="evenodd"/>
 <path d="m330.176,244.1652c.0318,1.1433.0383,2.3762.0445,3.6988 0,1.3226-.0256,2.7013-.0507,4.1808h-.6366c.0256-1.4795.0511-2.8582.0511-4.1808-.0065-1.3226-.0127-2.5555-.0445-3.6988h.6362z" fill="#fb0f0c" fill-rule="evenodd"/>
 <path d="m329.228,244.1652c.0318,1.1433.038,2.3762.0445,3.6988 0,1.3226-.0256,2.7013-.0511,4.1808h-.6362c.0256-1.4795.0511-2.8582.0511-4.1808-.0065-1.3226-.0127-2.5555-.0445-3.6988h.6362z" fill="#f0a04a" fill-rule="evenodd"/>
 <path d="m211.87 189.69h25.518v0.5051h-25.518z" fill="#ff0"/>
 <path d="m230.82 215.45h1.0482v22.728h-1.0482z" fill="#ff0"/>
 <path transform="translate(-13.132 -245.47)" d="m256.58 494.25a1.2627 5.5558 0 1 1 -2.5254 0 1.2627 5.5558 0 1 1 2.5254 0z" fill="#ff0"/>
 <path transform="translate(-13.132 -245.47)" d="m301.03 492.74a19.193 0.5051 0 1 1 -38.386 0 19.193 0.5051 0 1 1 38.386 0z" fill="#ff0"/>
 <path transform="translate(-13.132 -245.47)" d="m363.15 462.94a0.5051 26.264 0 1 1 -1.0102 0 0.5051 26.264 0 1 1 1.0102 0z" fill="#ff0"/>
 <path transform="translate(-13.132 -245.47)" d="m441.44 443.24a10.859 0.5051 0 1 1 -21.718 0 10.859 0.5051 0 1 1 21.718 0z" fill="#ff0"/>
 <path transform="matrix(1.5 0 0 1.0417 -210.36 -187.46)" d="m440.93 450.31a0.5051 6.0609 0 1 1 -1.0102 0 0.5051 6.0609 0 1 1 1.0102 0z" fill="#ff0"/>
 <path transform="matrix(1.5 0 0 1.0417 -213.01 -187.71)" d="m440.93 450.31a0.5051 6.0609 0 1 1 -1.0102 0 0.5051 6.0609 0 1 1 1.0102 0z" fill="#ff0"/>
 <path transform="matrix(1.5 0 0 1.0417 -215.36 -187.84)" d="m440.93 450.31a0.5051 6.0609 0 1 1 -1.0102 0 0.5051 6.0609 0 1 1 1.0102 0z" fill="#ff0"/>
 <path transform="matrix(1.5 0 0 1.0417 -218.01 -188.09)" d="m440.93 450.31a0.5051 6.0609 0 1 1 -1.0102 0 0.5051 6.0609 0 1 1 1.0102 0z" fill="#ff0"/>
 <path transform="matrix(1.5 0 0 1.0417 -220.93 -187.65)" d="m440.93 450.31a0.5051 6.0609 0 1 1 -1.0102 0 0.5051 6.0609 0 1 1 1.0102 0z" fill="#ff0"/>
 <path transform="matrix(1.5 0 0 1.0417 -223.58 -187.9)" d="m440.93 450.31a0.5051 6.0609 0 1 1 -1.0102 0 0.5051 6.0609 0 1 1 1.0102 0z" fill="#ff0"/>
 <path transform="matrix(1.5 0 0 1.0417 -225.93 -188.03)" d="m440.93 450.31a0.5051 6.0609 0 1 1 -1.0102 0 0.5051 6.0609 0 1 1 1.0102 0z" fill="#ff0"/>
 <path transform="matrix(1.5 0 0 1.0417 -228.58 -188.28)" d="m440.93 450.31a0.5051 6.0609 0 1 1 -1.0102 0 0.5051 6.0609 0 1 1 1.0102 0z" fill="#ff0"/>
 <path transform="matrix(1.5 0 0 1.0417 -231.31 -188.06)" d="m440.93 450.31a0.5051 6.0609 0 1 1 -1.0102 0 0.5051 6.0609 0 1 1 1.0102 0z" fill="#ff0"/>
 <path transform="matrix(1.5 0 0 1.0417 -233.96 -188.31)" d="m440.93 450.31a0.5051 6.0609 0 1 1 -1.0102 0 0.5051 6.0609 0 1 1 1.0102 0z" fill="#ff0"/>
 <path transform="matrix(1.5 0 0 1.0417 -236.31 -188.44)" d="m440.93 450.31a0.5051 6.0609 0 1 1 -1.0102 0 0.5051 6.0609 0 1 1 1.0102 0z" fill="#ff0"/>
 <path transform="matrix(1.5 0 0 1.0417 -238.96 -188.69)" d="m440.93 450.31a0.5051 6.0609 0 1 1 -1.0102 0 0.5051 6.0609 0 1 1 1.0102 0z" fill="#ff0"/>
 <path transform="matrix(1.5 0 0 1.0417 -241.88 -188.25)" d="m440.93 450.31a0.5051 6.0609 0 1 1 -1.0102 0 0.5051 6.0609 0 1 1 1.0102 0z" fill="#ff0"/>
 <path transform="matrix(1.5 0 0 1.0417 -244.53 -188.5)" d="m440.93 450.31a0.5051 6.0609 0 1 1 -1.0102 0 0.5051 6.0609 0 1 1 1.0102 0z" fill="#ff0"/>
 <path transform="matrix(1.5 0 0 1.0417 -246.88 -188.63)" d="m440.93 450.31a0.5051 6.0609 0 1 1 -1.0102 0 0.5051 6.0609 0 1 1 1.0102 0z" fill="#ff0"/>
 <path transform="matrix(1.5 0 0 1.0417 -249.53 -188.52)" d="m440.93 450.31a0.5051 6.0609 0 1 1 -1.0102 0 0.5051 6.0609 0 1 1 1.0102 0z" fill="#ff0"/>
 <path transform="matrix(1.5 0 0 1.0417 -252.15 -187.76)" d="m440.93 450.31a0.5051 6.0609 0 1 1 -1.0102 0 0.5051 6.0609 0 1 1 1.0102 0z" fill="#ff0"/>
 <path transform="matrix(1.5 0 0 1.0417 -254.8 -188.01)" d="m440.93 450.31a0.5051 6.0609 0 1 1 -1.0102 0 0.5051 6.0609 0 1 1 1.0102 0z" fill="#ff0"/>
 <path transform="matrix(1.5 0 0 1.0417 -257.15 -188.14)" d="m440.93 450.31a0.5051 6.0609 0 1 1 -1.0102 0 0.5051 6.0609 0 1 1 1.0102 0z" fill="#ff0"/>
 <path transform="matrix(1.5 0 0 1.0417 -259.8 -188.39)" d="m440.93 450.31a0.5051 6.0609 0 1 1 -1.0102 0 0.5051 6.0609 0 1 1 1.0102 0z" fill="#ff0"/>
 <path transform="matrix(1.5 0 0 1.0417 -262.72 -187.95)" d="m440.93 450.31a0.5051 6.0609 0 1 1 -1.0102 0 0.5051 6.0609 0 1 1 1.0102 0z" fill="#ff0"/>
 <path transform="matrix(1.5 0 0 1.0417 -265.37 -188.2)" d="m440.93 450.31a0.5051 6.0609 0 1 1 -1.0102 0 0.5051 6.0609 0 1 1 1.0102 0z" fill="#ff0"/>
 <path transform="matrix(1.5 0 0 1.0417 -267.72 -188.33)" d="m440.93 450.31a0.5051 6.0609 0 1 1 -1.0102 0 0.5051 6.0609 0 1 1 1.0102 0z" fill="#ff0"/>
 <path transform="matrix(1.5 0 0 1.0417 -270.37 -188.58)" d="m440.93 450.31a0.5051 6.0609 0 1 1 -1.0102 0 0.5051 6.0609 0 1 1 1.0102 0z" fill="#ff0"/>
 <path transform="matrix(1.5 0 0 1.0417 -273.09 -188.36)" d="m440.93 450.31a0.5051 6.0609 0 1 1 -1.0102 0 0.5051 6.0609 0 1 1 1.0102 0z" fill="#ff0"/>
 <path transform="matrix(1.5 0 0 1.0417 -275.74 -188.61)" d="m440.93 450.31a0.5051 6.0609 0 1 1 -1.0102 0 0.5051 6.0609 0 1 1 1.0102 0z" fill="#ff0"/>
 <path transform="matrix(1.5 0 0 1.0417 -278.09 -188.74)" d="m440.93 450.31a0.5051 6.0609 0 1 1 -1.0102 0 0.5051 6.0609 0 1 1 1.0102 0z" fill="#ff0"/>
 <path transform="matrix(1.5 0 0 1.0417 -280.74 -188.49)" d="m440.93 450.31a0.5051 6.0609 0 1 1 -1.0102 0 0.5051 6.0609 0 1 1 1.0102 0z" fill="#ff0"/>
 <path transform="matrix(1.5 0 0 1.0417 -283.66 -188.55)" d="m440.93 450.31a0.5051 6.0609 0 1 1 -1.0102 0 0.5051 6.0609 0 1 1 1.0102 0z" fill="#ff0"/>
 <path transform="matrix(1.5 0 0 1.0417 -286.31 -188.8)" d="m440.93 450.31a0.5051 6.0609 0 1 1 -1.0102 0 0.5051 6.0609 0 1 1 1.0102 0z" fill="#ff0"/>
 <path transform="matrix(1.5 0 0 1.0417 -288.91 -188.49)" d="m440.93 450.31a0.5051 6.0609 0 1 1 -1.0102 0 0.5051 6.0609 0 1 1 1.0102 0z" fill="#ff0"/>
 <path transform="matrix(1.5 0 0 1.0417 -291.31 -188.49)" d="m440.93 450.31a0.5051 6.0609 0 1 1 -1.0102 0 0.5051 6.0609 0 1 1 1.0102 0z" fill="#ff0"/>
 <path transform="matrix(1.5 0 0 1.0417 -293.85 -188.04)" d="m440.93 450.31a0.5051 6.0609 0 1 1 -1.0102 0 0.5051 6.0609 0 1 1 1.0102 0z" fill="#ff0"/>
 <path transform="matrix(1.5 0 0 1.0417 -296.5 -188.3)" d="m440.93 450.31a0.5051 6.0609 0 1 1 -1.0102 0 0.5051 6.0609 0 1 1 1.0102 0z" fill="#ff0"/>
 <path transform="matrix(1.5 0 0 1.0417 -299.42 -187.85)" d="m440.93 450.31a0.5051 6.0609 0 1 1 -1.0102 0 0.5051 6.0609 0 1 1 1.0102 0z" fill="#ff0"/>
 <path transform="matrix(1.5 0 0 1.0417 -302.07 -188.11)" d="m440.93 450.31a0.5051 6.0609 0 1 1 -1.0102 0 0.5051 6.0609 0 1 1 1.0102 0z" fill="#ff0"/>
 <path transform="matrix(1.5 0 0 1.0417 -304.42 -188.23)" d="m440.93 450.31a0.5051 6.0609 0 1 1 -1.0102 0 0.5051 6.0609 0 1 1 1.0102 0z" fill="#ff0"/>
 <path transform="matrix(1.5 0 0 1.0417 -307.07 -188.48)" d="m440.93 450.31a0.5051 6.0609 0 1 1 -1.0102 0 0.5051 6.0609 0 1 1 1.0102 0z" fill="#ff0"/>
 <path transform="matrix(1.5 0 0 1.0417 -309.79 -188.26)" d="m440.93 450.31a0.5051 6.0609 0 1 1 -1.0102 0 0.5051 6.0609 0 1 1 1.0102 0z" fill="#ff0"/>
 <path transform="matrix(1.5 0 0 1.0417 -312.44 -188.52)" d="m440.93 450.31a0.5051 6.0609 0 1 1 -1.0102 0 0.5051 6.0609 0 1 1 1.0102 0z" fill="#ff0"/>
 <path transform="matrix(1.5 0 0 1.0417 -314.79 -188.64)" d="m440.93 450.31a0.5051 6.0609 0 1 1 -1.0102 0 0.5051 6.0609 0 1 1 1.0102 0z" fill="#ff0"/>
 <path transform="matrix(1.5 0 0 1.0417 -317.45 -188.54)" d="m440.93 450.31a0.5051 6.0609 0 1 1 -1.0102 0 0.5051 6.0609 0 1 1 1.0102 0z" fill="#ff0"/>
 <path transform="matrix(1.5 0 0 1.0417 -320.36 -188.45)" d="m440.93 450.31a0.5051 6.0609 0 1 1 -1.0102 0 0.5051 6.0609 0 1 1 1.0102 0z" fill="#ff0"/>
 <path transform="matrix(1.5 0 0 1.0417 -323.01 -188.71)" d="m440.93 450.31a0.5051 6.0609 0 1 1 -1.0102 0 0.5051 6.0609 0 1 1 1.0102 0z" fill="#ff0"/>
 <path transform="matrix(1.5 0 0 1.0417 -325.62 -188.49)" d="m440.93 450.31a0.5051 6.0609 0 1 1 -1.0102 0 0.5051 6.0609 0 1 1 1.0102 0z" fill="#ff0"/>
 <path transform="matrix(1.5 0 0 1.0417 -328.01 -188.49)" d="m440.93 450.31a0.5051 6.0609 0 1 1 -1.0102 0 0.5051 6.0609 0 1 1 1.0102 0z" fill="#ff0"/>
 <path transform="matrix(1.5 0 0 1.0417 -170.06 -187.6)" d="m440.93 450.31a0.5051 6.0609 0 1 1 -1.0102 0 0.5051 6.0609 0 1 1 1.0102 0z" fill="#ff0"/>
 <path transform="matrix(1.5 0 0 1.0417 -172.71 -187.85)" d="m440.93 450.31a0.5051 6.0609 0 1 1 -1.0102 0 0.5051 6.0609 0 1 1 1.0102 0z" fill="#ff0"/>
 <path transform="matrix(1.5 0 0 1.0417 -175.06 -187.98)" d="m440.93 450.31a0.5051 6.0609 0 1 1 -1.0102 0 0.5051 6.0609 0 1 1 1.0102 0z" fill="#ff0"/>
 <path transform="matrix(1.5 0 0 1.0417 -177.71 -188.23)" d="m440.93 450.31a0.5051 6.0609 0 1 1 -1.0102 0 0.5051 6.0609 0 1 1 1.0102 0z" fill="#ff0"/>
 <path transform="matrix(1.5 0 0 1.0417 -180.63 -187.79)" d="m440.93 450.31a0.5051 6.0609 0 1 1 -1.0102 0 0.5051 6.0609 0 1 1 1.0102 0z" fill="#ff0"/>
 <path transform="matrix(1.5 0 0 1.0417 -183.28 -188.04)" d="m440.93 450.31a0.5051 6.0609 0 1 1 -1.0102 0 0.5051 6.0609 0 1 1 1.0102 0z" fill="#ff0"/>
 <path transform="matrix(1.5 0 0 1.0417 -185.63 -188.17)" d="m440.93 450.31a0.5051 6.0609 0 1 1 -1.0102 0 0.5051 6.0609 0 1 1 1.0102 0z" fill="#ff0"/>
 <path transform="matrix(1.5 0 0 1.0417 -188.28 -188.42)" d="m440.93 450.31a0.5051 6.0609 0 1 1 -1.0102 0 0.5051 6.0609 0 1 1 1.0102 0z" fill="#ff0"/>
 <path transform="matrix(1.5 0 0 1.0417 -191 -188.2)" d="m440.93 450.31a0.5051 6.0609 0 1 1 -1.0102 0 0.5051 6.0609 0 1 1 1.0102 0z" fill="#ff0"/>
 <path transform="matrix(1.5 0 0 1.0417 -193.65 -188.45)" d="m440.93 450.31a0.5051 6.0609 0 1 1 -1.0102 0 0.5051 6.0609 0 1 1 1.0102 0z" fill="#ff0"/>
 <path transform="matrix(1.5 0 0 1.0417 -196 -188.58)" d="m440.93 450.31a0.5051 6.0609 0 1 1 -1.0102 0 0.5051 6.0609 0 1 1 1.0102 0z" fill="#ff0"/>
 <path transform="matrix(1.5 0 0 1.0417 -198.65 -188.83)" d="m440.93 450.31a0.5051 6.0609 0 1 1 -1.0102 0 0.5051 6.0609 0 1 1 1.0102 0z" fill="#ff0"/>
 <path transform="matrix(1.5 0 0 1.0417 -339 -188.49)" d="m440.93 450.31a0.5051 6.0609 0 1 1 -1.0102 0 0.5051 6.0609 0 1 1 1.0102 0z" fill="#ff0"/>
 <path transform="matrix(1.5 0 0 1.0417 -341.65 -188.75)" d="m440.93 450.31a0.5051 6.0609 0 1 1 -1.0102 0 0.5051 6.0609 0 1 1 1.0102 0z" fill="#ff0"/>
 <path transform="matrix(1.5 0 0 1.0417 -344.01 -188.51)" d="m440.93 450.31a0.5051 6.0609 0 1 1 -1.0102 0 0.5051 6.0609 0 1 1 1.0102 0z" fill="#ff0"/>
 <path transform="matrix(1.5 0 0 1.0417 -346.66 -188.77)" d="m440.93 450.31a0.5051 6.0609 0 1 1 -1.0102 0 0.5051 6.0609 0 1 1 1.0102 0z" fill="#ff0"/>
 <path transform="matrix(1.5 0 0 1.0417 -349.57 -188.68)" d="m440.93 450.31a0.5051 6.0609 0 1 1 -1.0102 0 0.5051 6.0609 0 1 1 1.0102 0z" fill="#ff0"/>
 <path transform="matrix(1.5 0 0 1.0417 -352.23 -188.58)" d="m440.93 450.31a0.5051 6.0609 0 1 1 -1.0102 0 0.5051 6.0609 0 1 1 1.0102 0z" fill="#ff0"/>
 <path transform="matrix(1.5 0 0 1.0417 -354.58 -188.7)" d="m440.93 450.31a0.5051 6.0609 0 1 1 -1.0102 0 0.5051 6.0609 0 1 1 1.0102 0z" fill="#ff0"/>
 <path transform="matrix(1.5 0 0 1.0417 -357.23 -188.96)" d="m440.93 450.31a0.5051 6.0609 0 1 1 -1.0102 0 0.5051 6.0609 0 1 1 1.0102 0z" fill="#ff0"/>
 <path transform="matrix(1.5 0 0 1.0417 -359.95 -188.74)" d="m440.93 450.31a0.5051 6.0609 0 1 1 -1.0102 0 0.5051 6.0609 0 1 1 1.0102 0z" fill="#ff0"/>
 <path transform="matrix(1.5 0 0 1.0417 -362.6 -188.99)" d="m440.93 450.31a0.5051 6.0609 0 1 1 -1.0102 0 0.5051 6.0609 0 1 1 1.0102 0z" fill="#ff0"/>
 <path transform="matrix(1.5 0 0 1.0417 -364.95 -189.11)" d="m440.93 450.31a0.5051 6.0609 0 1 1 -1.0102 0 0.5051 6.0609 0 1 1 1.0102 0z" fill="#ff0"/>
 <path transform="matrix(1.5 0 0 1.0417 -367.6 -189.37)" d="m440.93 450.31a0.5051 6.0609 0 1 1 -1.0102 0 0.5051 6.0609 0 1 1 1.0102 0z" fill="#ff0"/>
 <path transform="matrix(1.5 0 0 1.0417 -370.37 -188.74)" d="m440.93 450.31a0.5051 6.0609 0 1 1 -1.0102 0 0.5051 6.0609 0 1 1 1.0102 0z" fill="#ff0"/>
 <path transform="matrix(1.5 0 0 1.0417 -373.02 -189)" d="m440.93 450.31a0.5051 6.0609 0 1 1 -1.0102 0 0.5051 6.0609 0 1 1 1.0102 0z" fill="#ff0"/>
 <path d="m284.61 285.63h167.94v1.2627h-167.94z" fill="#808000" opacity=".508"/>
 <path d="m324.64 263.77h4.2857v23.571h-4.2857z" fill="#fff"/>
 <path d="m183.4 210.92h24.244v1.5152h-24.244z" fill="#808080" opacity=".508"/>
 <path d="m183.23 215.92h24.244v1.5152h-24.244z" fill="#808080" opacity=".508"/>
 <path d="m183.63 220.63h24.244v1.5152h-24.244z" fill="#808080" opacity=".508"/>
 <path d="m183.63 225.38h24.244v1.5152h-24.244z" fill="#808080" opacity=".508"/>
 <path d="m183.81 229.68h24.244v1.5152h-24.244z" fill="#808080" opacity=".508"/>
 <path d="m183.65 234.68h24.244v1.5152h-24.244z" fill="#808080" opacity=".508"/>
 <path d="m184.05 239.4h24.244v1.5152h-24.244z" fill="#808080" opacity=".508"/>
 <path d="m184.05 244.15h24.244v1.5152h-24.244z" fill="#808080" opacity=".508"/>
 <path d="m192.3252,273.8553c.0065.116.0196.226.0392.3304 .0196.0924.0653.1795.1111.2839 .0719.0983.2091.2316.2614.3766s.1307.3127.0849.4983c-.0065.1738-.0653.4115-.2026.5794-.1372.1622-.3529.3015-.5685.4172-.2026.0755-.3725.116-.5816.1912-.1895.0755-.4248.151-.5816.313-.1307.1449-.2222.3476-.2483.6082h-.2418c-.0194-.2606-.1109-.4634-.2483-.6082-.1438-.1622-.3725-.2377-.5814-.313-.2026-.0752-.3726-.1157-.5816-.1912-.196-.1157-.4119-.2549-.5685-.4172-.1243-.1679-.1832-.4056-.2026-.5794-.0263-.1854.0523-.3592.0849-.4983 .0719-.1448.2091-.2783.2612-.3766 .0588-.1043.1046-.1914.1111-.2839 .0263-.1043.0392-.2144.0392-.3304v-4.1428c0-.1217-.0129-.2316-.0392-.3304-.0065-.104-.0523-.1912-.1111-.2839-.0521-.1101-.1895-.2433-.2612-.3766-.0327-.1506-.1111-.3245-.0849-.4983 .0194-.1795.0784-.4344.2026-.5854 .1566-.1738.3725-.3185.5685-.4112 .2089-.0927.379-.1333.5816-.1914 .2089-.0924.4376-.1679.5814-.3127 .1374-.1566.2289-.3592.2483-.6082h.2418c.0263.249.1176.4518.2483.6082 .1568.1449.3921.2203.5816.3127 .2091.0581.379.0987.5816.1914 .2156.0927.4313.2374.5685.4112 .1372.151.196.4058.2026.5854 .0457.1738-.0327.3476-.0849.4983-.0523.1333-.1895.2665-.2614.3766-.0457.0927-.0915.1798-.1111.2839s-.0327.2087-.0392.3304v4.1428z" fill="#6d2203" fill-rule="evenodd"/>
 <path d="m190.2115,274.9682v-9.3458c.0849.0116.1307.0349.2091.0695s.1372.0406.2024.1217c.0719.0521.1634.1738.1766.2783 .0392.0927-.0263.1972-.0719.3127-.0392.0927-.1632.116-.2222.3187-.0392.2144-.0719.5388-.098.8809-.0131.3127-.0196.1912-.0196.9964 0,.7997.0065,2.8565.0196,3.7314 .0261.8403.0327,1.0547.0719,1.379 .0588.3245.1243.4231.1701.5854 .0392.1333.0719.2144.0457.3127-.0196.0871-.0786.1738-.1503.2377-.0392.0462-.1372.0695-.196.0927-.0525.0172-.0982.0344-.1374.0288z" fill="#8d5c25" fill-rule="evenodd"/>
 <path d="m190.6671,266.1617v9.4154l-.3004.1104v-9.6473l.3004.1215z" fill="#b0722e" fill-rule="evenodd"/>
 <path d="m190.6912,271.5761c-.5358-.0233-1.078-.0406-1.6988-.029-.5947,0-1.2352.0116-1.9213.0346v.4581c.6861-.0233 1.3267-.0349 1.9213-.0349 .6208-.0116 1.1629.0056 1.6988.029v-.4577z" fill="#1d0e82" fill-rule="evenodd"/>
 <path d="m191.3969,271.5774c-.5358-.0233-1.078-.0349-1.6988-.0349-.5947,0-1.2352.006-1.9213.0406v.4577c.6861-.0346 1.3267-.0405 1.9213-.0405 .6208,0 1.1629.0116 1.6988.0349v-.4577z" fill="#fb0f0c" fill-rule="evenodd"/>
 <path d="m192.0411,271.5764c-.5358-.0233-1.078-.0406-1.6988-.0293-.5947,0-1.2352.0116-1.9213.0349v.4577c.6861-.0346 1.3267-.0405 1.9213-.0405 .6208,0 1.1629.0116 1.6988.0349v-.4577z" fill="#fb0f0c" fill-rule="evenodd"/>
 <path d="m193.3298,272.0084c-.5358.0172-1.078.0349-1.6988.029l-1.9213-.0346v-.4581c.6861.0293 1.3267.0349 1.9213.0406l1.6988-.0346v.4577z" fill="#f0a04a" fill-rule="evenodd"/>
 <path d="m202.2071,273.8553c.0065.116.0196.226.0392.3304 .0196.0924.0653.1795.1111.2839 .0719.0983.2091.2316.2614.3766s.1307.3127.0849.4983c-.0065.1738-.0653.4115-.2026.5794-.1372.1622-.3529.3015-.5685.4172-.2026.0755-.3725.116-.5816.1912-.1895.0755-.4248.151-.5816.313-.1307.1449-.2222.3476-.2483.6082h-.2418c-.0194-.2606-.1109-.4634-.2483-.6082-.1438-.1622-.3725-.2377-.5814-.313-.2026-.0752-.3726-.1157-.5816-.1912-.196-.1157-.4119-.2549-.5685-.4172-.1243-.1679-.1832-.4056-.2026-.5794-.0263-.1854.0523-.3592.085-.4983 .0719-.1448.2091-.2783.2612-.3766 .0588-.1043.1046-.1914.1111-.2839 .0263-.1043.0392-.2144.0392-.3304v-4.1428c0-.1217-.0129-.2316-.0392-.3304-.0065-.104-.0523-.1912-.1111-.2839-.0521-.1101-.1895-.2433-.2612-.3766-.0327-.1506-.1111-.3245-.085-.4983 .0194-.1795.0784-.4344.2026-.5854 .1566-.1738.3725-.3185.5685-.4112 .2089-.0927.379-.1333.5816-.1914 .2089-.0924.4376-.1679.5814-.3127 .1374-.1566.2289-.3592.2483-.6082h.2418c.0263.249.1176.4518.2483.6082 .1568.1449.3921.2203.5816.3127 .2091.0581.379.0987.5816.1914 .2156.0927.4313.2374.5685.4112 .1372.151.196.4058.2026.5854 .0457.1738-.0327.3476-.0849.4983-.0523.1333-.1895.2665-.2614.3766-.0457.0927-.0915.1798-.1111.2839s-.0327.2087-.0392.3304v4.1428z" fill="#6d2203" fill-rule="evenodd"/>
 <path d="m200.0934,274.9682v-9.3458c.0849.0116.1307.0349.2091.0695s.1372.0406.2024.1217c.0719.0521.1634.1738.1766.2783 .0392.0927-.0263.1972-.0719.3127-.0392.0927-.1632.116-.2222.3187-.0392.2144-.0719.5388-.098.8809-.0131.3127-.0196.1912-.0196.9964 0,.7997.0065,2.8565.0196,3.7314 .0261.8403.0327,1.0547.0719,1.379 .0588.3245.1243.4231.1701.5854 .0392.1333.0719.2144.0457.3127-.0196.0871-.0786.1738-.1503.2377-.0392.0462-.1372.0695-.196.0927-.0525.0172-.0982.0344-.1374.0288z" fill="#8d5c25" fill-rule="evenodd"/>
 <path d="m200.549,266.1617v9.4154l-.3004.1104v-9.6473l.3004.1215z" fill="#b0722e" fill-rule="evenodd"/>
 <path d="m200.5731,271.5761c-.5358-.0233-1.078-.0406-1.6988-.029-.5947,0-1.2352.0116-1.9213.0346v.4581c.6861-.0233 1.3267-.0349 1.9213-.0349 .6208-.0116 1.1629.0056 1.6988.029v-.4577z" fill="#1d0e82" fill-rule="evenodd"/>
 <path d="m201.2788,271.5774c-.5358-.0233-1.078-.0349-1.6988-.0349-.5947,0-1.2352.006-1.9213.0406v.4577c.6861-.0346 1.3267-.0405 1.9213-.0405 .6208,0 1.1629.0116 1.6988.0349v-.4577z" fill="#fb0f0c" fill-rule="evenodd"/>
 <path d="m201.923,271.5764c-.5358-.0233-1.078-.0406-1.6988-.0293-.5947,0-1.2352.0116-1.9213.0349v.4577c.6861-.0346 1.3267-.0405 1.9213-.0405 .6208,0 1.1629.0116 1.6988.0349v-.4577z" fill="#fb0f0c" fill-rule="evenodd"/>
 <path d="m203.2116,272.0084c-.5358.0172-1.078.0349-1.6988.029l-1.9213-.0346v-.4581c.6861.0293 1.3267.0349 1.9213.0406l1.6988-.0346v.4577z" fill="#f0a04a" fill-rule="evenodd"/>
 <path d="m211.0665,273.8553c.0065.116.0196.226.0392.3304 .0196.0924.0653.1795.1111.2839 .0719.0983.2091.2316.2614.3766s.1307.3127.0849.4983c-.0065.1738-.0653.4115-.2026.5794-.1372.1622-.3529.3015-.5685.4172-.2026.0755-.3725.116-.5816.1912-.1895.0755-.4248.151-.5816.313-.1307.1449-.2222.3476-.2483.6082h-.2418c-.0194-.2606-.1109-.4634-.2483-.6082-.1438-.1622-.3725-.2377-.5814-.313-.2026-.0752-.3726-.1157-.5816-.1912-.196-.1157-.4119-.2549-.5685-.4172-.1243-.1679-.1832-.4056-.2026-.5794-.0263-.1854.0523-.3592.085-.4983 .0719-.1448.2091-.2783.2612-.3766 .0588-.1043.1046-.1914.1111-.2839 .0263-.1043.0392-.2144.0392-.3304v-4.1428c0-.1217-.0129-.2316-.0392-.3304-.0065-.104-.0523-.1912-.1111-.2839-.0521-.1101-.1895-.2433-.2612-.3766-.0327-.1506-.1111-.3245-.085-.4983 .0194-.1795.0784-.4344.2026-.5854 .1566-.1738.3725-.3185.5685-.4112 .2089-.0927.379-.1333.5816-.1914 .2089-.0924.4376-.1679.5814-.3127 .1374-.1566.2289-.3592.2483-.6082h.2418c.0263.249.1176.4518.2483.6082 .1568.1449.3921.2203.5816.3127 .2091.0581.379.0987.5816.1914 .2156.0927.4313.2374.5685.4112 .1372.151.196.4058.2026.5854 .0457.1738-.0327.3476-.0849.4983-.0523.1333-.1895.2665-.2614.3766-.0457.0927-.0915.1798-.1111.2839s-.0327.2087-.0392.3304v4.1428z" fill="#6d2203" fill-rule="evenodd"/>
 <path d="m208.9528,274.9682v-9.3458c.0849.0116.1307.0349.2091.0695s.1372.0406.2024.1217c.0719.0521.1634.1738.1766.2783 .0392.0927-.0263.1972-.0719.3127-.0392.0927-.1632.116-.2222.3187-.0392.2144-.0719.5388-.098.8809-.0131.3127-.0196.1912-.0196.9964 0,.7997.0065,2.8565.0196,3.7314 .0261.8403.0327,1.0547.0719,1.379 .0588.3245.1243.4231.1701.5854 .0392.1333.0719.2144.0457.3127-.0196.0871-.0786.1738-.1503.2377-.0392.0462-.1372.0695-.196.0927-.0525.0172-.0982.0344-.1374.0288z" fill="#8d5c25" fill-rule="evenodd"/>
 <path d="m209.4084,266.1617v9.4154l-.3004.1104v-9.6473l.3004.1215z" fill="#b0722e" fill-rule="evenodd"/>
 <path d="m209.4325,271.5761c-.5358-.0233-1.078-.0406-1.6988-.029-.5947,0-1.2352.0116-1.9213.0346v.4581c.6861-.0233 1.3267-.0349 1.9213-.0349 .6208-.0116 1.1629.0056 1.6988.029v-.4577z" fill="#1d0e82" fill-rule="evenodd"/>
 <path d="m210.1382,271.5774c-.5358-.0233-1.078-.0349-1.6988-.0349-.5947,0-1.2352.006-1.9213.0406v.4577c.6861-.0346 1.3267-.0405 1.9213-.0405 .6208,0 1.1629.0116 1.6988.0349v-.4577z" fill="#fb0f0c" fill-rule="evenodd"/>
 <path d="m210.7824,271.5764c-.5358-.0233-1.078-.0406-1.6988-.0293-.5947,0-1.2352.0116-1.9213.0349v.4577c.6861-.0346 1.3267-.0405 1.9213-.0405 .6208,0 1.1629.0116 1.6988.0349v-.4577z" fill="#fb0f0c" fill-rule="evenodd"/>
 <path d="m212.0711,272.0084c-.5358.0172-1.078.0349-1.6988.029l-1.9213-.0346v-.4581c.6861.0293 1.3267.0349 1.9213.0406l1.6988-.0346v.4577z" fill="#f0a04a" fill-rule="evenodd"/>
 <path d="m190.9792,259.7341c-.116.0065-.226.0196-.3304.0392-.0924.0196-.1795.0654-.2839.1111-.0983.0719-.2316.2091-.3766.2614s-.3127.1307-.4983.0849c-.1738-.0065-.4115-.0653-.5794-.2026-.1622-.1372-.3015-.3529-.4172-.5685-.0755-.2026-.116-.3725-.1912-.5816-.0755-.1895-.151-.4248-.3131-.5816-.1448-.1307-.3476-.2222-.6082-.2483v-.2418c.2606-.0194.4634-.1109.6082-.2483 .1622-.1438.2377-.3725.3131-.5814 .0752-.2026.1157-.3727.1912-.5816 .1157-.196.2549-.4119.4172-.5685 .1679-.1243.4056-.1831.5794-.2026 .1854-.0263.3592.0523.4983.0849 .1448.0719.2783.2091.3766.2612 .1043.0588.1914.1046.2839.1111 .1043.0263.2144.0392.3304.0392h4.1428c.1217,0 .2316-.0129.3304-.0392 .104-.0065.1912-.0523.2839-.1111 .1101-.0521.2433-.1895.3766-.2612 .1506-.0327.3245-.1111.4983-.0849 .1795.0194.4344.0784.5854.2026 .1738.1566.3185.3725.4112.5685 .0927.2089.1333.379.1914.5816 .0924.2089.1679.4376.3127.5814 .1566.1374.3592.2289.6082.2483v.2418c-.249.0263-.4518.1176-.6082.2483-.1448.1568-.2203.3921-.3127.5816-.0581.2091-.0987.379-.1914.5816-.0927.2156-.2374.4313-.4112.5685-.151.1372-.4057.196-.5854.2026-.1738.0457-.3476-.0327-.4983-.0849-.1333-.0523-.2665-.1895-.3766-.2614-.0927-.0457-.1798-.0915-.2839-.1111s-.2087-.0327-.3304-.0392h-4.1428z" fill="#6d2203" fill-rule="evenodd"/>
 <path d="m189.8664,257.6205h9.3459c-.0116.0849-.0349.1307-.0695.2091s-.0406.1372-.1217.2024c-.0522.0719-.1738.1634-.2783.1766-.0927.0392-.1972-.0263-.3127-.0719-.0927-.0392-.116-.1632-.3187-.2222-.2144-.0392-.5388-.0719-.8809-.098-.3127-.0131-.1912-.0196-.9964-.0196-.7997,0-2.8565.0066-3.7314.0196-.8403.0261-1.0547.0327-1.379.0719-.3245.0588-.4231.1243-.5854.1701-.1333.0392-.2144.0719-.3127.0457-.0871-.0196-.1738-.0786-.2377-.1503-.0462-.0392-.0695-.1372-.0927-.196-.0172-.0525-.0344-.0982-.0288-.1374z" fill="#8d5c25" fill-rule="evenodd"/>
 <path d="m198.6729,258.0761h-9.4154l-.1104-.3004h9.6473l-.1215.3004z" fill="#b0722e" fill-rule="evenodd"/>
 <path d="m193.2584,258.1002c.0233-.5358.0406-1.078.029-1.6988 0-.5947-.0116-1.2352-.0346-1.9213h-.4581c.0233.6861.0349,1.3267.0349,1.9213 .0116.6208-.0056,1.163-.029,1.6988h.4577z" fill="#1d0e82" fill-rule="evenodd"/>
 <path d="m193.2571,258.8059c.0233-.5358.0349-1.078.0349-1.6988 0-.5947-.006-1.2352-.0406-1.9213h-.4577c.0346.6861.0405,1.3267.0405,1.9213 0,.6207-.0116,1.1629-.0349,1.6988h.4577z" fill="#fb0f0c" fill-rule="evenodd"/>
 <path d="m193.2582,259.4501c.0233-.5358.0406-1.078.0293-1.6988 0-.5947-.0116-1.2352-.0349-1.9213h-.4577c.0346.6861.0405,1.3267.0405,1.9213 0,.6208-.0116,1.163-.0349,1.6988h.4577z" fill="#fb0f0c" fill-rule="evenodd"/>
 <path d="m192.8262,260.7387c-.0172-.5358-.0349-1.078-.029-1.6988 .0056-.5947.0172-1.2352.0346-1.9213h.4581c-.0293.6861-.0349,1.3267-.0406,1.9213 .0056.6208.0172,1.1629.0346,1.6988h-.4577z" fill="#f0a04a" fill-rule="evenodd"/>
 <path d="m342.1446,266.5679c-.116.0065-.226.0196-.3304.0392-.0924.0196-.1794.0654-.2839.1111-.0983.0719-.2316.2091-.3766.2614s-.3127.1307-.4983.0849c-.1738-.0065-.4115-.0653-.5794-.2026-.1622-.1372-.3014-.3529-.4172-.5685-.0755-.2026-.116-.3725-.1912-.5816-.0755-.1895-.151-.4248-.3131-.5816-.1448-.1307-.3476-.2222-.6082-.2483v-.2418c.2606-.0194.4634-.1109.6082-.2483 .1622-.1438.2377-.3725.3131-.5814 .0752-.2026.1157-.3727.1912-.5816 .1157-.196.2549-.4119.4172-.5685 .1679-.1243.4056-.1832.5794-.2026 .1854-.0263.3592.0523.4983.0849 .1449.0719.2783.2091.3766.2612 .1043.0588.1914.1046.2839.1111 .1043.0263.2144.0392.3304.0392h4.1428c.1217,0 .2316-.0129.3304-.0392 .104-.0065.1912-.0523.2839-.1111 .1101-.0521.2434-.1895.3766-.2612 .1506-.0327.3245-.1111.4983-.085 .1795.0194.4344.0784.5854.2026 .1738.1566.3185.3725.4112.5685 .0927.2089.1333.379.1914.5816 .0924.2089.1679.4376.3127.5814 .1566.1374.3592.2289.6082.2483v.2418c-.249.0263-.4518.1176-.6082.2483-.1448.1568-.2203.3921-.3127.5816-.0581.2091-.0987.379-.1914.5816-.0927.2156-.2374.4313-.4112.5685-.151.1372-.4057.196-.5854.2026-.1738.0457-.3476-.0327-.4983-.0849-.1333-.0523-.2665-.1895-.3766-.2614-.0927-.0457-.1798-.0915-.2839-.1111s-.2088-.0327-.3304-.0392h-4.1428z" fill="#6d2203" fill-rule="evenodd"/>
 <path d="m341.0318,264.4543h9.3458c-.0116.0849-.0349.1307-.0695.2091s-.0406.1372-.1217.2024c-.0522.0719-.1738.1634-.2783.1766-.0927.0392-.1972-.0263-.3127-.0719-.0927-.0392-.116-.1632-.3187-.2222-.2144-.0392-.5389-.0719-.8809-.098-.3127-.0131-.1912-.0196-.9964-.0196-.7997,0-2.8565.0066-3.7314.0196-.8403.0261-1.0547.0327-1.379.0719-.3245.0588-.4231.1243-.5854.1701-.1333.0392-.2144.0719-.3127.0457-.0871-.0196-.1738-.0786-.2377-.1503-.0462-.0392-.0695-.1372-.0927-.196-.0172-.0525-.0344-.0982-.0288-.1374z" fill="#8d5c25" fill-rule="evenodd"/>
 <path d="m349.8383,264.9099h-9.4154l-.1104-.3004h9.6473l-.1215.3004z" fill="#b0722e" fill-rule="evenodd"/>
 <path d="m344.4239,264.934c.0233-.5358.0406-1.078.029-1.6988 0-.5947-.0116-1.2352-.0346-1.9213h-.4581c.0233.6861.0349,1.3267.0349,1.9213 .0116.6208-.0056,1.163-.029,1.6988h.4577z" fill="#1d0e82" fill-rule="evenodd"/>
 <path d="m344.4226,265.6397c.0233-.5358.0349-1.078.0349-1.6988 0-.5947-.006-1.2352-.0406-1.9213h-.4577c.0346.6861.0405,1.3267.0405,1.9213 0,.6207-.0116,1.1629-.0349,1.6988h.4577z" fill="#fb0f0c" fill-rule="evenodd"/>
 <path d="m344.4236,266.2839c.0233-.5358.0406-1.078.0293-1.6988 0-.5947-.0116-1.2352-.0349-1.9213h-.4577c.0346.6861.0405,1.3267.0405,1.9213 0,.6208-.0116,1.163-.0349,1.6988h.4577z" fill="#fb0f0c" fill-rule="evenodd"/>
 <path d="m343.9916,267.5725c-.0172-.5358-.0349-1.078-.029-1.6988 .0056-.5947.0172-1.2352.0346-1.9213h.4581c-.0293.6861-.0349,1.3267-.0406,1.9213 .0056.6208.0172,1.163.0346,1.6988h-.4577z" fill="#f0a04a" fill-rule="evenodd"/>
 <path d="m301.7385,194.8471c-.116.0065-.226.0196-.3304.0392-.0924.0196-.1794.0654-.2839.1111-.0983.0719-.2316.2091-.3766.2614s-.3127.1307-.4983.0849c-.1738-.0065-.4115-.0653-.5794-.2026-.1622-.1372-.3014-.3529-.4172-.5685-.0755-.2026-.116-.3725-.1912-.5816-.0755-.1895-.151-.4247-.313-.5816-.1449-.1307-.3476-.2222-.6082-.2483v-.2418c.2606-.0194.4634-.1109.6082-.2483 .1622-.1438.2377-.3725.313-.5814 .0752-.2026.1157-.3727.1912-.5816 .1157-.196.2549-.4119.4172-.5685 .1679-.1243.4056-.1832.5794-.2026 .1854-.0263.3592.0523.4983.0849 .1449.0719.2783.2091.3766.2612 .1043.0588.1914.1046.2839.1111 .1043.0263.2144.0392.3304.0392h4.1428c.1217,0 .2316-.0129.3304-.0392 .104-.0065.1912-.0523.2839-.1111 .1101-.0521.2433-.1895.3766-.2612 .1507-.0327.3245-.1111.4983-.0849 .1795.0194.4344.0784.5854.2026 .1738.1566.3185.3725.4112.5685 .0927.2089.1333.379.1914.5816 .0924.2089.1679.4376.3127.5814 .1566.1374.3592.2289.6082.2483v.2418c-.249.0263-.4518.1176-.6082.2483-.1449.1568-.2203.3921-.3127.5816-.0581.2091-.0987.379-.1914.5816-.0927.2156-.2374.4313-.4112.5685-.151.1372-.4058.196-.5854.2026-.1738.0457-.3476-.0327-.4983-.0849-.1333-.0523-.2665-.1895-.3766-.2614-.0927-.0457-.1798-.0915-.2839-.1111s-.2088-.0327-.3304-.0392h-4.1428z" fill="#6d2203" fill-rule="evenodd"/>
 <path d="m300.6257,192.7335h9.3459c-.0116.085-.0349.1307-.0695.2091s-.0406.1372-.1217.2024c-.0521.0719-.1738.1634-.2783.1766-.0927.0392-.1972-.0263-.3127-.0719-.0927-.0392-.116-.1632-.3187-.2222-.2144-.0392-.5388-.0719-.8809-.098-.3127-.0131-.1912-.0196-.9964-.0196-.7997,0-2.8565.0066-3.7314.0196-.8403.0261-1.0547.0327-1.379.0719-.3245.0588-.4231.1243-.5854.1701-.1333.0392-.2144.0719-.3127.0457-.0871-.0196-.1738-.0786-.2377-.1503-.0462-.0392-.0695-.1372-.0927-.196-.0172-.0525-.0344-.0982-.0288-.1374z" fill="#8d5c25" fill-rule="evenodd"/>
 <path d="m309.4322,193.1891h-9.4154l-.1104-.3004h9.6473l-.1215.3004z" fill="#b0722e" fill-rule="evenodd"/>
 <path d="m304.0178,193.2131c.0233-.5358.0406-1.078.029-1.6988 0-.5947-.0116-1.2352-.0346-1.9213h-.4581c.0233.6861.0349,1.3267.0349,1.9213 .0116.6208-.0056,1.163-.029,1.6988h.4577z" fill="#1d0e82" fill-rule="evenodd"/>
 <path d="m304.0165,193.9189c.0233-.5358.0349-1.078.0349-1.6988 0-.5947-.006-1.2352-.0406-1.9213h-.4577c.0346.6861.0405,1.3267.0405,1.9213 0,.6207-.0116,1.1629-.0349,1.6988h.4577z" fill="#fb0f0c" fill-rule="evenodd"/>
 <path d="m304.0175,194.5631c.0233-.5358.0406-1.078.0293-1.6988 0-.5947-.0116-1.2352-.0349-1.9213h-.4577c.0346.6861.0405,1.3267.0405,1.9213 0,.6208-.0116,1.163-.0349,1.6988h.4577z" fill="#fb0f0c" fill-rule="evenodd"/>
 <path d="m303.5855,195.8517c-.0172-.5358-.0349-1.078-.029-1.6988 .0056-.5947.0172-1.2352.0346-1.9213h.4581c-.0293.6861-.0349,1.3267-.0406,1.9213 .0056.6208.0172,1.1629.0346,1.6988h-.4577z" fill="#f0a04a" fill-rule="evenodd"/>
 <text x="432.7853" y="270.6377" fill="#ff0" font-family="ActionIs" font-size="10" font-weight="bold">
  <tspan x="432.7853" y="270.6377">CE</tspan>
 </text>
 <path transform="translate(0,-.1263)" d="m202.54 197.52a2.2728 2.2728 0 1 1 -4.5457 0 2.2728 2.2728 0 1 1 4.5457 0z" opacity=".86"/>
 <path transform="translate(30.557 -.1263)" d="m202.54 197.52a2.2728 2.2728 0 1 1 -4.5457 0 2.2728 2.2728 0 1 1 4.5457 0z" opacity=".86"/>
 <path d="m201.02 196.76h30.305" fill="none" stroke="#000"/>
</svg>
