<?xml version="1.0" encoding="UTF-8"?>
<svg viewBox="0 0 744.09448819 1052.3622047" xmlns="http://www.w3.org/2000/svg">
 <defs>
  <filter id="a" x="-.06978" y="-.42797" width="1.1396" height="1.8559">
   <feGaussianBlur stdDeviation="13.73308"/>
  </filter>
  <linearGradient id="c" x1="292.31" x2="310.82" y1="437.12" y2="875.07" gradientTransform="matrix(1 0 0 .35806 0 233.14)" gradientUnits="userSpaceOnUse">
   <stop stop-color="#fff" offset="0"/>
   <stop stop-color="#129800" offset=".5"/>
   <stop stop-color="#22ef07" offset="1"/>
  </linearGradient>
  <linearGradient id="b" x1="292.56" x2="312.03" y1="404.83" y2="638.17" gradientTransform="matrix(1 0 0 .50556 0 126.63)" gradientUnits="userSpaceOnUse">
   <stop stop-color="#fff" offset="0"/>
   <stop stop-color="#0512a2" offset="1"/>
  </linearGradient>
 </defs>
 <path d="m19.196 373.41h546.74v348.74h-546.74z" fill="#a27105"/>
 <path d="m19.196 310.23h546.74v181.48h-546.74z" fill="url(#b)"/>
 <path d="m106.44 399.28c22.53 6.2562 33.433 20.264 46.878 32.576 32.679-12.458 56.26-37.655 98.038-37.375 28.256 8.9704 39.344 28.242 59.016 42.363 15.848-15.314 21.426-35.03 47.791-45.836 27.664-1.9789 51.034 2.4822 75.745 4.9331 13.697-7.8822 27.82-15.339 46.253-18.485 29.83 18.677 64.654 33.192 85.773 59.127v55.131c-14.551 16.199-17.363 40.223-49.108 44.96-43.163 4.0277-68.665-21.378-102.87-32.277l-138.99 33.468c-25.734-7.3035-56.475-6.4695-70.341-33.059-38.151 19.505-84.254 54.337-122.17 14.18-11.679 13.972-31.148 21.453-52.362 27.479-11.302-15.373-12.304-34.609-10.887-54.752 28.636-31.108 50.065-67.02 87.242-92.434z" fill="url(#c)"/>
 <path d="m343.55 578.85 157.64 27.677-92.475 34.69-28.953-0.15795-30.794 14.203-320.09 0.60167 314.67-77.014z" filter="url(#a)" opacity=".30142"/>
 <path transform="matrix(.5 0 0 .5 198.1 300.25)" d="m343.55 578.85 157.64 27.677-92.475 34.69-28.953-0.15795-30.794 14.203-320.09 0.60167 314.67-77.014z" filter="url(#a)" opacity=".30142"/>
 <path d="m437.95 512.99 6.3923-9.9453 1.3961-4.9289-14.563-6.2943-4.8286 0.31628-0.88707-2.399-31.927 2.0827-6.1874 66.892 14.827 0.12342 9.6807-25.666-8.9884 0.29043-1.2612-12.074-2.3179 0.0647-0.32207-9.7605 38.987 1.2983z" fill="#b8b8b8"/>
 <path d="m385.04 578.52h15.304l6.7892 24.209-23.997 0.0882 1.9043-24.298z" fill="#ededed"/>
 <path d="m385.96 571.41h15.304l0.37025 7.933-16.661-0.22242 0.98734-7.7105z" fill="#b5b5b5"/>
 <path d="m387.24 558.71h15.304l0.37025 13.206-16.661-0.37026 0.98734-12.835z" fill="#ededed"/>
 <path d="m439.69 527.45 1.1e-4 -11.316 6.6182-10.56-0.57078-7.3356 12.959 4.5664-0.24684 15.551 1.8513 4.6898v7.1582l-20.611-2.7538z" fill="#a6a6a6"/>
 <path d="m419.95 526.17c-11.722 0.58767-20.395 24.812-20.395 52.772s9.2822 48.867 21.004 49.455l33.933 1.8577v-103.22l-34.542-0.86582z" fill="#d8d8d8"/>
 <path d="m473.5 535.89c-4.1327 0.64919-7.1907 18.549-7.1907 39.616 0 21.063 2.812 37.572 6.9438 38.227l24.087 0.64829v-78.125l-23.841-0.36545z" fill="#d5d5d5"/>
 <path transform="translate(767.6 382.29)" d="m-292.24 196.35a21.613 51.294 0 1 1 -43.227 0 21.613 51.294 0 1 1 43.227 0z" fill="#c5c5c5"/>
 <path transform="matrix(.5 0 0 .5 610.68 480.47)" d="m-292.24 196.35a21.613 51.294 0 1 1 -43.227 0 21.613 51.294 0 1 1 43.227 0z" fill="#e5e5e5"/>
 <path d="m455.74 454.17-12.688 0.1875-9.872 25.797-5.2188 0.34375-3.7812 16.469 33.874-6e-3 -1.9244-11.115-0.39045-31.676z" fill="#b9b9b9"/>
 <path d="m219.84 427.52 205.72-33.045 4.8595 11.987-219.98 33.693 9.3951-12.635z" fill="#e7e7e7"/>
 <path d="m210.93 439.99 219.98-33.045 10.718 10.345 12.731-0.35931 10.294 9.0136 7.5768 28.028-29.114 0.45145-9.9378 25.738-147.73 9.7191-18.35-31.118-56.163-18.774z" fill="#868686"/>
 <path d="m430.51 406.57-4.795-11.388 13.82 16.338 13.471 0.27191 1.2792 4.9681-12.387 0.19979-11.388-10.389z" fill="#cfcfcf"/>
 <path d="m472.18 453.91-3.6791 0.0192 0.0813 2.3404 13.972 9.953-1.8438 12.281 4.6562 40.062-10.156 7.8438-6.2812-55.5-5.2812-6.4062 0.15625 21.25 9.2987 45.362 1.2951 3.4507 35.156-28-0.71875-5.7188-7.6562-23.906-1.7188-3.6562-24.438-18.469-2.8427-0.90625zm12.968 14.156 13.531 9.5938 4.8438 26.938-14.312 11.031-4.0625-47.562z" fill="#e7e7e7"/>
 <path d="m463.96 531.03 0.0625 3.5h10.375l-1.25-3.4375-9.1875-0.0625z" fill="#5c5c5c"/>
 <path d="m456.08 485.79 7.7842 0.01 9.2516 45.313-9.1543-0.0437-7.8815-45.279z" fill="#9a9a9a"/>
 <path d="m485.15 468.06 1.0843 12.619 10.228 7.1562 2.2188-10.119v-0.0625l-13.531-9.5938z" fill="#9a9a9a"/>
 <path d="m468.5 453.91-4.919 0.0531 0.0971 10.565 5.25 6.375 10.353 6.7436 3.1468-10.556 0.125-0.875-13.906-9.8438-0.14684-2.462z" fill="#9a9a9a"/>
 <path d="m486.21 480.63 3 35 2.5625-2 9.6875-7.4375-5-18.406-10.25-7.1562z" fill="#b9b9b9"/>
 <path d="m468.84 470.78 0.0937 0.125 6.2812 55.5 8.3125-6.4375-4.1875-42.375-10.5-6.8125z" fill="#b9b9b9"/>
 <path d="m501.46 506.21 2.0543-1.5241-4.9037-27.103-2.1868 10.139 5.0363 18.488z" fill="#fffbfb"/>
 <path d="m482.57 466.11-3.3796 11.398 4.3736 42.543 1.8555-1.5241-4.6387-40.025 1.7892-12.392z" fill="#fffbfb"/>
 <path d="m455.67 454.25 7.8857-0.1988 0.1988 31.742-7.6869-0.0663-0.3976-31.477z" fill="#fffbfb"/>
 <g transform="matrix(.95 0 0 .95 820.26 376.57)">
  <path d="m-599.66 151.79c-11.722 0.58767-20.395 24.812-20.395 52.772s9.2822 48.867 21.004 49.455l33.933 1.8577v-103.22l-34.542-0.86582z" fill="#d8d8d8" opacity=".92553"/>
  <path transform="translate(-252.02 7.9171)" d="m-292.24 196.35c0 28.329-9.6766 51.294-21.613 51.294s-21.613-22.965-21.613-51.294 9.6766-51.294 21.613-51.294 21.613 22.965 21.613 51.294z" fill="#c5c5c5"/>
 </g>
 <path d="m239.25 524.37 23.154-0.4585 0.22924-18.798-28.197 1.3755-1.834 3.4387 11.004-0.22925-0.41235 6.8532-3.9433 7.8185z" fill="#b5b5b5"/>
 <path d="m281.84 591.24 84.754-1.9448 0.34392 15.783-84.84 0.28382-0.25755-14.122z" fill="#c1c1c1"/>
 <path d="m428.06 448.06-41.469 3.9375 0.0832 39.385 6.0701-2.8789 35.472-2.1775-0.15621-38.266zm-1.9375 4.4375 0.0937 26.219-38.375 2.0938 0.25-25.188 38.031-3.125h5e-5z" fill="#d3d3d3"/>
 <path d="m428.03 448.16 0.1875 4.2812 13.125 8.25 0.6875 20.656-13.906-2.7188-0.0937 7.625 3.5-0.25 10.781 3.9062v0.125l8.6875 3.75-6.6562-35.906-16.312-9.7188z" fill="#e3e3e3"/>
 <path transform="translate(770.68 386.17)" d="m-357.79 117.69a6.7863 6.8301 0 1 1 -13.573 0 6.7863 6.8301 0 1 1 13.573 0z" fill="#e3e3e3"/>
 <path transform="translate(785.61 385.73)" d="m-357.79 117.69a6.7863 6.8301 0 1 1 -13.573 0 6.7863 6.8301 0 1 1 13.573 0z" fill="#e3e3e3"/>
 <path d="m399.02 511.74c0.0876 0.70053 0.21275 9.7198 0.21275 9.7198l29.335-0.43782 0.20047-9.8573-29.71 0.57534h-0.0377z" fill="#f5f5f5"/>
 <path d="m434.34 532.14c0.61296 0.0876 5.4291 0 5.4291 0l-0.0876-15.937 6.655-10.683-0.61296-7.268-1.401 4.7286-6.655 10.42-3.3275 18.739z" fill="#f5f5f5"/>
 <path d="m426.29 492.12h4.8161l0.0876-6.2172-38.529 2.5394-6.3047 3.0648-0.0253 2.1762h-4.7409l-0.45147 2.6899 11.96-0.22508 0.4255-4.3407 31.974-2.0516 0.78809 2.3643h-8e-5 3e-5z" fill="#f5f5f5"/>
 <path d="m431.01 485.99 26.985 10.989 3.1373 6.815-15.451-5.5191-14.321-6.418-0.35027-5.8669z" fill="#dbdbdb"/>
 <path d="m402.64 533.45 31.786-1.0508 2.014-12.259-7.9198-0.82571-0.037 1.6637-26.832 0.43717 0.98852 12.035z" fill="#e8e8e8"/>
 <path d="m458.69 503.59c0 0.52539-0.0876 14.799-0.0876 14.799l1.7513 5.0788 0.0876 8.669 3.6778 4.3783-0.70053-13.66-2.1016-6.9177-0.17514-12.172-2.4518-0.96323v0.7881z" fill="#f3f3f3"/>
 <path d="m428.39 500.88c0.43783 1.1384 9.5366 12.071 9.5366 12.071l-1.4474 7.1703-7.8265-0.67738 0.0876-8.4063-4.3783-0.0876 4.1156-2.8897-0.0876-7.1804v3e-5z" fill="#c5c5c5"/>
 <path d="m279.07 470.76c0 0.49367-0.66339 25.84-0.66339 25.84l86.292-7.0733 13.229 4.065 8.7791 0.15048-0.13994-35.324-107.5 12.342z" fill="#cecece"/>
 <path d="m262.71 591.54-0.61708-93.55 102.56-8.5158 2.0981 99.844-104.04 2.2215z" fill="#e8e8e8"/>
 <path d="m347.74 497.12-73.557 6.0474 0.61708 85.158 75.284-0.98734-2.3449-90.218z" fill="#bebebe"/>
 <path d="m364.6 489.45 13.281 4.1594 3.7131-0.0376-12.834 87.769 1.1006 21.383-2.9781 2.412-2.2822-115.89v-2e-5 0.20837z" fill="#f2f2f2"/>
 <path d="m381.16 496.39 11.999-0.25738-9.8734 106.88-13.452-0.12342-1.3576-20.857 12.685-85.641z" fill="#adadad"/>
 <path d="m227.91 509.96c0.86392-1.1108 1.8513-6.1708 1.8513-6.1708l32.088-2.2215 0.12342 3.7025-27.645 1.3576-1.3576 2.962-5.0601 0.37025z" fill="#f6f6f6"/>
 <path transform="translate(607.54 399.56)" d="m-359.52 117.69a5.0585 5.4725 0 1 1 -10.117 0 5.0585 5.4725 0 1 1 10.117 0z" fill="#e3e3e3"/>
 <path transform="translate(618.65 398.69)" d="m-359.52 117.69a5.0585 5.4725 0 1 1 -10.117 0 5.0585 5.4725 0 1 1 10.117 0z" fill="#e3e3e3"/>
 <path d="m239.14 524.77 0.24684 7.5284 21.104-0.61709-0.37025-8.0221-20.981 1.1108z" fill="#f6f6f6"/>
 <path d="m391.74 511.99-1.8976 21.788 12.941-0.24826-1.1108-11.848-2.4683-0.12341-0.24683-9.8734-7.2171 0.30477z" fill="#d9d9d9"/>
 <path transform="translate(769.43 386.55)" d="m-264.54 188.66a7.6864 38.889 0 1 1 -15.373 0 7.6864 38.889 0 1 1 15.373 0z" fill="#b6b6b6"/>
 <path transform="matrix(.5 0 0 .5 633.32 480.89)" d="m-264.54 188.66a7.6864 38.889 0 1 1 -15.373 0 7.6864 38.889 0 1 1 15.373 0z" fill="#d7d7d7"/>
</svg>
